<svg width="23" height="23" viewBox="0 0 23 23" fill="none" xmlns="http://www.w3.org/2000/svg">
<path d="M8.43348 10.7333H3.8335V19.1666H8.43348V10.7333Z" fill="white"/>
<path d="M7.66687 8.72613V6.8999H4.60023V8.72613L3.97998 9.96659H8.28712L7.66687 8.72613Z" fill="white"/>
<path d="M6.99013 1.90364L6.501 0.273338C6.45231 0.111162 6.30283 0 6.13376 0C5.96432 0 5.81521 0.111162 5.76652 0.273338L5.27703 1.90364C4.86458 3.27864 4.64837 4.70005 4.61426 6.13332H7.65295C7.61878 4.70005 7.40258 3.27864 6.99013 1.90364Z" fill="white"/>
<path d="M8.09268 20.9246C8.10456 20.8932 8.11684 20.8622 8.12525 20.8292L8.34912 19.9334H3.91744L4.1409 20.8292C4.14935 20.8622 4.16159 20.8932 4.17388 20.9246C3.96763 21.0979 3.8335 21.3547 3.8335 21.6445V22.0555C3.8335 22.5765 4.25709 23 4.77801 23H7.48892C8.00947 23 8.43343 22.5764 8.43343 22.0555V21.6445C8.43348 21.3548 8.2993 21.0979 8.09268 20.9246Z" fill="white"/>
<path d="M18.4003 11.7928V9.96658H15.3336V11.7928L14.7134 13.0332H19.0205L18.4003 11.7928Z" fill="white"/>
<path d="M19.1669 13.8H14.5669V19.1666H19.1669V13.8Z" fill="white"/>
<path d="M17.7235 4.97027L17.2344 3.33997C17.1857 3.17784 17.0362 3.06668 16.8672 3.06668C16.6977 3.06668 16.5486 3.17784 16.4999 3.33997L16.0104 4.97027C15.598 6.34528 15.3818 7.76668 15.3477 9.19996H18.3863C18.3522 7.76673 18.136 6.34532 17.7235 4.97027Z" fill="white"/>
<path d="M18.8261 20.9246C18.838 20.8932 18.8503 20.8622 18.8587 20.8292L19.0826 19.9334H14.6508L14.8743 20.8292C14.8828 20.8622 14.895 20.8932 14.9073 20.9246C14.701 21.0979 14.5669 21.3547 14.5669 21.6445V22.0555C14.5669 22.5765 14.9905 23 15.5114 23H18.2223C18.7429 23 19.1668 22.5764 19.1668 22.0555V21.6445C19.1669 21.3548 19.0328 21.0979 18.8261 20.9246Z" fill="white"/>
<path d="M13.8002 12.2666H9.2002V19.1666H13.8002V12.2666Z" fill="white"/>
<path d="M13.0336 10.2594V8.43324H9.96693V10.2594L9.34668 11.4999H13.6538L13.0336 10.2594Z" fill="white"/>
<path d="M12.3568 3.43698L11.8677 1.80668C11.819 1.64455 11.6695 1.53339 11.5005 1.53339C11.331 1.53339 11.1819 1.64455 11.1332 1.80668L10.6437 3.43698C10.2313 4.81198 10.0151 6.23339 9.98096 7.66667H13.0196C12.9855 6.23339 12.7693 4.81198 12.3568 3.43698Z" fill="white"/>
<path d="M13.4594 20.9246C13.4713 20.8932 13.4836 20.8622 13.492 20.8292L13.7159 19.9334H9.28414L9.5076 20.8292C9.51605 20.8622 9.52829 20.8932 9.54058 20.9246C9.33433 21.0979 9.2002 21.3547 9.2002 21.6445V22.0555C9.2002 22.5765 9.62379 23 10.1447 23H12.8556C13.3762 23 13.8001 22.5764 13.8001 22.0555V21.6445C13.8002 21.3548 13.666 21.0979 13.4594 20.9246Z" fill="white"/>
</svg>
