<svg width="24" height="27" viewBox="0 0 24 27" fill="none" xmlns="http://www.w3.org/2000/svg">
<path d="M21.1152 8.12729L21.1334 8.10911L16.6182 3.60608L15.3334 4.89091L17.891 7.44848C16.7516 7.88484 15.9394 8.98184 15.9394 10.2727C15.9394 11.9455 17.297 13.303 18.9697 13.303C19.4 13.303 19.8122 13.2121 20.1818 13.0485V21.7879C20.1819 22.4546 19.6364 23.0001 18.9698 23.0001C18.3031 23.0001 17.7577 22.4546 17.7577 21.788V16.3334C17.7577 14.994 16.6728 13.9091 15.3334 13.9091H14.1213V5.42427C14.1212 4.08483 13.0364 3 11.697 3H4.42427C3.08483 3 2 4.08483 2 5.42427V24.8182H14.1212V15.7273H15.9394V21.788C15.9394 23.4607 17.297 24.8182 18.9697 24.8182C20.6424 24.8182 22 23.4607 22 21.788V10.2727C22.0001 9.43638 21.6607 8.67882 21.1152 8.12729ZM11.697 11.4849H4.42427V5.42427H11.697V11.4849ZM18.9698 11.4849C18.3031 11.4849 17.7577 10.9394 17.7577 10.2727C17.7577 9.6061 18.3031 9.06064 18.9698 9.06064C19.6364 9.06064 20.1819 9.6061 20.1819 10.2727C20.1819 10.9394 19.6364 11.4849 18.9698 11.4849Z" fill="#4FE442"/>
</svg>
