<svg width="24" height="27" viewBox="0 0 24 27" fill="none" xmlns="http://www.w3.org/2000/svg">
<path d="M21.5103 6.48951C21.1839 6.16316 20.7916 6 20.3334 6H3.66665C3.20833 6 2.81609 6.16312 2.48951 6.48951C2.16312 6.81594 2 7.20819 2 7.66655V20.333C2 20.7915 2.16312 21.1838 2.48951 21.5102C2.81609 21.8366 3.20833 21.9998 3.66665 21.9998H20.3334C20.7916 21.9998 21.1839 21.8366 21.5103 21.5102C21.8367 21.1838 22 20.7915 22 20.333V7.66655C22 7.20819 21.8367 6.81594 21.5103 6.48951ZM20.6665 20.3333C20.6665 20.4237 20.6336 20.5016 20.5676 20.5678C20.5017 20.6334 20.4235 20.6664 20.3334 20.6664H3.66665C3.57643 20.6664 3.49828 20.6334 3.43231 20.5675C3.36639 20.5014 3.33337 20.4234 3.33337 20.333V13.9999H20.6666V20.3333H20.6665ZM20.6665 9.99974H3.33333V7.6664C3.33333 7.57614 3.36624 7.49817 3.43228 7.43206C3.49828 7.36628 3.57643 7.33326 3.66662 7.33326H20.3333C20.4235 7.33326 20.5016 7.36613 20.5676 7.43206C20.6335 7.49817 20.6665 7.57614 20.6665 7.6664V9.99974H20.6665Z" fill="white"/>
<path d="M7.33313 17.9974H4.6665V19.3308H7.33313V17.9974Z" fill="white"/>
<path d="M12.6665 17.9974H8.6665V19.3308H12.6665V17.9974Z" fill="white"/>
</svg>
