<svg width="19" height="19" viewBox="0 0 19 19" fill="none" xmlns="http://www.w3.org/2000/svg">
<path d="M18.1284 17.2642H0.86347C0.386459 17.2642 0 17.6506 0 18.128C0 18.6046 0.386459 18.9911 0.86347 18.9911H18.128C18.605 18.9911 18.9915 18.6046 18.9915 18.128C18.9911 17.6506 18.6046 17.2642 18.1284 17.2642Z" fill="black"/>
<path d="M1.94233 15.0189C1.46532 15.0189 1.07886 15.4053 1.07886 15.8823C1.07886 16.3594 1.46532 16.7462 1.94233 16.7462H17.049C17.526 16.7462 17.9125 16.3594 17.9125 15.8823C17.9125 15.4053 17.526 15.0189 17.049 15.0189H16.8336V7.24926H17.049C17.2879 7.24926 17.4803 7.05603 17.4803 6.81793C17.4803 6.57983 17.2871 6.3866 17.049 6.3866H1.94233C1.70382 6.3866 1.511 6.57983 1.511 6.81793C1.511 7.05603 1.70423 7.24926 1.94233 7.24926H2.1582V15.0185H1.94233V15.0189ZM15.1066 7.24926V15.0185H12.517V7.24926H15.1066ZM10.7901 7.24926V15.0185H8.20047V7.24926H10.7901ZM3.88433 7.24926H6.47393V15.0185H3.88433V7.24926Z" fill="black"/>
<path d="M0.863487 5.61074H18.128C18.1309 5.61074 18.1341 5.61074 18.1365 5.61074C18.6139 5.61074 19 5.22428 19 4.74727C19 4.36808 18.7558 4.04671 18.4167 3.93029L9.85069 0.0757962C9.62553 -0.0252654 9.36802 -0.0252654 9.14245 0.0757962L0.509367 3.9602C0.137864 4.12756 -0.06628 4.531 0.0194202 4.92877C0.104716 5.32655 0.45641 5.61074 0.863487 5.61074Z" fill="black"/>
</svg>
