<svg width="24" height="27" viewBox="0 0 24 27" fill="none" xmlns="http://www.w3.org/2000/svg">
<path d="M11.9998 3C6.47714 3 2 7.47727 2 12.9998C2 18.5224 6.47714 23 11.9998 23C17.5225 23 22 18.5224 22 12.9998C22 7.47727 17.5225 3 11.9998 3ZM16.323 14.9018H12.0835C12.0692 14.9018 12.0558 14.8983 12.0416 14.8978C12.0274 14.8985 12.0142 14.9018 11.9998 14.9018C11.6178 14.9018 11.3082 14.5921 11.3082 14.2102V7.15C11.3082 6.76806 11.6178 6.45839 11.9998 6.45839C12.3817 6.45839 12.6914 6.76806 12.6914 7.15V13.5186H16.3228C16.7047 13.5186 17.0144 13.8282 17.0144 14.2102C17.0144 14.5921 16.705 14.9018 16.323 14.9018Z" fill="white"/>
</svg>
