<svg width="24" height="24" viewBox="0 0 24 24" fill="none" xmlns="http://www.w3.org/2000/svg">
<path d="M15.7037 2C12.2222 2 9.40742 4.81481 9.40742 8.29628C9.40742 9.03702 9.55557 9.77776 9.77777 10.5185L2 18.2963V22H5.70371V19.7778H7.92594V17.5556H10.1482L13.4815 14.2222C14.1482 14.4444 14.8889 14.5926 15.7037 14.5926C19.1852 14.5926 22 11.7778 22 8.29632C22 4.81485 19.1852 2 15.7037 2ZM17.5556 8.66667C16.2963 8.66667 15.3334 7.70372 15.3334 6.44444C15.3334 5.18517 16.2963 4.22222 17.5556 4.22222C18.8149 4.22222 19.7778 5.18517 19.7778 6.44444C19.7778 7.70372 18.8149 8.66667 17.5556 8.66667Z" fill="white"/>
</svg>
