<svg width="36" height="27" viewBox="0 0 36 27" fill="none" xmlns="http://www.w3.org/2000/svg">
<path d="M32.4445 8.83345C32.1376 8.83345 31.8888 9.09445 31.8888 9.41673V12.9166H29.1111V8.83345C29.1111 8.51118 28.8623 8.24994 28.5556 8.24994H18.5555V5.33333H22.4444V4.75006C22.4444 3.78347 21.6983 3 20.7777 3H15.2223C14.3017 3 13.5556 3.78347 13.5556 4.75006V5.33333H17.4445V8.24994H15.7279C15.5045 8.2521 15.2864 8.32132 15.0994 8.44941L10.9527 11.3598C10.5851 11.6119 10.1558 11.7474 9.71677 11.7501H7.99992C7.69322 11.7501 7.44443 12.0113 7.44443 12.3333V17.5833H4.11122V14.0834C4.11122 13.7611 3.86243 13.5001 3.5555 13.5001C3.24879 13.5001 3 13.7611 3 14.0834V22.2502C3 22.5722 3.24879 22.8335 3.5555 22.8335C3.86243 22.8335 4.11122 22.5722 4.11122 22.2502V18.7501H7.44443V23.4167C7.44443 23.739 7.69322 24 7.99992 24H19.6667C19.9068 23.999 20.1405 23.9173 20.3332 23.7666L26.1111 19.2168C26.4963 18.9149 26.9637 18.7513 27.4444 18.7501H28.5556C28.8623 18.7501 29.1111 18.4888 29.1111 18.1668V14.0834H31.8888V17.5833C31.8888 17.9056 32.1376 18.1668 32.4445 18.1668C32.7512 18.1668 33 17.9056 33 17.5833V9.41673C33 9.09445 32.7512 8.83345 32.4445 8.83345ZM9.66664 21.0834C9.66664 21.4057 9.41785 21.6667 9.11115 21.6667C8.80421 21.6667 8.55565 21.4057 8.55565 21.0834V15.8335C8.55565 15.5112 8.80421 15.2499 9.11115 15.2499C9.41785 15.2499 9.66664 15.5112 9.66664 15.8335V21.0834ZM9.50551 13.9142C9.34666 14.0824 9.10657 14.1331 8.89806 14.0421C8.68954 13.9512 8.55428 13.7371 8.55565 13.5001C8.55359 13.4235 8.56892 13.3475 8.60005 13.2783C8.6282 13.2076 8.66757 13.1425 8.71655 13.0858C8.93948 12.87 9.28281 12.87 9.50551 13.0858C9.55449 13.1425 9.59409 13.2076 9.62224 13.2783C9.71082 13.4953 9.66458 13.7472 9.50551 13.9142ZM21.6305 16.5806L16.8334 22.6239C16.6622 22.839 16.3697 22.8957 16.1367 22.7592C15.9037 22.6227 15.7959 22.3317 15.8801 22.0658L17.3028 17.5833H15.4878C15.1367 17.5835 14.8062 17.409 14.5963 17.1134C14.3866 16.8176 14.3226 16.435 14.4233 16.082L15.7567 11.4153C15.8996 10.9231 16.3308 10.5862 16.8206 10.5833H18.9938C19.3451 10.5833 19.6756 10.7575 19.8853 11.0534C20.095 11.3492 20.159 11.7316 20.0583 12.0848L19.3206 14.6667H20.7777C21.2092 14.6664 21.6017 14.9284 21.7846 15.3384C21.9674 15.7486 21.9079 16.2329 21.6317 16.5806H21.6305Z" fill="#DD1414"/>
</svg>
