<svg width="18" height="25" viewBox="0 0 18 25" fill="none" xmlns="http://www.w3.org/2000/svg">
<rect x="16.481" y="5.72144" width="1" height="20.0381" transform="rotate(50.8243 16.481 5.72144)" fill="white" fill-opacity="0.65"/>
<path fill-rule="evenodd" clip-rule="evenodd" d="M8.66675 19.167C11.1938 19.167 13.2502 17.1107 13.2502 14.5835V8.96582L4.37646 16.1969C5.03076 17.9305 6.70728 19.167 8.66675 19.167ZM4.08325 14.2975V4.58337C4.08325 2.05627 6.13965 0 8.66675 0C11.1938 0 13.2502 2.05627 13.2502 4.58337V6.82751L4.08325 14.2975ZM14.9167 11.6669C14.6868 11.6669 14.5002 11.8531 14.5002 12.0835V14.5835C14.5002 17.8003 11.8835 20.417 8.66675 20.417C5.44995 20.417 2.83325 17.8003 2.83325 14.5835V12.0835C2.83325 11.8531 2.64673 11.6669 2.41675 11.6669C2.18677 11.6669 2 11.8531 2 12.0835V14.5835C2 18.119 4.76831 21.0125 8.25 21.229V23.3336H6.16675C5.93677 23.3336 5.75 23.5199 5.75 23.7504C5.75 23.85 5.78491 23.9414 5.84326 24.0131C5.86035 24.0341 5.87939 24.0533 5.90015 24.0707C5.91479 24.0828 5.92993 24.0939 5.94604 24.1039C6.01001 24.1439 6.08569 24.167 6.16675 24.167H11.1667C11.3967 24.167 11.5835 23.9807 11.5835 23.7504C11.5835 23.5199 11.3967 23.3336 11.1667 23.3336H9.0835V21.229C12.5652 21.0125 15.3335 18.1187 15.3335 14.5835V12.0835C15.3335 11.8531 15.147 11.6669 14.9167 11.6669Z" fill="white" fill-opacity="0.65"/>
</svg>
