<svg width="24" height="27" viewBox="0 0 24 27" fill="none" xmlns="http://www.w3.org/2000/svg">
<path d="M17.2894 12.5285C17.289 12.5248 17.2887 12.521 17.2881 12.5173C17.2855 12.4991 17.282 12.4808 17.2771 12.4628C17.2771 12.4626 17.277 12.4624 17.2769 12.4622C17.2723 12.4454 17.2664 12.4288 17.2598 12.4124C17.2579 12.4077 17.2558 12.4031 17.2538 12.3985C17.2485 12.3867 17.2427 12.375 17.2363 12.3635C17.2336 12.3585 17.2309 12.3534 17.2279 12.3485C17.2263 12.3458 17.2251 12.3431 17.2234 12.3404C17.2167 12.3298 17.2094 12.3198 17.2019 12.3099C17.2005 12.308 17.1994 12.3061 17.198 12.3043C17.1867 12.2896 17.1745 12.276 17.1617 12.2631C17.1593 12.2606 17.1566 12.2584 17.1542 12.256C17.143 12.2453 17.1315 12.2353 17.1195 12.2258C17.1164 12.2234 17.1134 12.221 17.1102 12.2187C17.0941 12.2067 17.0775 12.1956 17.0602 12.186L10.3939 8.39669L14.2321 5.97975L20.6668 9.63732L17.9568 11.3438C17.7453 11.4769 17.6819 11.7563 17.815 11.9678C17.9481 12.1793 18.2275 12.2428 18.439 12.1096L21.7886 10.0004C21.9233 9.91565 22.0035 9.76637 21.9999 9.60728C21.9963 9.44818 21.9095 9.30275 21.7711 9.22411L14.4438 5.05911C14.2989 4.97667 14.1203 4.98074 13.9791 5.06957L9.27517 8.03162C9.27422 8.0322 9.27322 8.03284 9.27227 8.03343L6.92172 9.51357C6.92064 9.51425 6.91955 9.51493 6.91851 9.5156L2.21139 12.4797C2.07672 12.5644 1.9965 12.7137 2.00012 12.8728C2.00369 13.0319 2.09053 13.1773 2.2289 13.256L9.55626 17.421C9.62567 17.4605 9.70277 17.4801 9.77983 17.4801C9.86368 17.4801 9.94739 17.4568 10.0209 17.4105L13.3705 15.3013C13.582 15.1682 13.6455 14.8887 13.5123 14.6773C13.3793 14.4658 13.0998 14.4023 12.8884 14.5355L9.76793 16.5004L3.3332 12.8427L7.1715 10.4257L14.0344 14.3268V19.4934C14.0344 19.6582 14.124 19.8099 14.2682 19.8895C14.3364 19.9272 14.4117 19.9459 14.4869 19.9459C14.5708 19.9459 14.6545 19.9226 14.728 19.8763L17.0816 18.3942C17.2132 18.3114 17.293 18.1668 17.293 18.0113V12.5815C17.293 12.5788 17.2925 12.5762 17.2924 12.5736C17.2922 12.5586 17.2912 12.5435 17.2894 12.5285ZM14.9394 18.6738V14.0635C14.9394 13.9008 14.852 13.7506 14.7105 13.6702L8.04028 9.87873L9.52504 8.94375L15.9597 12.6014L15.3963 12.9561C15.1848 13.0892 15.1213 13.3687 15.2545 13.5801C15.3405 13.7168 15.4875 13.7915 15.6379 13.7915C15.7202 13.7915 15.8037 13.7691 15.8785 13.7219L16.388 13.4011V17.7616L14.9394 18.6738Z" fill="white"/>
<path d="M21.3062 11.0437L17.9566 13.1529C17.7451 13.286 17.6816 13.5654 17.8148 13.7768C17.9007 13.9135 18.0478 13.9883 18.1981 13.9883C18.2805 13.9883 18.3639 13.9658 18.4388 13.9187L21.7884 11.8095C21.9999 11.6763 22.0633 11.3969 21.9302 11.1855C21.797 10.974 21.5176 10.9105 21.3062 11.0437Z" fill="white"/>
<path d="M12.8884 16.3442L9.768 18.3091L2.67616 14.278C2.45906 14.1546 2.18268 14.2304 2.05919 14.4478C1.93571 14.665 2.01168 14.9413 2.22896 15.0647L9.55633 19.2297C9.62574 19.2692 9.70284 19.2889 9.7799 19.2889C9.86375 19.2889 9.94746 19.2656 10.021 19.2193L13.3706 17.11C13.5821 16.9769 13.6456 16.6975 13.5124 16.4861C13.3793 16.2745 13.0999 16.211 12.8884 16.3442Z" fill="white"/>
<path d="M21.3062 12.851L17.9566 14.9602C17.7451 15.0933 17.6816 15.3727 17.8148 15.5842C17.9007 15.7208 18.0478 15.7956 18.1981 15.7956C18.2805 15.7956 18.3639 15.7731 18.4388 15.726L21.7884 13.6168C21.9999 13.4837 22.0633 13.2043 21.9302 12.9928C21.797 12.7813 21.5176 12.7178 21.3062 12.851Z" fill="white"/>
<path d="M12.8884 18.1541L9.768 20.119L2.67616 16.0879C2.45906 15.9645 2.18268 16.0403 2.05919 16.2577C1.93571 16.4749 2.01168 16.7512 2.22896 16.8747L9.55633 21.0396C9.62574 21.0791 9.70284 21.0988 9.7799 21.0988C9.86375 21.0988 9.94746 21.0755 10.021 21.0292L13.3706 18.92C13.5821 18.7868 13.6456 18.5074 13.5124 18.296C13.3793 18.0844 13.0999 18.0209 12.8884 18.1541Z" fill="white"/>
<path d="M21.3062 14.6661L17.9566 16.7753C17.7451 16.9084 17.6816 17.1878 17.8148 17.3992C17.9007 17.5359 18.0478 17.6107 18.1981 17.6107C18.2805 17.6107 18.3639 17.5882 18.4388 17.541L21.7884 15.4319C21.9999 15.2987 22.0633 15.0193 21.9302 14.8079C21.797 14.5964 21.5176 14.5329 21.3062 14.6661Z" fill="white"/>
<path d="M12.8884 19.964L9.768 21.9289L2.67616 17.8978C2.45906 17.7744 2.18268 17.8502 2.05919 18.0676C1.93571 18.2848 2.01168 18.5611 2.22896 18.6846L9.55633 22.8496C9.62574 22.8891 9.70284 22.9087 9.7799 22.9087C9.86375 22.9087 9.94746 22.8854 10.021 22.8391L13.3706 20.7299C13.5821 20.5967 13.6456 20.3173 13.5124 20.1059C13.3793 19.8943 13.0999 19.8308 12.8884 19.964Z" fill="white"/>
</svg>
