<svg width="101" height="51" viewBox="0 0 101 51" fill="none" xmlns="http://www.w3.org/2000/svg">
<path d="M0 4V51H4.82143V8.86207H16.0714V42.8966H20.8929V8.86207H32.1429V42.8966H36.9643V4H0Z" fill="#E03C3B"/>
<path d="M8.03571 51V12.1034H12.8571V46.1379H24.1071V12.1034H28.9286V46.1379H40.1786V4H45V51H8.03571Z" fill="#E03C3B"/>
<rect x="47" y="42" width="54" height="9" fill="#E03C3B"/>
<path d="M59.266 17L59.248 8.648L55.108 15.56H54.064L49.924 8.756V17H47.692V4.4H49.618L54.622 12.752L59.536 4.4H61.462L61.48 17H59.266ZM73.0554 14.084H66.7554L65.5134 17H63.1014L68.7714 4.4H71.0754L76.7634 17H74.3154L73.0554 14.084ZM72.2814 12.248L69.9054 6.74L67.5474 12.248H72.2814ZM88.1578 15.02V17H77.4118V15.434L84.8278 6.38H77.5378V4.4H87.9238V5.966L80.5078 15.02H88.1578ZM99.7514 15.038V17H90.3014V4.4H99.4994V6.362H92.6414V9.638H98.7254V11.564H92.6414V15.038H99.7514Z" fill="#1A1A1A"/>
<path d="M56.62 26.448C57.316 26.676 57.868 27.06 58.276 27.6C58.684 28.128 58.888 28.788 58.888 29.58C58.888 30.672 58.468 31.518 57.628 32.118C56.788 32.706 55.564 33 53.956 33H47.692V20.4H53.596C55.084 20.4 56.23 20.694 57.034 21.282C57.838 21.858 58.24 22.656 58.24 23.676C58.24 24.3 58.096 24.852 57.808 25.332C57.52 25.812 57.124 26.184 56.62 26.448ZM50.032 22.236V25.71H53.344C54.16 25.71 54.784 25.566 55.216 25.278C55.66 24.978 55.882 24.546 55.882 23.982C55.882 23.406 55.66 22.974 55.216 22.686C54.784 22.386 54.16 22.236 53.344 22.236H50.032ZM53.812 31.164C55.624 31.164 56.53 30.558 56.53 29.346C56.53 28.134 55.624 27.528 53.812 27.528H50.032V31.164H53.812ZM69.5574 30.084H63.2574L62.0154 33H59.6034L65.2734 20.4H67.5774L73.2654 33H70.8174L69.5574 30.084ZM68.7834 28.248L66.4074 22.74L64.0494 28.248H68.7834ZM86.0638 20.4V33H84.1378L77.1898 24.468V33H74.8678V20.4H76.7938L83.7418 28.932V20.4H86.0638ZM93.778 27.726L91.78 29.778V33H89.44V20.4H91.78V26.862L98.008 20.4H100.636L95.344 26.034L100.96 33H98.224L93.778 27.726Z" fill="#1A1A1A"/>
<path d="M50.526 40.06C50.098 40.06 49.712 39.968 49.368 39.784C49.024 39.596 48.754 39.338 48.558 39.01C48.362 38.678 48.264 38.308 48.264 37.9C48.264 37.492 48.362 37.124 48.558 36.796C48.754 36.464 49.024 36.206 49.368 36.022C49.712 35.834 50.098 35.74 50.526 35.74C50.954 35.74 51.34 35.834 51.684 36.022C52.028 36.206 52.298 36.462 52.494 36.79C52.69 37.118 52.788 37.488 52.788 37.9C52.788 38.312 52.69 38.682 52.494 39.01C52.298 39.338 52.028 39.596 51.684 39.784C51.34 39.968 50.954 40.06 50.526 40.06ZM50.526 39.376C50.806 39.376 51.058 39.314 51.282 39.19C51.506 39.062 51.682 38.886 51.81 38.662C51.938 38.434 52.002 38.18 52.002 37.9C52.002 37.62 51.938 37.368 51.81 37.144C51.682 36.916 51.506 36.74 51.282 36.616C51.058 36.488 50.806 36.424 50.526 36.424C50.246 36.424 49.994 36.488 49.77 36.616C49.546 36.74 49.37 36.916 49.242 37.144C49.114 37.368 49.05 37.62 49.05 37.9C49.05 38.18 49.114 38.434 49.242 38.662C49.37 38.886 49.546 39.062 49.77 39.19C49.994 39.314 50.246 39.376 50.526 39.376ZM54.3948 36.454V37.732H56.4228V38.392H54.3948V40H53.6148V35.8H56.6808V36.454H54.3948ZM59.0933 35.8H59.8733V39.34H62.0693V40H59.0933V35.8ZM64.5709 40.06C64.1429 40.06 63.7569 39.968 63.4129 39.784C63.0689 39.596 62.7989 39.338 62.6029 39.01C62.4069 38.678 62.3089 38.308 62.3089 37.9C62.3089 37.492 62.4069 37.124 62.6029 36.796C62.7989 36.464 63.0689 36.206 63.4129 36.022C63.7569 35.834 64.1429 35.74 64.5709 35.74C64.9989 35.74 65.3849 35.834 65.7289 36.022C66.0729 36.206 66.3429 36.462 66.5389 36.79C66.7349 37.118 66.8329 37.488 66.8329 37.9C66.8329 38.312 66.7349 38.682 66.5389 39.01C66.3429 39.338 66.0729 39.596 65.7289 39.784C65.3849 39.968 64.9989 40.06 64.5709 40.06ZM64.5709 39.376C64.8509 39.376 65.1029 39.314 65.3269 39.19C65.5509 39.062 65.7269 38.886 65.8549 38.662C65.9829 38.434 66.0469 38.18 66.0469 37.9C66.0469 37.62 65.9829 37.368 65.8549 37.144C65.7269 36.916 65.5509 36.74 65.3269 36.616C65.1029 36.488 64.8509 36.424 64.5709 36.424C64.2909 36.424 64.0389 36.488 63.8149 36.616C63.5909 36.74 63.4149 36.916 63.2869 37.144C63.1589 37.368 63.0949 37.62 63.0949 37.9C63.0949 38.18 63.1589 38.434 63.2869 38.662C63.4149 38.886 63.5909 39.062 63.8149 39.19C64.0389 39.314 64.2909 39.376 64.5709 39.376ZM68.9617 40.06C68.6377 40.06 68.3237 40.014 68.0197 39.922C67.7197 39.83 67.4817 39.708 67.3057 39.556L67.5757 38.95C67.7477 39.086 67.9577 39.198 68.2057 39.286C68.4577 39.37 68.7097 39.412 68.9617 39.412C69.2737 39.412 69.5057 39.362 69.6577 39.262C69.8137 39.162 69.8917 39.03 69.8917 38.866C69.8917 38.746 69.8477 38.648 69.7597 38.572C69.6757 38.492 69.5677 38.43 69.4357 38.386C69.3037 38.342 69.1237 38.292 68.8957 38.236C68.5757 38.16 68.3157 38.084 68.1157 38.008C67.9197 37.932 67.7497 37.814 67.6057 37.654C67.4657 37.49 67.3957 37.27 67.3957 36.994C67.3957 36.762 67.4577 36.552 67.5817 36.364C67.7097 36.172 67.8997 36.02 68.1517 35.908C68.4077 35.796 68.7197 35.74 69.0877 35.74C69.3437 35.74 69.5957 35.772 69.8437 35.836C70.0917 35.9 70.3057 35.992 70.4857 36.112L70.2397 36.718C70.0557 36.61 69.8637 36.528 69.6637 36.472C69.4637 36.416 69.2697 36.388 69.0817 36.388C68.7737 36.388 68.5437 36.44 68.3917 36.544C68.2437 36.648 68.1697 36.786 68.1697 36.958C68.1697 37.078 68.2117 37.176 68.2957 37.252C68.3837 37.328 68.4937 37.388 68.6257 37.432C68.7577 37.476 68.9377 37.526 69.1657 37.582C69.4777 37.654 69.7337 37.73 69.9337 37.81C70.1337 37.886 70.3037 38.004 70.4437 38.164C70.5877 38.324 70.6597 38.54 70.6597 38.812C70.6597 39.044 70.5957 39.254 70.4677 39.442C70.3437 39.63 70.1537 39.78 69.8977 39.892C69.6417 40.004 69.3297 40.06 68.9617 40.06ZM74.3933 40.06C74.0693 40.06 73.7553 40.014 73.4513 39.922C73.1513 39.83 72.9133 39.708 72.7373 39.556L73.0073 38.95C73.1793 39.086 73.3893 39.198 73.6373 39.286C73.8893 39.37 74.1413 39.412 74.3933 39.412C74.7053 39.412 74.9373 39.362 75.0893 39.262C75.2453 39.162 75.3233 39.03 75.3233 38.866C75.3233 38.746 75.2793 38.648 75.1913 38.572C75.1073 38.492 74.9993 38.43 74.8673 38.386C74.7353 38.342 74.5553 38.292 74.3273 38.236C74.0073 38.16 73.7473 38.084 73.5473 38.008C73.3513 37.932 73.1813 37.814 73.0373 37.654C72.8973 37.49 72.8273 37.27 72.8273 36.994C72.8273 36.762 72.8893 36.552 73.0133 36.364C73.1413 36.172 73.3313 36.02 73.5833 35.908C73.8393 35.796 74.1513 35.74 74.5193 35.74C74.7753 35.74 75.0273 35.772 75.2753 35.836C75.5233 35.9 75.7373 35.992 75.9173 36.112L75.6713 36.718C75.4873 36.61 75.2953 36.528 75.0953 36.472C74.8953 36.416 74.7013 36.388 74.5133 36.388C74.2053 36.388 73.9753 36.44 73.8233 36.544C73.6753 36.648 73.6013 36.786 73.6013 36.958C73.6013 37.078 73.6433 37.176 73.7273 37.252C73.8153 37.328 73.9253 37.388 74.0573 37.432C74.1893 37.476 74.3693 37.526 74.5973 37.582C74.9093 37.654 75.1653 37.73 75.3653 37.81C75.5653 37.886 75.7353 38.004 75.8753 38.164C76.0193 38.324 76.0913 38.54 76.0913 38.812C76.0913 39.044 76.0273 39.254 75.8993 39.442C75.7753 39.63 75.5853 39.78 75.3293 39.892C75.0733 40.004 74.7613 40.06 74.3933 40.06ZM79.5888 39.028H77.4888L77.0748 40H76.2708L78.1608 35.8H78.9288L80.8248 40H80.0088L79.5888 39.028ZM79.3308 38.416L78.5388 36.58L77.7528 38.416H79.3308ZM85.0909 35.8V40H84.4489L82.1329 37.156V40H81.3589V35.8H82.0009L84.3169 38.644V35.8H85.0909ZM87.0683 36.46H85.6763V35.8H89.2403V36.46H87.8483V40H87.0683V36.46ZM91.7291 40.06C91.3011 40.06 90.9151 39.968 90.5711 39.784C90.2271 39.596 89.9571 39.338 89.7611 39.01C89.5651 38.678 89.4671 38.308 89.4671 37.9C89.4671 37.492 89.5651 37.124 89.7611 36.796C89.9571 36.464 90.2271 36.206 90.5711 36.022C90.9151 35.834 91.3011 35.74 91.7291 35.74C92.1571 35.74 92.5431 35.834 92.8871 36.022C93.2311 36.206 93.5011 36.462 93.6971 36.79C93.8931 37.118 93.9911 37.488 93.9911 37.9C93.9911 38.312 93.8931 38.682 93.6971 39.01C93.5011 39.338 93.2311 39.596 92.8871 39.784C92.5431 39.968 92.1571 40.06 91.7291 40.06ZM91.7291 39.376C92.0091 39.376 92.2611 39.314 92.4851 39.19C92.7091 39.062 92.8851 38.886 93.0131 38.662C93.1411 38.434 93.2051 38.18 93.2051 37.9C93.2051 37.62 93.1411 37.368 93.0131 37.144C92.8851 36.916 92.7091 36.74 92.4851 36.616C92.2611 36.488 92.0091 36.424 91.7291 36.424C91.4491 36.424 91.1971 36.488 90.9731 36.616C90.7491 36.74 90.5731 36.916 90.4451 37.144C90.3171 37.368 90.2531 37.62 90.2531 37.9C90.2531 38.18 90.3171 38.434 90.4451 38.662C90.5731 38.886 90.7491 39.062 90.9731 39.19C91.1971 39.314 91.4491 39.376 91.7291 39.376ZM96.1199 40.06C95.7959 40.06 95.4819 40.014 95.1779 39.922C94.8779 39.83 94.6399 39.708 94.4639 39.556L94.7339 38.95C94.9059 39.086 95.1159 39.198 95.3639 39.286C95.6159 39.37 95.8679 39.412 96.1199 39.412C96.4319 39.412 96.6639 39.362 96.8159 39.262C96.9719 39.162 97.0499 39.03 97.0499 38.866C97.0499 38.746 97.0059 38.648 96.9179 38.572C96.8339 38.492 96.7259 38.43 96.5939 38.386C96.4619 38.342 96.2819 38.292 96.0539 38.236C95.7339 38.16 95.4739 38.084 95.2739 38.008C95.0779 37.932 94.9079 37.814 94.7639 37.654C94.6239 37.49 94.5539 37.27 94.5539 36.994C94.5539 36.762 94.6159 36.552 94.7399 36.364C94.8679 36.172 95.0579 36.02 95.3099 35.908C95.5659 35.796 95.8779 35.74 96.2459 35.74C96.5019 35.74 96.7539 35.772 97.0019 35.836C97.2499 35.9 97.4639 35.992 97.6439 36.112L97.3979 36.718C97.2139 36.61 97.0219 36.528 96.8219 36.472C96.6219 36.416 96.4279 36.388 96.2399 36.388C95.9319 36.388 95.7019 36.44 95.5499 36.544C95.4019 36.648 95.3279 36.786 95.3279 36.958C95.3279 37.078 95.3699 37.176 95.4539 37.252C95.5419 37.328 95.6519 37.388 95.7839 37.432C95.9159 37.476 96.0959 37.526 96.3239 37.582C96.6359 37.654 96.8919 37.73 97.0919 37.81C97.2919 37.886 97.4619 38.004 97.6019 38.164C97.7459 38.324 97.8179 38.54 97.8179 38.812C97.8179 39.044 97.7539 39.254 97.6259 39.442C97.5019 39.63 97.3119 39.78 97.0559 39.892C96.7999 40.004 96.4879 40.06 96.1199 40.06Z" fill="#1A1A1A"/>
</svg>
