<svg width="19" height="19" viewBox="0 0 19 19" fill="none" xmlns="http://www.w3.org/2000/svg">
<path d="M9.46868 10.1552C12.2766 10.1552 14.5541 7.87767 14.5541 5.0698C14.5541 2.26194 12.2765 0 9.46868 0C6.66082 0 4.3833 2.27752 4.3833 5.0698C4.3833 7.86209 6.66079 10.1552 9.46868 10.1552ZM9.46868 1.32595C11.5278 1.32595 13.2125 3.01067 13.2125 5.0698C13.2125 7.12894 11.5278 8.81362 9.46868 8.81362C7.40958 8.81362 5.72483 7.1289 5.72483 5.06977C5.72483 3.01064 7.40955 1.32595 9.46868 1.32595Z" fill="black"/>
<path d="M0.670765 18.0941H18.3292C18.7036 18.0941 19 17.7977 19 17.4233C19 13.9134 16.1453 11.0432 12.6199 11.0432H6.38014C2.87028 11.0432 0 13.8978 0 17.4233C0 17.7977 0.296383 18.0941 0.670765 18.0941ZM6.38014 12.3847H12.6199C15.1781 12.3847 17.2841 14.2878 17.6117 16.7525H1.38834C1.71591 14.3034 3.82185 12.3847 6.38014 12.3847Z" fill="black"/>
</svg>
