<?xml version="1.0" encoding="iso-8859-1"?>
<!-- Generator: Adobe Illustrator 19.0.0, SVG Export Plug-In . SVG Version: 6.00 Build 0)  -->
<svg version="1.1" id="Capa_1" xmlns="http://www.w3.org/2000/svg" xmlns:xlink="http://www.w3.org/1999/xlink" x="0px" y="0px"
	 viewBox="0 0 512 512" style="enable-background:new 0 0 512 512;" xml:space="preserve">
<g>
	<g>
		<path fill="#f00" d="M504.978,58.104c-11.335-22.677-34.141-36.771-59.51-36.771h-206.7c-39.579,0-77.356,16.958-103.652,46.542
			L34.954,180.542C12.357,205.948-0.083,238.667,0,274.042l17.836,137.667h0.01c2.552,19.729,11.71,38.344,25.785,52.417
			c17.117,17.115,39.871,26.542,64.083,26.542h361.611C492.862,490.667,512,471.531,512,448V87.854
			C512,77.583,509.573,67.292,504.978,58.104z M490.668,448h-0.001c0,11.76-9.573,21.333-21.333,21.333H107.781
			c-18.5,0-35.906-7.208-48.99-20.292c-10.76-10.76-17.76-24.99-19.708-40.083l-17.75-136.292c0-28.771,10.531-56.448,29.635-77.958
			L151.115,82.042c22.25-25.021,54.219-39.375,87.698-39.375H445.48c17.229,0,32.719,9.573,40.417,24.979
			c3.125,6.24,4.771,13.229,4.771,20.208V448z"/>
	</g>
</g>
<g>
	<g>
		<path fill="#f00" d="M466.812,77.187C462.76,69.052,454.583,64,445.479,64H238.813c-27.385,0-53.542,11.74-71.75,32.219L66.906,208.885
			c-12.583,14.177-24.24,30.99-24.24,57.781c0,5.896,4.771,10.667,10.667,10.667h405.333c5.896,0,10.667-4.771,10.667-10.667V87.854
			C469.333,84.166,468.458,80.479,466.812,77.187z M448.001,256H448H64.854c1.958-11.292,7.427-21.031,18-32.948L183,110.396
			c14.167-15.927,34.51-25.063,55.813-25.063H445.48c0.99,0,1.813,0.5,2.521,2.521V256z"/>
	</g>
</g>
<g>
	<g>
		<path fill="#f00" d="M458.667,320h-64c-5.896,0-10.667,4.771-10.667,10.667s4.771,10.667,10.667,10.667h64c5.896,0,10.667-4.771,10.667-10.667
			C469.333,324.771,464.563,320,458.667,320z"/>
	</g>
</g>
<g>
	<g>
		<path fill="#f00" d="M231.542,109.792c-4.167-4.167-10.917-4.167-15.083,0l-21.333,21.333c-4.167,4.167-4.167,10.917,0,15.083
			c2.082,2.084,4.812,3.125,7.541,3.125s5.458-1.042,7.542-3.125l21.333-21.333C235.709,120.708,235.709,113.958,231.542,109.792z"
			/>
	</g>
</g>
<g>
	<g>
		<path fill="#f00" d="M274.209,109.792c-4.167-4.167-10.917-4.167-15.084,0l-64,64c-4.167,4.167-4.167,10.917,0,15.083
			c2.083,2.083,4.813,3.125,7.542,3.125s5.458-1.042,7.542-3.125l64-64C278.376,120.708,278.376,113.958,274.209,109.792z"/>
	</g>
</g>
<g>
	<g>
		<path fill="#f00" d="M458.667,384h-384C68.771,384,64,388.771,64,394.667s4.771,10.667,10.667,10.667h384c5.896,0,10.667-4.771,10.667-10.667
			S464.563,384,458.667,384z"/>
	</g>
</g>
<g>
</g>
<g>
</g>
<g>
</g>
<g>
</g>
<g>
</g>
<g>
</g>
<g>
</g>
<g>
</g>
<g>
</g>
<g>
</g>
<g>
</g>
<g>
</g>
<g>
</g>
<g>
</g>
<g>
</g>
</svg>
