<svg height="35" viewBox="0 -31 512 512" width="35" xmlns="http://www.w3.org/2000/svg"><path fill="#f00" d="m497 270c8.285156 0 15-6.714844 15-15s-6.714844-15-15-15h-45v-135c0-20.054688-13.609375-36.507812-31-42.492188v-17.507812c0-24.8125-20.1875-45-45-45s-45 20.1875-45 45v15h-30v-15c0-24.8125-20.1875-45-45-45s-45 20.1875-45 45v15h-30v-15c0-24.8125-20.1875-45-45-45s-45 20.1875-45 45v17.507812c-17.425781 5.996094-31 22.457032-31 42.492188v75h-30v-15c0-8.285156-6.714844-15-15-15s-15 6.714844-15 15v120c0 8.285156 6.714844 15 15 15s15-6.714844 15-15v-15h30v75c0 24.867188 21.105469 45 46 45h135v15c0 24.8125 20.1875 45 45 45h120c24.859375 0 46-20.089844 46-45v-15h45c8.285156 0 15-6.714844 15-15v-60c0-8.285156-6.714844-15-15-15h-45v-30zm-136-225c0-8.269531 6.730469-15 15-15s15 6.730469 15 15v15h-30zm-120 0c0-8.269531 6.730469-15 15-15s15 6.730469 15 15v15h-30zm-105-15c8.269531 0 15 6.730469 15 15v15h-30v-15c0-8.269531 6.730469-15 15-15zm-30 60h300c8.523438 0 16 7.007812 16 15v15h-332v-15c0-7.992188 7.476562-15 16-15zm-76 150v-30h30v30zm392 165c0 7.992188-7.476562 15-16 15h-120c-8.269531 0-15-6.730469-15-15v-30c0-8.285156-6.714844-15-15-15h-150c-8.523438 0-16-7.007812-16-15v-15h332zm60-75v30h-30v-30zm-60-30h-332v-150h332v90h-46c-8.269531 0-15-6.730469-15-15v-30c0-8.285156-6.714844-15-15-15s-15 6.714844-15 15v30c0 5.257812.914062 10.304688 2.578125 15h-17.578125c-8.269531 0-15-6.730469-15-15v-30c0-8.285156-6.714844-15-15-15s-15 6.714844-15 15v30c0 5.257812.914062 10.304688 2.578125 15h-17.578125c-8.269531 0-15-6.730469-15-15v-30c0-8.285156-6.714844-15-15-15s-15 6.714844-15 15v30c0 5.257812.914062 10.304688 2.578125 15h-17.578125c-8.269531 0-15-6.730469-15-15v-30c0-8.285156-6.714844-15-15-15s-15 6.714844-15 15v30c0 24.8125 20.1875 45 45 45h226zm0 0"/></svg>