<svg xmlns="http://www.w3.org/2000/svg" viewBox="0 0 611 661"><defs><style>.cls-1{fill:#ff13d5;}</style></defs><title>Ресурс 2</title><g id="Слой_2" data-name="Слой 2"><g id="Слой_1-2" data-name="Слой 1"><path class="cls-1" d="M0,3.7,3.7.4Q88.63,4.15,136,4.1q52.44,0,141.62-3.3c22-.5,37.95-.8,47.83-.8q117.45,0,159.3,42.79t41.74,101.37q0,39-20.47,76.67t-60.32,64.38q-40,26.7-110.06,40.19c8.69,12.1,24.27,33,46.94,62.78l65.91,87.38q32.06,43.19,68.71,91.37t47.34,54.38c7.09,4.2,13.28,6.7,18.38,7.7s13.28,1.4,24.36,1.4l3.7,3.7V655.8l-4.19,4.2c-14.89-1.9-32.46-2.8-52.94-2.8q-33,0-72,2.8Q449.82,621,381.1,524.74,301.41,413.17,217.81,317.9l4.6-14.39c16.08.9,28.66,1.4,37.65,1.4q80.29,0,125.83-38.59t45.55-106.87q0-61.33-40.85-92.77T280,35.29q-48.67,0-92,13.5-6.88,10.18-7,174.34V438.37l.5,90.67c.3,35,1.2,57.68,2.8,67.88s3.79,17,6.69,20.49,8.59,6.3,17,8.6,29,4.1,61.72,5.3l3.69,2.8V657.3l-3.69,3.7q-2.25,0-81.7-2.8-33-.9-51.53-.9-14.39,0-132.82,3.7L0,657.2V634l3.7-2.8c28.76-1.2,47.93-2.8,57.62-4.6s16-4.3,19.27-7.2,5.9-9.19,7.89-18.79,3.2-31,3.5-64.18l.5-98.07V223.13l-.9-90.67Q91.13,79.53,89,64.18c-1.39-10.2-3.59-17-6.49-20.49s-8.59-6.2-17-8.4-29-3.9-61.71-5.1L0,27Z"/></g></g></svg>