<svg height="35" viewBox="-34 0 512 512" width="45" xmlns="http://www.w3.org/2000/svg"><path fill="#f00" d="m247.464844 0h-187.730469c-32.976563.0390625-59.6953125 26.757812-59.734375 59.734375v392.53125c.0390625 32.976563 26.757812 59.695313 59.734375 59.734375h290.132813c32.972656-.039062 59.695312-26.757812 59.734374-59.734375v-240.390625c.015626-6.796875-2.683593-13.316406-7.503906-18.109375l-18.5-18.5 18.9375-18.984375c6.664063 6.660156 17.46875 6.660156 24.132813 0l12.066406-12.066406c6.660156-6.667969 6.660156-17.46875 0-24.132813l-72.40625-72.414062c-6.75-6.449219-17.382813-6.449219-24.132813 0l-12.066406 12.066406c-6.664062 6.664063-6.664062 17.464844 0 24.132813l-18.988281 18.933593-12.472656-12.46875v-39.132812c-.03125-28.265625-22.9375-51.1718752-51.203125-51.199219zm34.136718 51.199219v34.132812h-17.066406v-25.597656c0-14.140625-11.464844-25.601563-25.601562-25.601563h-119.46875v-17.066406h128c18.851562 0 34.136718 15.28125 34.136718 34.132813zm-162.136718 34.132812v-34.132812h119.46875c4.710937 0 8.53125 3.820312 8.53125 8.535156v25.597656zm273.070312 126.542969v240.390625c-.03125 23.554687-19.117187 42.640625-42.667968 42.667969h-290.132813c-23.554687-.027344-42.640625-19.113282-42.667969-42.667969v-392.53125c.027344-23.554687 19.113282-42.640625 42.667969-42.667969h42.664063v76.800782c0 4.710937 3.820312 8.53125 8.535156 8.53125h175.667968l18.492188 18.492187 60.414062 60.417969 24.523438 24.523437c1.605469 1.601563 2.503906 3.777344 2.503906 6.042969zm-38.273437-152.140625 72.40625 72.402344-12.058594 12.078125-72.421875-72.414063zm-12.074219 36.207031 48.273438 48.273438-18.929688 18.976562-48.332031-48.332031zm0 0"/><path fill="#f00" d="m314.257812 172.144531c-6.390624-6.414062-15.070312-10.019531-24.125-10.011719h-170.667968c-9.046875-.007812-17.726563 3.59375-24.113282 10-6.417968 6.390626-10.023437 15.078126-10.019531 24.132813v204.800781c.039063 12.109375 6.511719 23.289063 17 29.347656.277344.164063.558594.316407.851563.449219 4.976562 2.796875 10.578125 4.289063 16.28125 4.335938h170.667968c5.71875-.039063 11.332032-1.53125 16.316407-4.335938.292969-.132812.578125-.285156.851562-.449219 10.476563-6.066406 16.933594-17.242187 16.964844-29.347656v-204.800781c.007813-9.046875-3.589844-17.726563-10-24.113281zm-7.058593 24.121094v204.800781c-.015625 3.65625-1.210938 7.210938-3.414063 10.128906l-47.785156-47.785156v-120.945312l50.558594-50.558594c.40625 1.417969.621094 2.886719.640625 4.359375zm-204.800781 204.800781v-204.800781c.023437-1.472656.238281-2.941406.640624-4.359375l50.5625 50.558594v120.9375l-47.789062 47.785156c-2.199219-2.917969-3.394531-6.46875-3.414062-10.121094zm136.535156-42.667968h-68.265625v-110.933594h68.265625zm-73.265625 17.066406h78.265625l42.667968 42.667968h-163.601562zm124.464843-196.265625c1.476563.019531 2.941407.234375 4.359376.640625l-50.558594 50.558594h-78.265625l-50.5625-50.558594c1.417969-.40625 2.886719-.621094 4.359375-.640625zm0 0"/><path fill="#f00" d="m42.667969 59.734375c-4.714844 0-8.535157 3.820313-8.535157 8.53125v17.066406c0 4.714844 3.820313 8.535157 8.535157 8.535157 4.710937 0 8.53125-3.820313 8.53125-8.535157v-17.066406c0-4.710937-3.820313-8.53125-8.53125-8.53125zm0 0"/><path fill="#f00" d="m42.667969 110.933594c-4.714844 0-8.535157 3.820312-8.535157 8.53125v76.800781c0 4.714844 3.820313 8.535156 8.535157 8.535156 4.710937 0 8.53125-3.820312 8.53125-8.535156v-76.800781c0-4.710938-3.820313-8.53125-8.53125-8.53125zm0 0"/></svg>