<!-- Generated by IcoMoon.io -->
<svg version="1.1" xmlns="http://www.w3.org/2000/svg" width="32" height="32" viewBox="0 0 32 32">
<title>uniF102</title>
<path d="M27.439 0c2.515 0 4.561 2.046 4.561 4.561v22.878c0 2.515-2.046 4.561-4.561 4.561h-22.878c-2.515 0-4.561-2.046-4.561-4.561v-22.878c0-2.515 2.046-4.561 4.561-4.561h22.878zM29.415 27.439v-22.878c0-1.089-0.886-1.976-1.976-1.976h-22.878c-1.089 0-1.976 0.886-1.976 1.976v22.878c0 1.089 0.886 1.976 1.976 1.976h22.878c1.089 0 1.976-0.886 1.976-1.976z"></path>
</svg>
