<!-- Generated by IcoMoon.io -->
<svg version="1.1" xmlns="http://www.w3.org/2000/svg" width="32" height="32" viewBox="0 0 32 32">
<title>uniF103</title>
<path d="M17.456 28.486c0.389 0.388 0.603 0.905 0.603 1.455s-0.214 1.067-0.603 1.455c-0.388 0.389-0.905 0.603-1.455 0.603s-1.067-0.214-1.455-0.603l-13.942-13.942c-0.383-0.383-0.603-0.914-0.603-1.455s0.22-1.072 0.603-1.455l13.942-13.941c0.388-0.389 0.905-0.603 1.455-0.603s1.067 0.214 1.456 0.603c0.389 0.389 0.603 0.905 0.603 1.455s-0.214 1.067-0.603 1.455l-12.486 12.486zM31.397 28.486c0.389 0.388 0.603 0.905 0.603 1.455s-0.214 1.067-0.603 1.455c-0.389 0.389-0.906 0.603-1.455 0.603s-1.067-0.214-1.455-0.603l-13.941-13.942c-0.389-0.389-0.603-0.906-0.603-1.455s0.214-1.067 0.603-1.455l13.941-13.941c0.389-0.389 0.905-0.603 1.455-0.603s1.067 0.214 1.456 0.603c0.389 0.389 0.603 0.905 0.603 1.455s-0.214 1.067-0.603 1.455l-12.486 12.486z"></path>
</svg>
