<?xml version="1.0" standalone="no"?>
<!DOCTYPE svg PUBLIC "-//W3C//DTD SVG 1.1//EN" "http://www.w3.org/Graphics/SVG/1.1/DTD/svg11.dtd" >
<svg xmlns="http://www.w3.org/2000/svg" xmlns:xlink="http://www.w3.org/1999/xlink" version="1.1">
<metadata>
Created by FontForge 20161116 at Wed Jan 25 20:56:00 2017
 By Jimmy Warting
Modern and elegant sans serif font.
</metadata>
<defs>
<font id="UniNeueRegular" horiz-adv-x="579" >
  <font-face 
    font-family="Uni Neue Regular"
    font-weight="500"
    font-stretch="normal"
    units-per-em="1000"
    panose-1="0 0 0 0 0 0 0 0 0 0"
    ascent="750"
    descent="-250"
    x-height="517"
    cap-height="715"
    bbox="-202.738 -244 1045 979"
    underline-thickness="50"
    underline-position="-125"
    stemh="73"
    stemv="82"
    unicode-range="U+0020-25CA"
  />
<missing-glyph horiz-adv-x="225" 
 />
    <glyph glyph-name=".notdef" horiz-adv-x="225" 
 />
    <glyph glyph-name="Aacute" unicode="&#xc1;" horiz-adv-x="619" 
d="M85 0h-67c-8 0 -11 5 -9 13l249 693c2 6 6 9 12 9h79c6 0 11 -3 13 -9l248 -693c3 -8 -1 -13 -9 -13h-67c-6 0 -11 3 -13 9l-61 178h-300l-62 -178c-2 -6 -6 -9 -13 -9zM308 620l-122 -354h248l-122 354h-4zM452 925l-121 -133c-4 -5 -9 -7 -14 -7h-52c-9 0 -12 6 -7 14
l105 133c3 5 8 7 13 7h70c9 0 13 -7 6 -14z" />
    <glyph glyph-name="Abreve" unicode="&#x102;" horiz-adv-x="619" 
d="M85 0h-67c-8 0 -11 5 -9 13l249 693c2 6 6 9 12 9h79c6 0 11 -3 13 -9l248 -693c3 -8 -1 -13 -9 -13h-67c-6 0 -11 3 -13 9l-61 178h-300l-62 -178c-2 -6 -6 -9 -13 -9zM308 620l-122 -354h248l-122 354h-4zM473 910c-10 -81 -66 -138 -163 -138s-152 57 -163 137
c-1 7 3 11 10 13l44 11c7 1 11 -1 13 -9c9 -53 40 -84 96 -84s88 31 96 84c2 8 6 10 13 9l44 -11c7 -2 11 -6 10 -12z" />
    <glyph glyph-name="Acircumflex" unicode="&#xc2;" horiz-adv-x="619" 
d="M85 0h-67c-8 0 -11 5 -9 13l249 693c2 6 6 9 12 9h79c6 0 11 -3 13 -9l248 -693c3 -8 -1 -13 -9 -13h-67c-6 0 -11 3 -13 9l-61 178h-300l-62 -178c-2 -6 -6 -9 -13 -9zM308 620l-122 -354h248l-122 354h-4zM212 785h-59c-10 0 -12 7 -6 14l123 133c4 5 9 7 14 7h52
c5 0 9 -2 14 -7l123 -133c6 -7 4 -14 -6 -14h-59c-6 0 -10 2 -14 7l-84 86l-84 -86c-4 -5 -8 -7 -14 -7z" />
    <glyph glyph-name="Adieresis" unicode="&#xc4;" horiz-adv-x="619" 
d="M85 0h-67c-8 0 -11 5 -9 13l249 693c2 6 6 9 12 9h79c6 0 11 -3 13 -9l248 -693c3 -8 -1 -13 -9 -13h-67c-6 0 -11 3 -13 9l-61 178h-300l-62 -178c-2 -6 -6 -9 -13 -9zM308 620l-122 -354h248l-122 354h-4zM257 847c0 -29 -21 -49 -49 -49c-29 0 -49 20 -49 49
s20 50 49 50c28 0 49 -21 49 -50zM461 847c0 -29 -21 -49 -50 -49s-49 20 -49 49s20 50 49 50s50 -21 50 -50z" />
    <glyph glyph-name="Agrave" unicode="&#xc0;" horiz-adv-x="619" 
d="M85 0h-67c-8 0 -11 5 -9 13l249 693c2 6 6 9 12 9h79c6 0 11 -3 13 -9l248 -693c3 -8 -1 -13 -9 -13h-67c-6 0 -11 3 -13 9l-61 178h-300l-62 -178c-2 -6 -6 -9 -13 -9zM308 620l-122 -354h248l-122 354h-4zM279 792l-121 133c-7 7 -3 14 6 14h70c5 0 10 -2 13 -7
l105 -133c5 -8 2 -14 -7 -14h-52c-5 0 -10 2 -14 7z" />
    <glyph glyph-name="Amacron" unicode="&#x100;" horiz-adv-x="619" 
d="M85 0h-67c-8 0 -11 5 -9 13l249 693c2 6 6 9 12 9h79c6 0 11 -3 13 -9l248 -693c3 -8 -1 -13 -9 -13h-67c-6 0 -11 3 -13 9l-61 178h-300l-62 -178c-2 -6 -6 -9 -13 -9zM308 620l-122 -354h248l-122 354h-4zM445 811h-272c-7 0 -11 4 -11 11v45c0 7 4 12 11 12h272
c7 0 11 -5 11 -12v-45c0 -7 -4 -11 -11 -11z" />
    <glyph glyph-name="Aogonek" unicode="&#x104;" horiz-adv-x="619" 
d="M627 -183c-25 -11 -54 -17 -83 -17c-59 0 -96 31 -96 82c0 45 36 91 88 119h-3c-7 3 -12 9 -15 17l-58 170h-300l-62 -179c-2 -6 -6 -9 -13 -9h-67c-8 0 -11 5 -9 13l249 693c2 6 6 9 12 9h79c6 0 11 -3 13 -9l248 -693c3 -8 1 -13 -6 -14c-53 -25 -83 -65 -83 -94
c0 -24 14 -33 40 -33c18 0 34 2 50 8c7 2 12 1 14 -7l9 -42c1 -7 -1 -11 -7 -14zM308 620l-122 -355h248l-122 355h-4z" />
    <glyph glyph-name="Aring" unicode="&#xc5;" horiz-adv-x="619" 
d="M85 0h-67c-8 0 -11 5 -9 13l249 693c2 6 6 9 12 9h79c6 0 11 -3 13 -9l248 -693c3 -8 -1 -13 -9 -13h-67c-6 0 -11 3 -13 9l-61 178h-300l-62 -178c-2 -6 -6 -9 -13 -9zM308 620l-122 -354h248l-122 354h-4zM418 874c0 -65 -45 -104 -107 -104c-64 0 -110 41 -110 104
c0 64 46 105 110 105c62 0 107 -41 107 -105zM252 874c0 -34 23 -55 59 -55c35 0 56 21 56 55c0 35 -21 56 -56 56c-36 0 -59 -21 -59 -56z" />
    <glyph glyph-name="Atilde" unicode="&#xc3;" horiz-adv-x="619" 
d="M85 0h-67c-8 0 -11 5 -9 13l249 693c2 6 6 9 12 9h79c6 0 11 -3 13 -9l248 -693c3 -8 -1 -13 -9 -13h-67c-6 0 -11 3 -13 9l-61 178h-300l-62 -178c-2 -6 -6 -9 -13 -9zM308 620l-122 -354h248l-122 354h-4zM466 881c-11 -32 -42 -73 -85 -73c-24 0 -49 12 -71 24
s-41 24 -61 24c-21 0 -32 -17 -41 -34c-4 -9 -10 -7 -15 -5l-33 19c-8 4 -8 9 -6 15c12 32 41 70 84 70c26 0 50 -12 73 -25c20 -10 43 -23 62 -23c18 0 26 11 38 34c4 7 9 8 15 5l34 -18c7 -4 7 -8 6 -13z" />
    <glyph glyph-name="AE" unicode="&#xc6;" horiz-adv-x="865" 
d="M490 322v-244h313c7 0 11 -4 11 -11v-56c0 -7 -4 -11 -11 -11h-386c-8 0 -12 4 -12 11v177h-220l-90 -180c-2 -5 -7 -8 -13 -8h-69c-8 0 -12 6 -8 14l348 693c2 6 7 8 13 8h425c8 0 12 -4 12 -11v-56c0 -7 -4 -11 -12 -11h-301v-237h280c7 0 11 -4 11 -11v-56
c0 -7 -4 -11 -11 -11h-280zM405 637l-184 -370h184v370z" />
    <glyph glyph-name="B" unicode="B" horiz-adv-x="637" 
d="M558 527c0 -68 -33 -121 -85 -146c74 -27 115 -91 115 -174c0 -130 -90 -207 -246 -207h-241c-8 0 -12 4 -12 11v693c0 7 4 11 12 11h242c143 0 215 -75 215 -188zM174 77h169c98 0 159 41 159 130c0 79 -48 132 -153 132h-175v-262zM472 527c0 68 -44 111 -129 111h-169
v-222h175c73 0 123 36 123 111z" />
    <glyph glyph-name="C" unicode="C" horiz-adv-x="587" 
d="M555 65c-64 -53 -147 -76 -227 -76c-147 0 -263 83 -263 247v242c0 165 117 248 261 248c75 0 151 -24 213 -70c6 -4 6 -9 2 -15l-32 -47c-4 -6 -10 -6 -17 -2c-49 36 -110 54 -167 54c-113 0 -175 -66 -175 -168v-241c0 -102 63 -168 176 -168c65 0 131 21 184 62
c5 5 11 4 15 -3l33 -46c4 -7 4 -12 -3 -17z" />
    <glyph glyph-name="Cacute" unicode="&#x106;" horiz-adv-x="587" 
d="M555 65c-64 -53 -147 -76 -227 -76c-147 0 -263 83 -263 247v242c0 165 117 248 261 248c75 0 151 -24 213 -70c6 -4 6 -9 2 -15l-32 -47c-4 -6 -10 -6 -17 -2c-49 36 -110 54 -167 54c-113 0 -175 -66 -175 -168v-241c0 -102 63 -168 176 -168c65 0 131 21 184 62
c5 5 11 4 15 -3l33 -46c4 -7 4 -12 -3 -17zM465 925l-121 -133c-4 -5 -9 -7 -14 -7h-52c-9 0 -12 6 -7 14l105 133c3 5 8 7 13 7h70c9 0 13 -7 6 -14z" />
    <glyph glyph-name="Ccaron" unicode="&#x10c;" horiz-adv-x="587" 
d="M555 65c-64 -53 -147 -76 -227 -76c-147 0 -263 83 -263 247v242c0 165 117 248 261 248c75 0 151 -24 213 -70c6 -4 6 -9 2 -15l-32 -47c-4 -6 -10 -6 -17 -2c-49 36 -110 54 -167 54c-113 0 -175 -66 -175 -168v-241c0 -102 63 -168 176 -168c65 0 131 21 184 62
c5 5 11 4 15 -3l33 -46c4 -7 4 -12 -3 -17zM166 939h59c6 0 10 -2 14 -7l84 -86l84 86c4 5 8 7 14 7h59c10 0 12 -7 6 -14l-123 -133c-5 -5 -9 -7 -14 -7h-52c-5 0 -10 2 -14 7l-123 133c-6 7 -4 14 6 14z" />
    <glyph glyph-name="Ccedilla" unicode="&#xc7;" horiz-adv-x="587" 
d="M421 -121c0 -56 -48 -86 -118 -86c-20 0 -41 3 -59 9c-7 2 -9 7 -9 13v25c0 8 5 12 13 10c16 -5 32 -7 46 -7c33 0 58 10 59 39c1 23 -18 36 -64 37c-7 0 -11 2 -14 8c-1 2 -1 7 1 11l21 52c-132 10 -232 93 -232 246v242c0 165 117 248 261 248c75 0 151 -24 213 -70
c6 -4 6 -9 2 -15l-32 -47c-4 -6 -10 -6 -17 -2c-49 36 -110 54 -167 54c-113 0 -175 -66 -175 -168v-241c0 -102 63 -169 176 -169c65 0 131 22 184 63c5 5 11 4 15 -3l33 -46c4 -7 4 -12 -3 -17c-59 -49 -133 -72 -206 -76l-16 -40c52 -3 88 -29 88 -70z" />
    <glyph glyph-name="Cdotaccent" unicode="&#x10a;" horiz-adv-x="587" 
d="M555 65c-64 -53 -147 -76 -227 -76c-147 0 -263 83 -263 247v242c0 165 117 248 261 248c75 0 151 -24 213 -70c6 -4 6 -9 2 -15l-32 -47c-4 -6 -10 -6 -17 -2c-49 36 -110 54 -167 54c-113 0 -175 -66 -175 -168v-241c0 -102 63 -168 176 -168c65 0 131 21 184 62
c5 5 11 4 15 -3l33 -46c4 -7 4 -12 -3 -17zM378 852c0 -30 -24 -55 -55 -55c-30 0 -55 25 -55 55c0 31 25 55 55 55c31 0 55 -24 55 -55z" />
    <glyph glyph-name="D" unicode="D" horiz-adv-x="670" 
d="M345 0h-244c-8 0 -12 4 -12 11v693c0 7 4 11 12 11h244c162 0 260 -93 260 -257v-205c0 -162 -98 -253 -260 -253zM175 637v-557h169c111 0 173 58 173 173v205c0 118 -62 179 -173 179h-169z" />
    <glyph glyph-name="Eth" unicode="&#xd0;" horiz-adv-x="679" 
d="M110 715h244c162 0 260 -93 260 -257v-205c0 -162 -98 -253 -260 -253h-244c-8 0 -12 4 -12 11v330h-76c-7 0 -11 4 -11 11v37c0 7 4 11 11 11h76v304c0 7 4 11 12 11zM353 80c111 0 173 58 173 173v205c0 118 -62 179 -173 179h-169v-237h167c7 0 11 -4 11 -11v-37
c0 -7 -4 -11 -11 -11h-167v-261h169z" />
    <glyph glyph-name="Dcaron" unicode="&#x10e;" horiz-adv-x="670" 
d="M345 0h-244c-8 0 -12 4 -12 11v693c0 7 4 11 12 11h244c162 0 260 -93 260 -257v-205c0 -162 -98 -253 -260 -253zM175 637v-557h169c111 0 173 58 173 173v205c0 118 -62 179 -173 179h-169zM173 939h59c6 0 10 -2 14 -7l84 -86l84 86c4 5 8 7 14 7h59c10 0 12 -7 6 -14
l-123 -133c-5 -5 -9 -7 -14 -7h-52c-5 0 -10 2 -14 7l-123 133c-6 7 -4 14 6 14z" />
    <glyph glyph-name="Dcroat" unicode="&#x110;" horiz-adv-x="679" 
d="M110 715h244c162 0 260 -93 260 -257v-205c0 -162 -98 -253 -260 -253h-244c-8 0 -12 4 -12 11v330h-76c-7 0 -11 4 -11 11v37c0 7 4 11 11 11h76v304c0 7 4 11 12 11zM353 80c111 0 173 58 173 173v205c0 118 -62 179 -173 179h-169v-237h167c7 0 11 -4 11 -11v-37
c0 -7 -4 -11 -11 -11h-167v-261h169z" />
    <glyph glyph-name="E" unicode="E" 
d="M175 324v-246h344c7 0 11 -4 11 -11v-56c0 -7 -4 -11 -11 -11h-418c-8 0 -12 4 -12 11v693c0 7 4 11 12 11h404c7 0 11 -4 11 -11v-56c0 -7 -4 -11 -11 -11h-330v-234h307c7 0 11 -4 11 -12v-55c0 -8 -4 -12 -11 -12h-307z" />
    <glyph glyph-name="Eacute" unicode="&#xc9;" 
d="M175 324v-246h344c7 0 11 -4 11 -11v-56c0 -7 -4 -11 -11 -11h-418c-8 0 -12 4 -12 11v693c0 7 4 11 12 11h404c7 0 11 -4 11 -11v-56c0 -7 -4 -11 -11 -11h-330v-234h307c7 0 11 -4 11 -12v-55c0 -8 -4 -12 -11 -12h-307zM436 925l-121 -133c-4 -5 -9 -7 -14 -7h-52
c-9 0 -12 6 -7 14l105 133c3 5 8 7 13 7h70c9 0 13 -7 6 -14z" />
    <glyph glyph-name="Ecaron" unicode="&#x11a;" 
d="M175 324v-246h344c7 0 11 -4 11 -11v-56c0 -7 -4 -11 -11 -11h-418c-8 0 -12 4 -12 11v693c0 7 4 11 12 11h404c7 0 11 -4 11 -11v-56c0 -7 -4 -11 -11 -11h-330v-234h307c7 0 11 -4 11 -12v-55c0 -8 -4 -12 -11 -12h-307zM149 939h59c6 0 10 -2 14 -7l84 -86l84 86
c4 5 8 7 14 7h59c10 0 12 -7 6 -14l-123 -133c-5 -5 -9 -7 -14 -7h-52c-5 0 -10 2 -14 7l-123 133c-6 7 -4 14 6 14z" />
    <glyph glyph-name="Ecircumflex" unicode="&#xca;" 
d="M175 324v-246h344c7 0 11 -4 11 -11v-56c0 -7 -4 -11 -11 -11h-418c-8 0 -12 4 -12 11v693c0 7 4 11 12 11h404c7 0 11 -4 11 -11v-56c0 -7 -4 -11 -11 -11h-330v-234h307c7 0 11 -4 11 -12v-55c0 -8 -4 -12 -11 -12h-307zM215 785h-59c-10 0 -12 7 -6 14l123 133
c4 5 9 7 14 7h52c5 0 9 -2 14 -7l123 -133c6 -7 4 -14 -6 -14h-59c-6 0 -10 2 -14 7l-84 86l-84 -86c-4 -5 -8 -7 -14 -7z" />
    <glyph glyph-name="Edieresis" unicode="&#xcb;" 
d="M175 324v-246h344c7 0 11 -4 11 -11v-56c0 -7 -4 -11 -11 -11h-418c-8 0 -12 4 -12 11v693c0 7 4 11 12 11h404c7 0 11 -4 11 -11v-56c0 -7 -4 -11 -11 -11h-330v-234h307c7 0 11 -4 11 -12v-55c0 -8 -4 -12 -11 -12h-307zM254 847c0 -29 -21 -49 -49 -49
c-29 0 -49 20 -49 49s20 50 49 50c28 0 49 -21 49 -50zM458 847c0 -29 -21 -49 -50 -49s-49 20 -49 49s20 50 49 50s50 -21 50 -50z" />
    <glyph glyph-name="Edotaccent" unicode="&#x116;" 
d="M175 324v-246h344c7 0 11 -4 11 -11v-56c0 -7 -4 -11 -11 -11h-418c-8 0 -12 4 -12 11v693c0 7 4 11 12 11h404c7 0 11 -4 11 -11v-56c0 -7 -4 -11 -11 -11h-330v-234h307c7 0 11 -4 11 -12v-55c0 -8 -4 -12 -11 -12h-307zM361 852c0 -30 -24 -55 -55 -55
c-30 0 -55 25 -55 55c0 31 25 55 55 55c31 0 55 -24 55 -55z" />
    <glyph glyph-name="Egrave" unicode="&#xc8;" 
d="M175 324v-246h344c7 0 11 -4 11 -11v-56c0 -7 -4 -11 -11 -11h-418c-8 0 -12 4 -12 11v693c0 7 4 11 12 11h404c7 0 11 -4 11 -11v-56c0 -7 -4 -11 -11 -11h-330v-234h307c7 0 11 -4 11 -12v-55c0 -8 -4 -12 -11 -12h-307zM293 792l-121 133c-7 7 -3 14 6 14h70
c5 0 10 -2 13 -7l105 -133c5 -8 2 -14 -7 -14h-52c-5 0 -10 2 -14 7z" />
    <glyph glyph-name="Emacron" unicode="&#x112;" 
d="M175 324v-246h344c7 0 11 -4 11 -11v-56c0 -7 -4 -11 -11 -11h-418c-8 0 -12 4 -12 11v693c0 7 4 11 12 11h404c7 0 11 -4 11 -11v-56c0 -7 -4 -11 -11 -11h-330v-234h307c7 0 11 -4 11 -12v-55c0 -8 -4 -12 -11 -12h-307zM441 811h-272c-7 0 -11 4 -11 11v45
c0 7 4 12 11 12h272c7 0 11 -5 11 -12v-45c0 -7 -4 -11 -11 -11z" />
    <glyph glyph-name="Eogonek" unicode="&#x118;" horiz-adv-x="578" 
d="M484 -128c18 0 32 2 48 8c7 2 12 1 14 -7l9 -42c2 -7 -1 -11 -7 -14c-23 -10 -54 -17 -82 -17c-60 0 -96 31 -96 82c0 45 35 90 88 118h-357c-8 0 -12 4 -12 11v693c0 7 4 11 12 11h403c7 0 11 -4 11 -11v-56c0 -7 -4 -11 -11 -11h-330v-235h307c7 0 12 -4 12 -11v-56
c0 -7 -5 -11 -12 -11h-307v-246h344c8 0 12 -4 12 -11v-57c0 -7 -3 -11 -9 -14c-42 -22 -79 -56 -79 -92c0 -23 15 -32 42 -32z" />
    <glyph glyph-name="F" unicode="F" horiz-adv-x="559" 
d="M528 704v-56c0 -7 -5 -11 -12 -11h-342v-252h304c7 0 11 -4 11 -11v-56c0 -7 -4 -11 -11 -11h-304v-296c0 -7 -4 -11 -11 -11h-62c-8 0 -12 4 -12 11v693c0 7 4 11 12 11h415c7 0 12 -4 12 -11z" />
    <glyph glyph-name="G" unicode="G" horiz-adv-x="646" 
d="M582 90c-59 -61 -145 -101 -249 -101c-147 0 -268 84 -268 248v242c0 164 117 247 261 247c84 0 170 -25 237 -71c7 -4 7 -11 3 -16l-34 -47c-4 -6 -9 -6 -15 -3c-56 37 -122 57 -191 57c-106 0 -176 -60 -176 -169v-240c0 -109 76 -167 183 -167c69 0 129 22 169 56v186
h-164c-7 0 -11 4 -11 11v56c0 7 4 11 11 11h237c7 0 11 -4 11 -11v-276c0 -6 -1 -10 -4 -13z" />
    <glyph glyph-name="Gbreve" unicode="&#x11e;" horiz-adv-x="646" 
d="M582 90c-59 -61 -145 -101 -249 -101c-147 0 -268 84 -268 248v242c0 164 117 247 261 247c84 0 170 -25 237 -71c7 -4 7 -11 3 -16l-34 -47c-4 -6 -9 -6 -15 -3c-56 37 -122 57 -191 57c-106 0 -176 -60 -176 -169v-240c0 -109 76 -167 183 -167c69 0 129 22 169 56v186
h-164c-7 0 -11 4 -11 11v56c0 7 4 11 11 11h237c7 0 11 -4 11 -11v-276c0 -6 -1 -10 -4 -13zM489 910c-10 -81 -66 -138 -163 -138s-152 57 -163 137c-1 7 3 11 10 13l44 11c7 1 11 -1 13 -9c9 -53 40 -84 96 -84s88 31 96 84c2 8 6 10 13 9l44 -11c7 -2 11 -6 10 -12z" />
    <glyph glyph-name="uni0122" unicode="&#x122;" horiz-adv-x="646" 
d="M582 90c-59 -61 -145 -101 -249 -101c-147 0 -268 84 -268 248v242c0 164 117 247 261 247c84 0 170 -25 237 -71c7 -4 7 -11 3 -16l-34 -47c-4 -6 -9 -6 -15 -3c-56 37 -122 57 -191 57c-106 0 -176 -60 -176 -169v-240c0 -109 76 -167 183 -167c69 0 129 22 169 56v186
h-164c-7 0 -11 4 -11 11v56c0 7 4 11 11 11h237c7 0 11 -4 11 -11v-276c0 -6 -1 -10 -4 -13zM298 -244h-38c-8 0 -13 4 -11 12l37 146c2 7 6 10 13 10h54c8 0 12 -5 10 -13l-52 -146c-2 -6 -6 -9 -13 -9z" />
    <glyph glyph-name="Gdotaccent" unicode="&#x120;" horiz-adv-x="646" 
d="M582 90c-59 -61 -145 -101 -249 -101c-147 0 -268 84 -268 248v242c0 164 117 247 261 247c84 0 170 -25 237 -71c7 -4 7 -11 3 -16l-34 -47c-4 -6 -9 -6 -15 -3c-56 37 -122 57 -191 57c-106 0 -176 -60 -176 -169v-240c0 -109 76 -167 183 -167c69 0 129 22 169 56v186
h-164c-7 0 -11 4 -11 11v56c0 7 4 11 11 11h237c7 0 11 -4 11 -11v-276c0 -6 -1 -10 -4 -13zM381 852c0 -30 -24 -55 -55 -55c-30 0 -55 25 -55 55c0 31 25 55 55 55c31 0 55 -24 55 -55z" />
    <glyph glyph-name="H" unicode="H" horiz-adv-x="682" 
d="M508 402v302c0 7 4 11 12 11h62c7 0 11 -4 11 -11v-693c0 -7 -4 -11 -11 -11h-62c-8 0 -12 4 -12 11v313h-334v-313c0 -7 -4 -11 -11 -11h-62c-8 0 -12 4 -12 11v693c0 7 4 11 12 11h62c7 0 11 -4 11 -11v-302h334z" />
    <glyph glyph-name="Hbar" unicode="&#x126;" horiz-adv-x="692" 
d="M598 614h59c8 0 12 -5 12 -12v-36c0 -8 -4 -12 -12 -12h-59v-543c0 -7 -4 -11 -11 -11h-63c-7 0 -11 4 -11 11v313h-334v-313c0 -7 -4 -11 -11 -11h-62c-8 0 -12 4 -12 11v543h-59c-7 0 -11 4 -11 12v36c0 7 4 12 11 12h59v90c0 7 4 11 12 11h62c7 0 11 -4 11 -11v-90
h334v90c0 7 4 11 11 11h63c7 0 11 -4 11 -11v-90zM179 401h334v153h-334v-153z" />
    <glyph glyph-name="I" unicode="I" horiz-adv-x="263" 
d="M174 704v-693c0 -7 -4 -11 -11 -11h-62c-8 0 -12 4 -12 11v693c0 7 4 11 12 11h62c7 0 11 -4 11 -11z" />
    <glyph glyph-name="IJ" unicode="&#x132;" horiz-adv-x="776" 
d="M174 704v-693c0 -7 -4 -11 -11 -11h-62c-8 0 -12 4 -12 11v693c0 7 4 11 12 11h62c7 0 11 -4 11 -11zM692 228c0 -155 -87 -239 -209 -239c-81 0 -139 28 -197 78c-6 4 -6 10 -2 16l28 46c4 7 10 7 16 2c47 -37 93 -61 155 -61c77 0 124 48 124 159v475c0 7 4 11 12 11
h62c7 0 11 -4 11 -11v-476z" />
    <glyph glyph-name="Iacute" unicode="&#xcd;" horiz-adv-x="263" 
d="M173 704v-693c0 -7 -4 -11 -11 -11h-62c-8 0 -12 4 -12 11v693c0 7 4 11 12 11h62c7 0 11 -4 11 -11zM273 925l-121 -133c-4 -5 -9 -7 -14 -7h-52c-9 0 -12 6 -7 14l105 133c3 5 8 7 13 7h70c9 0 13 -7 6 -14z" />
    <glyph glyph-name="Icircumflex" unicode="&#xce;" horiz-adv-x="263" 
d="M54 785h-54c-9 0 -13 6 -7 14l99 132c3 5 8 8 14 8h47c6 0 11 -3 14 -8l102 -132c6 -8 2 -14 -7 -14h-54c-5 0 -10 2 -14 7l-65 86l-62 -86c-3 -5 -8 -7 -13 -7zM174 704v-693c0 -7 -4 -11 -11 -11h-62c-8 0 -12 4 -12 11v693c0 7 4 11 12 11h62c7 0 11 -4 11 -11z" />
    <glyph glyph-name="Idieresis" unicode="&#xcf;" horiz-adv-x="263" 
d="M162 0h-62c-7 0 -11 4 -11 11v693c0 7 4 11 11 11h62c8 0 12 -4 12 -11v-693c0 -7 -4 -11 -12 -11zM92 857c0 -29 -21 -49 -49 -49s-49 20 -49 49s21 50 49 50s49 -21 49 -50zM269 857c0 -29 -20 -49 -50 -49c-29 0 -49 20 -49 49s20 50 49 50c30 0 50 -21 50 -50z" />
    <glyph glyph-name="Idotaccent" unicode="&#x130;" horiz-adv-x="263" 
d="M174 704v-693c0 -7 -4 -11 -11 -11h-62c-8 0 -12 4 -12 11v693c0 7 4 11 12 11h62c7 0 11 -4 11 -11zM187 852c0 -30 -24 -55 -55 -55c-30 0 -55 25 -55 55c0 31 25 55 55 55c31 0 55 -24 55 -55z" />
    <glyph glyph-name="Igrave" unicode="&#xcc;" horiz-adv-x="263" 
d="M174 704v-693c0 -7 -4 -11 -11 -11h-62c-8 0 -12 4 -12 11v693c0 7 4 11 12 11h62c7 0 11 -4 11 -11zM103 792l-121 133c-7 7 -3 14 6 14h70c5 0 10 -2 13 -7l105 -133c5 -8 2 -14 -7 -14h-52c-5 0 -10 2 -14 7z" />
    <glyph glyph-name="Imacron" unicode="&#x12a;" horiz-adv-x="264" 
d="M4 838v44c0 7 4 11 11 11h234c7 0 11 -4 11 -11v-44c0 -7 -4 -11 -11 -11h-234c-7 0 -11 4 -11 11zM175 704v-693c0 -7 -5 -11 -12 -11h-62c-7 0 -12 4 -12 11v693c0 7 5 11 12 11h62c7 0 12 -4 12 -11z" />
    <glyph glyph-name="Iogonek" unicode="&#x12e;" horiz-adv-x="263" 
d="M151 -128c16 0 32 2 47 8c7 2 12 0 14 -8l9 -42c2 -7 -1 -11 -7 -14c-24 -10 -52 -16 -80 -16c-60 0 -97 31 -97 84c0 43 23 86 60 117c-5 1 -8 5 -8 13v690c0 7 4 11 11 11h63c7 0 11 -4 11 -11v-693c0 -7 -3 -11 -9 -12c-35 -25 -56 -64 -56 -92c0 -24 16 -35 42 -35z
" />
    <glyph glyph-name="J" unicode="J" horiz-adv-x="506" 
d="M421 228c0 -155 -87 -239 -209 -239c-81 0 -139 28 -197 78c-6 4 -6 10 -2 16l28 46c4 7 10 7 16 2c47 -37 93 -61 155 -61c77 0 124 48 124 159v475c0 7 4 11 12 11h62c7 0 11 -4 11 -11v-476z" />
    <glyph glyph-name="K" unicode="K" horiz-adv-x="614" 
d="M163 0h-62c-8 0 -12 4 -12 11v693c0 7 4 11 12 11h62c7 0 11 -4 11 -11v-331l309 335c5 5 9 7 15 7h80c10 0 14 -7 7 -14l-287 -308l307 -379c6 -8 2 -14 -7 -14h-81c-6 0 -11 2 -14 7l-262 326l-67 -69v-253c0 -7 -4 -11 -11 -11z" />
    <glyph glyph-name="uni0136" unicode="&#x136;" horiz-adv-x="614" 
d="M163 0h-62c-8 0 -12 4 -12 11v693c0 7 4 11 12 11h62c7 0 11 -4 11 -11v-331l309 335c5 5 9 7 15 7h80c10 0 14 -7 7 -14l-287 -308l307 -379c6 -8 2 -14 -7 -14h-81c-6 0 -11 2 -14 7l-262 326l-67 -69v-253c0 -7 -4 -11 -11 -11zM289 -244h-38c-8 0 -13 4 -11 12
l37 146c2 7 6 10 13 10h54c8 0 12 -5 10 -13l-52 -146c-2 -6 -6 -9 -13 -9z" />
    <glyph glyph-name="L" unicode="L" horiz-adv-x="512" 
d="M489 0h-388c-8 0 -12 4 -12 11v693c0 7 4 11 12 11h63c7 0 11 -4 11 -11v-626h314c7 0 11 -4 11 -11v-56c0 -7 -4 -11 -11 -11z" />
    <glyph glyph-name="Lacute" unicode="&#x139;" horiz-adv-x="512" 
d="M488 0h-388c-8 0 -12 4 -12 11v693c0 7 4 11 12 11h63c7 0 11 -4 11 -11v-626h314c7 0 11 -4 11 -11v-56c0 -7 -4 -11 -11 -11zM282 925l-121 -133c-4 -5 -9 -7 -14 -7h-52c-9 0 -12 6 -7 14l105 133c3 5 8 7 13 7h70c9 0 13 -7 6 -14z" />
    <glyph glyph-name="Lcaron" unicode="&#x13d;" horiz-adv-x="512" 
d="M343 538h-45c-8 0 -12 6 -10 13l41 154c1 7 5 10 12 10h55c8 0 12 -6 10 -13l-51 -155c-1 -5 -6 -9 -12 -9zM489 0h-388c-8 0 -12 4 -12 11v693c0 7 4 11 12 11h63c7 0 11 -4 11 -11v-626h314c7 0 11 -4 11 -11v-56c0 -7 -4 -11 -11 -11z" />
    <glyph glyph-name="uni013B" unicode="&#x13b;" horiz-adv-x="512" 
d="M489 0h-388c-8 0 -12 4 -12 11v693c0 7 4 11 12 11h63c7 0 11 -4 11 -11v-626h314c7 0 11 -4 11 -11v-56c0 -7 -4 -11 -11 -11zM237 -244h-38c-8 0 -13 4 -11 12l37 146c2 7 6 10 13 10h54c8 0 12 -5 10 -13l-52 -146c-2 -6 -6 -9 -13 -9z" />
    <glyph glyph-name="Ldot" unicode="&#x13f;" horiz-adv-x="512" 
d="M489 0h-388c-8 0 -12 4 -12 11v693c0 7 4 11 12 11h63c7 0 11 -4 11 -11v-626h314c7 0 11 -4 11 -11v-56c0 -7 -4 -11 -11 -11zM393 351c0 -32 -23 -55 -55 -55c-33 0 -55 23 -55 55c0 33 22 56 55 56c32 0 55 -23 55 -56z" />
    <glyph glyph-name="Lslash" unicode="&#x141;" horiz-adv-x="530" 
d="M193 335v-257h314c7 0 11 -4 11 -11v-56c0 -7 -4 -11 -11 -11h-388c-7 0 -11 4 -11 11v269l-82 -53c-8 -5 -14 -2 -14 7v54c0 6 2 10 7 14l89 57v345c0 7 4 11 11 11h62c8 0 12 -4 12 -11v-290l135 88c8 5 14 2 14 -7v-54c0 -6 -2 -10 -7 -14z" />
    <glyph glyph-name="M" unicode="M" horiz-adv-x="853" 
d="M163 0h-62c-8 0 -12 4 -12 11v693c0 7 4 11 12 11h76c5 0 10 -2 13 -8l155 -282c25 -46 62 -120 80 -158h3c18 38 55 112 80 157l156 283c2 6 7 8 13 8h76c7 0 11 -4 11 -11v-693c0 -7 -4 -11 -11 -11h-63c-7 0 -11 4 -11 11v302c0 84 3 186 6 271l-2 1
c-27 -54 -58 -113 -91 -176l-125 -232c-3 -5 -8 -8 -14 -8h-53c-6 0 -11 3 -13 8l-125 232c-34 63 -65 122 -91 176l-2 -1c2 -85 5 -187 5 -271v-302c0 -7 -4 -11 -11 -11z" />
    <glyph glyph-name="N" unicode="N" horiz-adv-x="704" 
d="M162 0h-61c-8 0 -12 4 -12 11v693c0 7 4 11 12 11h70c5 0 11 -3 14 -8l265 -432c27 -46 59 -99 84 -146l3 1c-4 83 -6 187 -6 271v303c0 7 4 11 11 11h62c7 0 11 -4 11 -11v-693c0 -7 -4 -11 -11 -11h-70c-6 0 -11 2 -14 7l-263 417c-29 47 -62 104 -87 152l-2 -1
c3 -79 6 -182 6 -261v-303c0 -7 -5 -11 -12 -11z" />
    <glyph glyph-name="Nacute" unicode="&#x143;" horiz-adv-x="704" 
d="M162 0h-61c-8 0 -12 4 -12 11v693c0 7 4 11 12 11h70c5 0 11 -3 14 -8l265 -432c27 -46 59 -99 84 -146l3 1c-4 83 -6 187 -6 271v303c0 7 4 11 11 11h62c7 0 11 -4 11 -11v-693c0 -7 -4 -11 -11 -11h-70c-6 0 -11 2 -14 7l-263 417c-29 47 -62 104 -87 152l-2 -1
c3 -79 6 -182 6 -261v-303c0 -7 -5 -11 -12 -11zM490 925l-121 -133c-4 -5 -9 -7 -14 -7h-52c-9 0 -12 6 -7 14l105 133c3 5 8 7 13 7h70c9 0 13 -7 6 -14z" />
    <glyph glyph-name="Ncaron" unicode="&#x147;" horiz-adv-x="704" 
d="M162 0h-61c-8 0 -12 4 -12 11v693c0 7 4 11 12 11h70c5 0 11 -3 14 -8l265 -432c27 -46 59 -99 84 -146l3 1c-4 83 -6 187 -6 271v303c0 7 4 11 11 11h62c7 0 11 -4 11 -11v-693c0 -7 -4 -11 -11 -11h-70c-6 0 -11 2 -14 7l-263 417c-29 47 -62 104 -87 152l-2 -1
c3 -79 6 -182 6 -261v-303c0 -7 -5 -11 -12 -11zM196 939h59c6 0 10 -2 14 -7l84 -86l84 86c4 5 8 7 14 7h59c10 0 12 -7 6 -14l-123 -133c-5 -5 -9 -7 -14 -7h-52c-5 0 -10 2 -14 7l-123 133c-6 7 -4 14 6 14z" />
    <glyph glyph-name="uni0145" unicode="&#x145;" horiz-adv-x="704" 
d="M162 0h-61c-8 0 -12 4 -12 11v693c0 7 4 11 12 11h70c5 0 11 -3 14 -8l265 -432c27 -46 59 -99 84 -146l3 1c-4 83 -6 187 -6 271v303c0 7 4 11 11 11h62c7 0 11 -4 11 -11v-693c0 -7 -4 -11 -11 -11h-70c-6 0 -11 2 -14 7l-263 417c-29 47 -62 104 -87 152l-2 -1
c3 -79 6 -182 6 -261v-303c0 -7 -5 -11 -12 -11zM331 -244h-38c-8 0 -13 4 -11 12l37 146c2 7 6 10 13 10h54c8 0 12 -5 10 -13l-52 -146c-2 -6 -6 -9 -13 -9z" />
    <glyph glyph-name="Eng" unicode="&#x14a;" horiz-adv-x="704" 
d="M531 371v333c0 7 4 11 11 11h62c7 0 11 -4 11 -11v-710c0 -139 -48 -195 -149 -195c-14 0 -30 1 -44 3c-8 1 -11 6 -11 12v53c0 7 4 11 12 11c13 -1 27 -2 34 -2c55 0 75 36 76 117l-268 420c-32 50 -67 111 -95 163l-2 -2c3 -71 6 -156 6 -227v-336c0 -7 -5 -11 -12 -11
h-61c-8 0 -12 4 -12 11v693c0 7 4 11 12 11h70c5 0 11 -3 14 -8l253 -415c32 -52 67 -110 96 -163l3 2c-4 75 -6 165 -6 240z" />
    <glyph glyph-name="Ntilde" unicode="&#xd1;" horiz-adv-x="704" 
d="M162 0h-61c-8 0 -12 4 -12 11v693c0 7 4 11 12 11h70c5 0 11 -3 14 -8l265 -432c27 -46 59 -99 84 -146l3 1c-4 83 -6 187 -6 271v303c0 7 4 11 11 11h62c7 0 11 -4 11 -11v-693c0 -7 -4 -11 -11 -11h-70c-6 0 -11 2 -14 7l-263 417c-29 47 -62 104 -87 152l-2 -1
c3 -79 6 -182 6 -261v-303c0 -7 -5 -11 -12 -11zM509 881c-11 -32 -42 -73 -85 -73c-24 0 -49 12 -71 24s-41 24 -61 24c-21 0 -32 -17 -41 -34c-4 -9 -10 -7 -15 -5l-33 19c-8 4 -8 9 -6 15c12 32 41 70 84 70c26 0 50 -12 73 -25c20 -10 43 -23 62 -23c18 0 26 11 38 34
c4 7 9 8 15 5l34 -18c7 -4 7 -8 6 -13z" />
    <glyph glyph-name="O" unicode="O" horiz-adv-x="674" 
d="M610 251c0 -161 -104 -262 -273 -262s-273 101 -273 262v211c0 164 104 264 273 264s273 -100 273 -264v-211zM150 251c0 -113 68 -181 187 -181s186 68 186 181v211c0 117 -67 185 -186 185s-187 -68 -187 -185v-211z" />
    <glyph glyph-name="Oacute" unicode="&#xd3;" horiz-adv-x="674" 
d="M610 251c0 -161 -104 -262 -273 -262s-273 101 -273 262v211c0 164 104 264 273 264s273 -100 273 -264v-211zM150 251c0 -113 68 -181 187 -181s186 68 186 181v211c0 117 -67 185 -186 185s-187 -68 -187 -185v-211zM466 925l-121 -133c-4 -5 -9 -7 -14 -7h-52
c-9 0 -12 6 -7 14l105 133c3 5 8 7 13 7h70c9 0 13 -7 6 -14z" />
    <glyph glyph-name="Ocircumflex" unicode="&#xd4;" horiz-adv-x="674" 
d="M610 251c0 -161 -104 -262 -273 -262s-273 101 -273 262v211c0 164 104 264 273 264s273 -100 273 -264v-211zM150 251c0 -113 68 -181 187 -181s186 68 186 181v211c0 117 -67 185 -186 185s-187 -68 -187 -185v-211zM239 785h-59c-10 0 -12 7 -6 14l123 133
c4 5 9 7 14 7h52c5 0 9 -2 14 -7l123 -133c6 -7 4 -14 -6 -14h-59c-6 0 -10 2 -14 7l-84 86l-84 -86c-4 -5 -8 -7 -14 -7z" />
    <glyph glyph-name="Odieresis" unicode="&#xd6;" horiz-adv-x="674" 
d="M610 251c0 -161 -104 -262 -273 -262s-273 101 -273 262v211c0 164 104 264 273 264s273 -100 273 -264v-211zM150 251c0 -113 68 -181 187 -181s186 68 186 181v211c0 117 -67 185 -186 185s-187 -68 -187 -185v-211zM284 847c0 -29 -21 -49 -49 -49
c-29 0 -49 20 -49 49s20 50 49 50c28 0 49 -21 49 -50zM488 847c0 -29 -21 -49 -50 -49s-49 20 -49 49s20 50 49 50s50 -21 50 -50z" />
    <glyph glyph-name="Ograve" unicode="&#xd2;" horiz-adv-x="674" 
d="M610 251c0 -161 -104 -262 -273 -262s-273 101 -273 262v211c0 164 104 264 273 264s273 -100 273 -264v-211zM150 251c0 -113 68 -181 187 -181s186 68 186 181v211c0 117 -67 185 -186 185s-187 -68 -187 -185v-211zM320 792l-121 133c-7 7 -3 14 6 14h70
c5 0 10 -2 13 -7l105 -133c5 -8 2 -14 -7 -14h-52c-5 0 -10 2 -14 7z" />
    <glyph glyph-name="Ohungarumlaut" unicode="&#x150;" horiz-adv-x="674" 
d="M610 251c0 -161 -104 -262 -273 -262s-273 101 -273 262v211c0 164 104 264 273 264s273 -100 273 -264v-211zM150 251c0 -113 68 -181 187 -181s186 68 186 181v211c0 117 -67 185 -186 185s-187 -68 -187 -185v-211zM251 785h-53c-9 0 -12 6 -7 14l102 132
c3 5 9 8 14 8h67c10 0 13 -7 7 -14l-116 -133c-4 -5 -8 -7 -14 -7zM434 785h-52c-10 0 -12 7 -7 14l107 133c3 4 8 7 14 7h68c9 0 13 -7 6 -14l-122 -134c-4 -5 -9 -6 -14 -6z" />
    <glyph glyph-name="Omacron" unicode="&#x14c;" horiz-adv-x="674" 
d="M610 251c0 -161 -104 -262 -273 -262s-273 101 -273 262v211c0 164 104 264 273 264s273 -100 273 -264v-211zM150 251c0 -113 68 -181 187 -181s186 68 186 181v211c0 117 -67 185 -186 185s-187 -68 -187 -185v-211zM472 811h-272c-7 0 -11 4 -11 11v45c0 7 4 12 11 12
h272c7 0 11 -5 11 -12v-45c0 -7 -4 -11 -11 -11z" />
    <glyph glyph-name="Oslash" unicode="&#xd8;" horiz-adv-x="688" 
d="M161 -54h-50c-9 0 -12 6 -8 14l47 90c-56 46 -86 114 -86 200v212c0 163 106 264 280 264c56 0 104 -10 144 -29l31 59c3 6 8 8 13 8h50c9 0 13 -6 8 -14l-47 -89c53 -46 81 -115 81 -199v-212c0 -160 -106 -261 -280 -261c-53 0 -98 10 -137 27l-33 -62
c-2 -5 -8 -8 -13 -8zM153 250c0 -48 14 -88 40 -118l256 490c-29 15 -64 23 -105 23c-122 0 -191 -67 -191 -183v-212zM246 91c27 -13 60 -20 98 -20c122 0 191 67 191 179v212c0 46 -12 85 -36 114z" />
    <glyph glyph-name="Otilde" unicode="&#xd5;" horiz-adv-x="674" 
d="M610 251c0 -161 -104 -262 -273 -262s-273 101 -273 262v211c0 164 104 264 273 264s273 -100 273 -264v-211zM150 251c0 -113 68 -181 187 -181s186 68 186 181v211c0 117 -67 185 -186 185s-187 -68 -187 -185v-211zM493 881c-11 -32 -42 -73 -85 -73
c-24 0 -49 12 -71 24s-41 24 -61 24c-21 0 -32 -17 -41 -34c-4 -9 -10 -7 -15 -5l-33 19c-8 4 -8 9 -6 15c12 32 41 70 84 70c26 0 50 -12 73 -25c20 -10 43 -23 62 -23c18 0 26 11 38 34c4 7 9 8 15 5l34 -18c7 -4 7 -8 6 -13z" />
    <glyph glyph-name="OE" unicode="&#x152;" horiz-adv-x="979" 
d="M516 0c-8 0 -12 4 -12 11v52c-43 -48 -107 -74 -174 -74c-142 0 -266 84 -266 260v217c0 177 124 260 266 260c67 0 131 -27 174 -76v54c0 7 4 11 12 11h388c7 0 11 -4 11 -11v-58c0 -7 -4 -12 -11 -12h-313v-233h290c8 0 12 -4 12 -11v-58c0 -7 -4 -11 -12 -11h-290
v-240h327c8 0 12 -5 12 -12v-58c0 -7 -4 -11 -12 -11h-402zM152 249c0 -124 80 -182 178 -182c95 0 173 58 173 179v223c0 125 -78 179 -173 179c-98 0 -178 -54 -178 -182v-217z" />
    <glyph glyph-name="P" unicode="P" horiz-adv-x="625" 
d="M100 715h241c158 0 248 -88 248 -234c0 -148 -91 -235 -248 -235h-167v-235c0 -7 -4 -11 -11 -11h-63c-7 0 -11 4 -11 11v693c0 7 4 11 11 11zM174 325h158c115 0 171 52 171 156c0 103 -56 155 -171 155h-158v-311z" />
    <glyph glyph-name="Thorn" unicode="&#xde;" horiz-adv-x="642" 
d="M165 0h-64c-8 0 -12 4 -12 11v693c0 7 4 11 12 11h64c7 0 11 -4 11 -11v-99h166c157 0 251 -87 251 -232c0 -147 -94 -233 -251 -233h-166v-129c0 -7 -4 -11 -11 -11zM176 524v-303h164c114 0 164 54 164 152c0 100 -58 151 -164 151h-164z" />
    <glyph glyph-name="Q" unicode="Q" horiz-adv-x="675" 
d="M613 -2l-34 -34c-6 -6 -12 -6 -17 0l-64 67c-43 -26 -97 -42 -161 -42c-170 0 -273 103 -273 262v211c0 163 103 264 273 264s273 -101 273 -264v-211c0 -69 -20 -128 -58 -172l61 -65c5 -6 6 -11 0 -16zM150 251c0 -112 68 -182 187 -182c39 0 73 10 101 25l-91 95
c-5 6 -5 11 0 16l34 34c5 5 12 6 17 0l93 -97c20 29 32 66 32 109v211c0 116 -67 185 -186 185s-187 -69 -187 -185v-211z" />
    <glyph glyph-name="R" unicode="R" horiz-adv-x="631" 
d="M586 0h-78c-6 0 -11 2 -14 7l-199 272h-121v-268c0 -7 -4 -11 -11 -11h-62c-8 0 -12 4 -12 11v693c0 7 4 11 12 11h225c157 0 252 -81 252 -219c0 -114 -70 -190 -188 -210l203 -272c6 -8 2 -14 -7 -14zM327 637h-153v-281h153c108 0 164 46 164 140s-56 141 -164 141z
" />
    <glyph glyph-name="Racute" unicode="&#x154;" horiz-adv-x="631" 
d="M586 0h-78c-6 0 -11 2 -14 7l-199 272h-121v-268c0 -7 -4 -11 -11 -11h-62c-8 0 -12 4 -12 11v693c0 7 4 11 12 11h225c157 0 252 -81 252 -219c0 -114 -70 -190 -188 -210l203 -272c6 -8 2 -14 -7 -14zM327 637h-153v-281h153c108 0 164 46 164 140s-56 141 -164 141z
M450 925l-121 -133c-4 -5 -9 -7 -14 -7h-52c-9 0 -12 6 -7 14l105 133c3 5 8 7 13 7h70c9 0 13 -7 6 -14z" />
    <glyph glyph-name="Rcaron" unicode="&#x158;" horiz-adv-x="631" 
d="M586 0h-78c-6 0 -11 2 -14 7l-199 272h-121v-268c0 -7 -4 -11 -11 -11h-62c-8 0 -12 4 -12 11v693c0 7 4 11 12 11h225c157 0 252 -81 252 -219c0 -114 -70 -190 -188 -210l203 -272c6 -8 2 -14 -7 -14zM327 637h-153v-281h153c108 0 164 46 164 140s-56 141 -164 141z
M151 939h59c6 0 10 -2 14 -7l84 -86l84 86c4 5 8 7 14 7h59c10 0 12 -7 6 -14l-123 -133c-5 -5 -9 -7 -14 -7h-52c-5 0 -10 2 -14 7l-123 133c-6 7 -4 14 6 14z" />
    <glyph glyph-name="uni0156" unicode="&#x156;" horiz-adv-x="631" 
d="M586 0h-78c-6 0 -11 2 -14 7l-199 272h-121v-268c0 -7 -4 -11 -11 -11h-62c-8 0 -12 4 -12 11v693c0 7 4 11 12 11h225c157 0 252 -81 252 -219c0 -114 -70 -190 -188 -210l203 -272c6 -8 2 -14 -7 -14zM327 637h-153v-281h153c108 0 164 46 164 140s-56 141 -164 141z
M295 -244h-38c-8 0 -13 4 -11 12l37 146c2 7 6 10 13 10h54c8 0 12 -5 10 -13l-52 -146c-2 -6 -6 -9 -13 -9z" />
    <glyph glyph-name="S" unicode="S" horiz-adv-x="606" 
d="M564 194c0 -143 -121 -205 -262 -205c-99 0 -171 31 -250 95c-6 5 -6 10 -2 16l34 47c4 6 10 7 15 3c69 -52 131 -79 206 -80c91 0 173 38 173 122c0 83 -73 109 -187 134c-121 27 -239 78 -239 211c0 132 118 189 255 189c89 0 157 -25 233 -80c7 -4 7 -10 3 -15
l-33 -47c-4 -6 -10 -6 -16 -2c-61 42 -125 63 -194 65c-95 0 -162 -39 -162 -112c0 -76 70 -103 175 -127c133 -30 251 -72 251 -214z" />
    <glyph glyph-name="Sacute" unicode="&#x15a;" horiz-adv-x="606" 
d="M564 194c0 -143 -121 -205 -262 -205c-99 0 -171 31 -250 95c-6 5 -6 10 -2 16l34 47c4 6 10 7 15 3c69 -52 131 -79 206 -80c91 0 173 38 173 122c0 83 -73 109 -187 134c-121 27 -239 78 -239 211c0 132 118 189 255 189c89 0 157 -25 233 -80c7 -4 7 -10 3 -15
l-33 -47c-4 -6 -10 -6 -16 -2c-61 42 -125 63 -194 65c-95 0 -162 -39 -162 -112c0 -76 70 -103 175 -127c133 -30 251 -72 251 -214zM437 925l-121 -133c-4 -5 -9 -7 -14 -7h-52c-9 0 -12 6 -7 14l105 133c3 5 8 7 13 7h70c9 0 13 -7 6 -14z" />
    <glyph glyph-name="Scaron" unicode="&#x160;" horiz-adv-x="606" 
d="M564 194c0 -143 -121 -205 -262 -205c-99 0 -171 31 -250 95c-6 5 -6 10 -2 16l34 47c4 6 10 7 15 3c69 -52 131 -79 206 -80c91 0 173 38 173 122c0 83 -73 109 -187 134c-121 27 -239 78 -239 211c0 132 118 189 255 189c89 0 157 -25 233 -80c7 -4 7 -10 3 -15
l-33 -47c-4 -6 -10 -6 -16 -2c-61 42 -125 63 -194 65c-95 0 -162 -39 -162 -112c0 -76 70 -103 175 -127c133 -30 251 -72 251 -214zM145 939h59c6 0 10 -2 14 -7l84 -86l84 86c4 5 8 7 14 7h59c10 0 12 -7 6 -14l-123 -133c-5 -5 -9 -7 -14 -7h-52c-5 0 -10 2 -14 7
l-123 133c-6 7 -4 14 6 14z" />
    <glyph glyph-name="Scedilla" unicode="&#x15e;" horiz-adv-x="606" 
d="M413 -121c0 -56 -48 -86 -118 -86c-20 0 -41 3 -59 9c-7 2 -9 7 -9 13v25c0 8 5 12 13 10c16 -5 32 -7 46 -7c33 0 58 10 59 39c1 23 -18 36 -64 37c-7 0 -11 2 -14 8c-1 2 -1 7 1 11l21 52c-92 3 -162 33 -237 94c-6 5 -6 10 -2 16l34 47c4 6 10 7 15 3
c69 -52 131 -78 206 -79c91 0 173 37 173 121c0 83 -73 109 -187 134c-121 27 -239 78 -239 211c0 132 118 189 255 189c89 0 157 -25 233 -80c7 -4 7 -10 3 -15l-33 -47c-4 -6 -10 -6 -16 -2c-61 42 -125 63 -194 65c-95 0 -162 -39 -162 -112c0 -76 70 -103 175 -127
c133 -30 251 -72 251 -214c0 -129 -99 -191 -222 -202v-2l-17 -41c52 -3 88 -29 88 -70z" />
    <glyph glyph-name="uni0218" unicode="&#x218;" horiz-adv-x="606" 
d="M564 194c0 -143 -121 -205 -262 -205c-99 0 -171 31 -250 95c-6 5 -6 10 -2 16l34 47c4 6 10 7 15 3c69 -52 131 -79 206 -80c91 0 173 38 173 122c0 83 -73 109 -187 134c-121 27 -239 78 -239 211c0 132 118 189 255 189c89 0 157 -25 233 -80c7 -4 7 -10 3 -15
l-33 -47c-4 -6 -10 -6 -16 -2c-61 42 -125 63 -194 65c-95 0 -162 -39 -162 -112c0 -76 70 -103 175 -127c133 -30 251 -72 251 -214zM280 -244h-38c-8 0 -13 4 -11 12l37 146c2 7 6 10 13 10h54c8 0 12 -5 10 -13l-52 -146c-2 -6 -6 -9 -13 -9z" />
    <glyph glyph-name="T" unicode="T" horiz-adv-x="561" 
d="M23 715h514c7 0 12 -4 12 -11v-56c0 -7 -5 -11 -12 -11h-214v-626c0 -7 -5 -11 -12 -11h-62c-7 0 -12 4 -12 11v626h-214c-7 0 -11 4 -11 11v56c0 7 4 11 11 11z" />
    <glyph glyph-name="Tbar" unicode="&#x166;" horiz-adv-x="571" 
d="M316 0h-63c-7 0 -11 4 -11 11v297h-118c-7 0 -11 4 -11 11v36c0 8 4 12 11 12h118v270h-212c-7 0 -11 4 -11 11v56c0 7 4 11 11 11h511c7 0 11 -4 11 -11v-56c0 -7 -4 -11 -11 -11h-213v-270h117c8 0 12 -4 12 -12v-36c0 -7 -4 -11 -12 -11h-117v-297
c0 -7 -4 -11 -12 -11z" />
    <glyph glyph-name="Tcaron" unicode="&#x164;" horiz-adv-x="561" 
d="M23 715h514c7 0 12 -4 12 -11v-56c0 -7 -5 -11 -12 -11h-214v-626c0 -7 -5 -11 -12 -11h-62c-7 0 -12 4 -12 11v626h-214c-7 0 -11 4 -11 11v56c0 7 4 11 11 11zM123 939h59c6 0 10 -2 14 -7l84 -86l84 86c4 5 8 7 14 7h59c10 0 12 -7 6 -14l-123 -133
c-5 -5 -9 -7 -14 -7h-52c-5 0 -10 2 -14 7l-123 133c-6 7 -4 14 6 14z" />
    <glyph glyph-name="uni0162" unicode="&#x162;" horiz-adv-x="561" 
d="M258 -244h-38c-8 0 -13 4 -11 12l37 146c2 7 6 10 13 10h54c8 0 12 -5 10 -13l-52 -146c-2 -6 -6 -9 -13 -9zM23 715h514c7 0 12 -4 12 -11v-56c0 -7 -5 -11 -12 -11h-214v-626c0 -7 -5 -11 -12 -11h-62c-7 0 -12 4 -12 11v626h-214c-7 0 -11 4 -11 11v56c0 7 4 11 11 11
z" />
    <glyph glyph-name="uni021A" unicode="&#x21a;" horiz-adv-x="561" 
d="M23 715h514c7 0 12 -4 12 -11v-56c0 -7 -5 -11 -12 -11h-214v-626c0 -7 -5 -11 -12 -11h-62c-7 0 -12 4 -12 11v626h-214c-7 0 -11 4 -11 11v56c0 7 4 11 11 11zM258 -244h-38c-8 0 -13 4 -11 12l37 146c2 7 6 10 13 10h54c8 0 12 -5 10 -13l-52 -146c-2 -6 -6 -9 -13 -9
z" />
    <glyph glyph-name="U" unicode="U" horiz-adv-x="691" 
d="M608 244c0 -152 -102 -255 -263 -255c-160 0 -262 103 -262 255v460c0 7 5 11 12 11h64c7 0 11 -4 11 -11v-454c0 -113 63 -182 175 -182s176 69 176 182v454c0 7 4 11 11 11h64c7 0 12 -4 12 -11v-460z" />
    <glyph glyph-name="Uacute" unicode="&#xda;" horiz-adv-x="691" 
d="M608 244c0 -152 -102 -255 -263 -255c-160 0 -262 103 -262 255v460c0 7 5 11 12 11h64c7 0 11 -4 11 -11v-454c0 -113 63 -182 175 -182s176 69 176 182v454c0 7 4 11 11 11h64c7 0 12 -4 12 -11v-460zM488 925l-121 -133c-4 -5 -9 -7 -14 -7h-52c-9 0 -12 6 -7 14
l105 133c3 5 8 7 13 7h70c9 0 13 -7 6 -14z" />
    <glyph glyph-name="Ucircumflex" unicode="&#xdb;" horiz-adv-x="691" 
d="M608 244c0 -152 -102 -255 -263 -255c-160 0 -262 103 -262 255v460c0 7 5 11 12 11h64c7 0 11 -4 11 -11v-454c0 -113 63 -182 175 -182s176 69 176 182v454c0 7 4 11 11 11h64c7 0 12 -4 12 -11v-460zM248 785h-59c-10 0 -12 7 -6 14l123 133c4 5 9 7 14 7h52
c5 0 9 -2 14 -7l123 -133c6 -7 4 -14 -6 -14h-59c-6 0 -10 2 -14 7l-84 86l-84 -86c-4 -5 -8 -7 -14 -7z" />
    <glyph glyph-name="Udieresis" unicode="&#xdc;" horiz-adv-x="691" 
d="M608 244c0 -152 -102 -255 -263 -255c-160 0 -262 103 -262 255v460c0 7 5 11 12 11h64c7 0 11 -4 11 -11v-454c0 -113 63 -182 175 -182s176 69 176 182v454c0 7 4 11 11 11h64c7 0 12 -4 12 -11v-460zM293 847c0 -29 -21 -49 -49 -49c-29 0 -49 20 -49 49s20 50 49 50
c28 0 49 -21 49 -50zM497 847c0 -29 -21 -49 -50 -49s-49 20 -49 49s20 50 49 50s50 -21 50 -50z" />
    <glyph glyph-name="Ugrave" unicode="&#xd9;" horiz-adv-x="691" 
d="M608 244c0 -152 -102 -255 -263 -255c-160 0 -262 103 -262 255v460c0 7 5 11 12 11h64c7 0 11 -4 11 -11v-454c0 -113 63 -182 175 -182s176 69 176 182v454c0 7 4 11 11 11h64c7 0 12 -4 12 -11v-460zM315 792l-121 133c-7 7 -3 14 6 14h70c5 0 10 -2 13 -7l105 -133
c5 -8 2 -14 -7 -14h-52c-5 0 -10 2 -14 7z" />
    <glyph glyph-name="Uhungarumlaut" unicode="&#x170;" horiz-adv-x="691" 
d="M608 244c0 -152 -102 -255 -263 -255c-160 0 -262 103 -262 255v460c0 7 5 11 12 11h64c7 0 11 -4 11 -11v-454c0 -113 63 -182 175 -182s176 69 176 182v454c0 7 4 11 11 11h64c7 0 12 -4 12 -11v-460zM256 785h-53c-9 0 -12 6 -7 14l102 132c3 5 9 8 14 8h67
c10 0 13 -7 7 -14l-116 -133c-4 -5 -8 -7 -14 -7zM439 785h-52c-10 0 -12 7 -7 14l107 133c3 4 8 7 14 7h68c9 0 13 -7 6 -14l-122 -134c-4 -5 -9 -6 -14 -6z" />
    <glyph glyph-name="Umacron" unicode="&#x16a;" horiz-adv-x="691" 
d="M608 244c0 -152 -102 -255 -263 -255c-160 0 -262 103 -262 255v460c0 7 5 11 12 11h64c7 0 11 -4 11 -11v-454c0 -113 63 -182 175 -182s176 69 176 182v454c0 7 4 11 11 11h64c7 0 12 -4 12 -11v-460zM481 811h-272c-7 0 -11 4 -11 11v45c0 7 4 12 11 12h272
c7 0 11 -5 11 -12v-45c0 -7 -4 -11 -11 -11z" />
    <glyph glyph-name="Uogonek" unicode="&#x172;" horiz-adv-x="693" 
d="M498 -179c-27 -13 -59 -20 -101 -20c-54 0 -91 30 -91 74c0 45 29 86 75 120v1c-9 -4 -26 -7 -37 -7c-141 0 -261 85 -261 250v465c0 7 5 11 12 11h64c8 0 12 -4 12 -11v-465c0 -111 78 -170 175 -170s177 59 177 170v465c0 7 4 11 12 11h64c7 0 11 -4 11 -11v-465
c0 -128 -63 -180 -119 -213c-56 -34 -108 -77 -108 -120c0 -25 13 -36 43 -36c18 0 35 3 52 10c7 4 12 1 14 -7l10 -39c2 -7 0 -11 -4 -13z" />
    <glyph glyph-name="Uring" unicode="&#x16e;" horiz-adv-x="691" 
d="M608 244c0 -152 -102 -255 -263 -255c-160 0 -262 103 -262 255v460c0 7 5 11 12 11h64c7 0 11 -4 11 -11v-454c0 -113 63 -182 175 -182s176 69 176 182v454c0 7 4 11 11 11h64c7 0 12 -4 12 -11v-460zM454 874c0 -65 -45 -104 -107 -104c-64 0 -110 41 -110 104
c0 64 46 105 110 105c62 0 107 -41 107 -105zM288 874c0 -34 23 -55 59 -55c35 0 56 21 56 55c0 35 -21 56 -56 56c-36 0 -59 -21 -59 -56z" />
    <glyph glyph-name="V" unicode="V" horiz-adv-x="631" 
d="M357 0h-85c-6 0 -11 3 -13 9l-252 693c-3 8 1 13 9 13h68c6 0 11 -3 13 -9l145 -409c24 -67 48 -136 71 -203h3c24 67 47 134 70 201l146 411c2 6 7 9 13 9h68c8 0 11 -5 9 -13l-252 -693c-2 -6 -7 -9 -13 -9z" />
    <glyph glyph-name="W" unicode="W" horiz-adv-x="951" 
d="M292 0h-73c-7 0 -11 3 -13 10l-193 692c-2 7 2 13 10 13h67c7 0 11 -3 12 -10l104 -391c18 -69 35 -140 50 -211h2c18 71 41 154 61 223l110 368c2 6 6 10 12 10h68c7 0 10 -4 12 -10l111 -368c20 -70 43 -152 61 -223h2c15 70 31 142 49 211l104 391c2 7 6 10 12 10h68
c8 0 12 -6 10 -13l-194 -692c-2 -7 -6 -10 -12 -10h-73c-7 0 -11 3 -12 10l-115 373c-22 74 -42 148 -55 211h-3c-14 -64 -32 -136 -55 -211l-115 -373c-2 -7 -6 -10 -12 -10z" />
    <glyph glyph-name="Wacute" unicode="&#x1e82;" horiz-adv-x="951" 
d="M292 0h-73c-7 0 -11 3 -13 10l-193 692c-2 7 2 13 10 13h67c7 0 11 -3 12 -10l104 -391c18 -69 35 -140 50 -211h2c18 71 41 154 61 223l110 368c2 6 6 10 12 10h68c7 0 10 -4 12 -10l111 -368c20 -70 43 -152 61 -223h2c15 70 31 142 49 211l104 391c2 7 6 10 12 10h68
c8 0 12 -6 10 -13l-194 -692c-2 -7 -6 -10 -12 -10h-73c-7 0 -11 3 -12 10l-115 373c-22 74 -42 148 -55 211h-3c-14 -64 -32 -136 -55 -211l-115 -373c-2 -7 -6 -10 -12 -10zM617 925l-121 -133c-4 -5 -9 -7 -14 -7h-52c-9 0 -12 6 -7 14l105 133c3 5 8 7 13 7h70
c9 0 13 -7 6 -14z" />
    <glyph glyph-name="Wcircumflex" unicode="&#x174;" horiz-adv-x="951" 
d="M292 0h-73c-7 0 -11 3 -13 10l-193 692c-2 7 2 13 10 13h67c7 0 11 -3 12 -10l104 -391c18 -69 35 -140 50 -211h2c18 71 41 154 61 223l110 368c2 6 6 10 12 10h68c7 0 10 -4 12 -10l111 -368c20 -70 43 -152 61 -223h2c15 70 31 142 49 211l104 391c2 7 6 10 12 10h68
c8 0 12 -6 10 -13l-194 -692c-2 -7 -6 -10 -12 -10h-73c-7 0 -11 3 -12 10l-115 373c-22 74 -42 148 -55 211h-3c-14 -64 -32 -136 -55 -211l-115 -373c-2 -7 -6 -10 -12 -10zM377 785h-59c-10 0 -12 7 -6 14l123 133c4 5 9 7 14 7h52c5 0 9 -2 14 -7l123 -133
c6 -7 4 -14 -6 -14h-59c-6 0 -10 2 -14 7l-84 86l-84 -86c-4 -5 -8 -7 -14 -7z" />
    <glyph glyph-name="Wdieresis" unicode="&#x1e84;" horiz-adv-x="951" 
d="M409 867c0 -29 -21 -49 -49 -49c-29 0 -49 20 -49 49s20 50 49 50c28 0 49 -21 49 -50zM640 867c0 -29 -21 -49 -50 -49s-49 20 -49 49s20 50 49 50s50 -21 50 -50zM292 0h-73c-7 0 -11 3 -13 10l-193 692c-2 7 2 13 10 13h67c7 0 11 -3 12 -10l104 -391
c18 -69 35 -140 50 -211h2c18 71 41 154 61 223l110 368c2 6 6 10 12 10h68c7 0 10 -4 12 -10l111 -368c20 -70 43 -152 61 -223h2c15 70 31 142 49 211l104 391c2 7 6 10 12 10h68c8 0 12 -6 10 -13l-194 -692c-2 -7 -6 -10 -12 -10h-73c-7 0 -11 3 -12 10l-115 373
c-22 74 -42 148 -55 211h-3c-14 -64 -32 -136 -55 -211l-115 -373c-2 -7 -6 -10 -12 -10z" />
    <glyph glyph-name="Wgrave" unicode="&#x1e80;" horiz-adv-x="951" 
d="M292 0h-73c-7 0 -11 3 -13 10l-193 692c-2 7 2 13 10 13h67c7 0 11 -3 12 -10l104 -391c18 -69 35 -140 50 -211h2c18 71 41 154 61 223l110 368c2 6 6 10 12 10h68c7 0 10 -4 12 -10l111 -368c20 -70 43 -152 61 -223h2c15 70 31 142 49 211l104 391c2 7 6 10 12 10h68
c8 0 12 -6 10 -13l-194 -692c-2 -7 -6 -10 -12 -10h-73c-7 0 -11 3 -12 10l-115 373c-22 74 -42 148 -55 211h-3c-14 -64 -32 -136 -55 -211l-115 -373c-2 -7 -6 -10 -12 -10zM444 792l-121 133c-7 7 -3 14 6 14h70c5 0 10 -2 13 -7l105 -133c5 -8 2 -14 -7 -14h-52
c-5 0 -10 2 -14 7z" />
    <glyph glyph-name="X" unicode="X" horiz-adv-x="590" 
d="M345 359l224 -345c5 -7 2 -14 -7 -14h-77c-6 0 -11 3 -14 8l-175 284l-176 -284c-3 -5 -8 -8 -14 -8h-77c-9 0 -13 7 -8 14l225 345l-214 342c-5 7 -1 14 8 14h76c5 0 10 -3 13 -8l167 -279l166 279c3 5 8 8 13 8h76c8 0 12 -7 7 -14z" />
    <glyph glyph-name="Y" unicode="Y" horiz-adv-x="568" 
d="M315 0h-63c-7 0 -11 4 -11 11v261l-235 429c-4 8 -1 14 8 14h72c6 0 11 -2 13 -8l185 -357l184 357c2 6 8 8 13 8h72c9 0 12 -6 8 -14l-234 -431v-259c0 -7 -4 -11 -12 -11z" />
    <glyph glyph-name="Yacute" unicode="&#xdd;" horiz-adv-x="568" 
d="M315 0h-63c-7 0 -11 4 -11 11v261l-235 429c-4 8 -1 14 8 14h72c6 0 11 -2 13 -8l185 -357l184 357c2 6 8 8 13 8h72c9 0 12 -6 8 -14l-234 -431v-259c0 -7 -4 -11 -12 -11zM419 925l-121 -133c-4 -5 -9 -7 -14 -7h-52c-9 0 -12 6 -7 14l105 133c3 5 8 7 13 7h70
c9 0 13 -7 6 -14z" />
    <glyph glyph-name="Ycircumflex" unicode="&#x176;" horiz-adv-x="568" 
d="M315 0h-63c-7 0 -11 4 -11 11v261l-235 429c-4 8 -1 14 8 14h72c6 0 11 -2 13 -8l185 -357l184 357c2 6 8 8 13 8h72c9 0 12 -6 8 -14l-234 -431v-259c0 -7 -4 -11 -12 -11zM186 785h-59c-10 0 -12 7 -6 14l123 133c4 5 9 7 14 7h52c5 0 9 -2 14 -7l123 -133
c6 -7 4 -14 -6 -14h-59c-6 0 -10 2 -14 7l-84 86l-84 -86c-4 -5 -8 -7 -14 -7z" />
    <glyph glyph-name="Ydieresis" unicode="&#x178;" horiz-adv-x="568" 
d="M315 0h-63c-7 0 -11 4 -11 11v261l-235 429c-4 8 -1 14 8 14h72c6 0 11 -2 13 -8l185 -357l184 357c2 6 8 8 13 8h72c9 0 12 -6 8 -14l-234 -431v-259c0 -7 -4 -11 -12 -11zM231 847c0 -29 -21 -49 -49 -49c-29 0 -49 20 -49 49s20 50 49 50c28 0 49 -21 49 -50zM435 847
c0 -29 -21 -49 -50 -49s-49 20 -49 49s20 50 49 50s50 -21 50 -50z" />
    <glyph glyph-name="Ygrave" unicode="&#x1ef2;" horiz-adv-x="568" 
d="M315 0h-63c-7 0 -11 4 -11 11v261l-235 429c-4 8 -1 14 8 14h72c6 0 11 -2 13 -8l185 -357l184 357c2 6 8 8 13 8h72c9 0 12 -6 8 -14l-234 -431v-259c0 -7 -4 -11 -12 -11zM259 792l-121 133c-7 7 -3 14 6 14h70c5 0 10 -2 13 -7l105 -133c5 -8 2 -14 -7 -14h-52
c-5 0 -10 2 -14 7z" />
    <glyph glyph-name="Z" unicode="Z" horiz-adv-x="588" 
d="M540 0h-493c-7 0 -11 4 -11 11v39c0 5 1 10 4 14l388 573h-364c-8 0 -12 4 -12 11v56c0 7 4 11 12 11h467c7 0 11 -4 11 -11v-38c0 -5 -1 -10 -4 -15l-387 -573h389c7 0 11 -4 11 -11v-56c0 -7 -4 -11 -11 -11z" />
    <glyph glyph-name="Zacute" unicode="&#x179;" horiz-adv-x="588" 
d="M540 0h-493c-7 0 -11 4 -11 11v39c0 5 1 10 4 14l388 573h-364c-8 0 -12 4 -12 11v56c0 7 4 11 12 11h467c7 0 11 -4 11 -11v-38c0 -5 -1 -10 -4 -15l-387 -573h389c7 0 11 -4 11 -11v-56c0 -7 -4 -11 -11 -11zM427 925l-121 -133c-4 -5 -9 -7 -14 -7h-52
c-9 0 -12 6 -7 14l105 133c3 5 8 7 13 7h70c9 0 13 -7 6 -14z" />
    <glyph glyph-name="Zcaron" unicode="&#x17d;" horiz-adv-x="588" 
d="M540 0h-493c-7 0 -11 4 -11 11v39c0 5 1 10 4 14l388 573h-364c-8 0 -12 4 -12 11v56c0 7 4 11 12 11h467c7 0 11 -4 11 -11v-38c0 -5 -1 -10 -4 -15l-387 -573h389c7 0 11 -4 11 -11v-56c0 -7 -4 -11 -11 -11zM136 939h59c6 0 10 -2 14 -7l84 -86l84 86c4 5 8 7 14 7h59
c10 0 12 -7 6 -14l-123 -133c-5 -5 -9 -7 -14 -7h-52c-5 0 -10 2 -14 7l-123 133c-6 7 -4 14 6 14z" />
    <glyph glyph-name="Zdotaccent" unicode="&#x17b;" horiz-adv-x="588" 
d="M540 0h-493c-7 0 -11 4 -11 11v39c0 5 1 10 4 14l388 573h-364c-8 0 -12 4 -12 11v56c0 7 4 11 12 11h467c7 0 11 -4 11 -11v-38c0 -5 -1 -10 -4 -15l-387 -573h389c7 0 11 -4 11 -11v-56c0 -7 -4 -11 -11 -11zM348 852c0 -30 -24 -55 -55 -55c-30 0 -55 25 -55 55
c0 31 25 55 55 55c31 0 55 -24 55 -55z" />
    <glyph glyph-name="a" unicode="a" horiz-adv-x="511" 
d="M61 476c47 32 112 52 189 52c123 0 199 -65 199 -194v-300c0 -6 -3 -11 -9 -13c-47 -17 -118 -32 -193 -32c-112 0 -215 45 -215 164c0 106 87 159 215 159c41 0 86 -6 120 -12v32c0 81 -33 122 -120 122c-56 0 -107 -16 -142 -37c-6 -4 -11 -3 -15 3l-29 42
c-3 6 -4 10 0 14zM114 153c0 -60 56 -91 133 -91c45 0 90 9 120 18v150c-32 6 -79 12 -120 12c-91 0 -133 -34 -133 -89z" />
    <glyph glyph-name="aacute" unicode="&#xe1;" horiz-adv-x="511" 
d="M61 476c47 32 112 52 189 52c123 0 199 -65 199 -194v-300c0 -6 -3 -11 -9 -13c-47 -17 -118 -32 -193 -32c-112 0 -215 45 -215 164c0 106 87 159 215 159c41 0 86 -6 120 -12v32c0 81 -33 122 -120 122c-56 0 -107 -16 -142 -37c-6 -4 -11 -3 -15 3l-29 42
c-3 6 -4 10 0 14zM114 153c0 -60 56 -91 133 -91c45 0 90 9 120 18v150c-32 6 -79 12 -120 12c-91 0 -133 -34 -133 -89zM250 597h-45c-9 0 -14 6 -9 14l81 133c3 4 9 7 14 7h63c9 0 12 -6 6 -14l-96 -133c-3 -4 -8 -7 -14 -7z" />
    <glyph glyph-name="abreve" unicode="&#x103;" horiz-adv-x="511" 
d="M61 476c47 32 112 52 189 52c123 0 199 -65 199 -194v-300c0 -6 -3 -11 -9 -13c-47 -17 -118 -32 -193 -32c-112 0 -215 45 -215 164c0 106 87 159 215 159c41 0 86 -6 120 -12v32c0 81 -33 122 -120 122c-56 0 -107 -16 -142 -37c-6 -4 -11 -3 -15 3l-29 42
c-3 6 -4 10 0 14zM114 153c0 -60 56 -91 133 -91c45 0 90 9 120 18v150c-32 6 -79 12 -120 12c-91 0 -133 -34 -133 -89zM405 732c-9 -79 -63 -135 -155 -135c-91 0 -143 55 -153 134c-1 7 4 12 10 13l40 5c7 1 11 -2 13 -9c9 -51 38 -80 90 -80c54 0 83 29 92 80
c1 7 5 10 13 9l39 -5c7 -1 12 -5 11 -12z" />
    <glyph glyph-name="acircumflex" unicode="&#xe2;" horiz-adv-x="511" 
d="M61 476c47 32 112 52 189 52c123 0 199 -65 199 -194v-300c0 -6 -3 -11 -9 -13c-47 -17 -118 -32 -193 -32c-112 0 -215 45 -215 164c0 106 87 159 215 159c41 0 86 -6 120 -12v32c0 81 -33 122 -120 122c-56 0 -107 -16 -142 -37c-6 -4 -11 -3 -15 3l-29 42
c-3 6 -4 10 0 14zM114 153c0 -60 56 -91 133 -91c45 0 90 9 120 18v150c-32 6 -79 12 -120 12c-91 0 -133 -34 -133 -89zM163 597h-50c-10 0 -13 6 -7 14l113 133c4 4 9 7 14 7h43c6 0 11 -3 14 -7l112 -133c7 -8 4 -14 -5 -14h-52c-5 0 -11 3 -14 7l-76 91l-78 -91
c-4 -4 -8 -7 -14 -7z" />
    <glyph glyph-name="adieresis" unicode="&#xe4;" horiz-adv-x="511" 
d="M61 476c47 32 112 52 189 52c123 0 199 -65 199 -194v-300c0 -6 -3 -11 -9 -13c-47 -17 -118 -32 -193 -32c-112 0 -215 45 -215 164c0 106 87 159 215 159c41 0 86 -6 120 -12v32c0 81 -33 122 -120 122c-56 0 -107 -16 -142 -37c-6 -4 -11 -3 -15 3l-29 42
c-3 6 -4 10 0 14zM114 153c0 -60 56 -91 133 -91c45 0 90 9 120 18v150c-32 6 -79 12 -120 12c-91 0 -133 -34 -133 -89zM201 662c0 -29 -19 -47 -47 -47c-27 0 -47 18 -47 47c0 30 20 48 47 48c28 0 47 -18 47 -48zM393 662c0 -29 -20 -47 -47 -47c-28 0 -48 18 -48 47
c0 30 20 48 48 48c27 0 47 -18 47 -48z" />
    <glyph glyph-name="agrave" unicode="&#xe0;" horiz-adv-x="511" 
d="M61 476c47 32 112 52 189 52c123 0 199 -65 199 -194v-300c0 -6 -3 -11 -9 -13c-47 -17 -118 -32 -193 -32c-112 0 -215 45 -215 164c0 106 87 159 215 159c41 0 86 -6 120 -12v32c0 81 -33 122 -120 122c-56 0 -107 -16 -142 -37c-6 -4 -11 -3 -15 3l-29 42
c-3 6 -4 10 0 14zM114 153c0 -60 56 -91 133 -91c45 0 90 9 120 18v150c-32 6 -79 12 -120 12c-91 0 -133 -34 -133 -89zM294 597h-45c-6 0 -11 3 -14 7l-96 133c-6 8 -3 14 6 14h63c5 0 11 -3 14 -7l81 -133c5 -8 0 -14 -9 -14z" />
    <glyph glyph-name="amacron" unicode="&#x101;" horiz-adv-x="511" 
d="M61 476c47 32 112 52 189 52c123 0 199 -65 199 -194v-300c0 -6 -3 -11 -9 -13c-47 -17 -118 -32 -193 -32c-112 0 -215 45 -215 164c0 106 87 159 215 159c41 0 86 -6 120 -12v32c0 81 -33 122 -120 122c-56 0 -107 -16 -142 -37c-6 -4 -11 -3 -15 3l-29 42
c-3 6 -4 10 0 14zM114 153c0 -60 56 -91 133 -91c45 0 90 9 120 18v150c-32 6 -79 12 -120 12c-91 0 -133 -34 -133 -89zM118 631v43c0 7 4 12 11 12h252c7 0 11 -5 11 -12v-43c0 -7 -4 -11 -11 -11h-252c-7 0 -11 4 -11 11z" />
    <glyph glyph-name="aogonek" unicode="&#x105;" horiz-adv-x="512" 
d="M449 340v-304c0 -7 -3 -11 -9 -14c-68 -29 -116 -80 -116 -117c0 -23 12 -33 43 -33c13 0 30 1 47 8c7 3 12 0 14 -8l9 -39c2 -7 0 -11 -7 -14c-23 -11 -50 -18 -81 -18c-60 0 -93 26 -93 82c0 36 28 83 75 115c-26 -6 -55 -9 -85 -9c-111 0 -214 42 -214 166
c0 105 87 157 214 157c42 0 86 -6 121 -12v37c0 76 -33 117 -121 117c-57 0 -107 -16 -142 -37c-6 -4 -11 -3 -15 3l-29 42c-4 7 -3 12 3 16c46 30 109 50 187 50c122 0 199 -65 199 -188zM114 155c0 -63 54 -93 132 -93c45 0 90 8 121 17v153c-32 6 -79 10 -121 10
c-91 0 -132 -33 -132 -87z" />
    <glyph glyph-name="aring" unicode="&#xe5;" horiz-adv-x="511" 
d="M61 476c47 32 112 52 189 52c123 0 199 -65 199 -194v-300c0 -6 -3 -11 -9 -13c-47 -17 -118 -32 -193 -32c-112 0 -215 45 -215 164c0 106 87 159 215 159c41 0 86 -6 120 -12v32c0 81 -33 122 -120 122c-56 0 -107 -16 -142 -37c-6 -4 -11 -3 -15 3l-29 42
c-3 6 -4 10 0 14zM114 153c0 -60 56 -91 133 -91c45 0 90 9 120 18v150c-32 6 -79 12 -120 12c-91 0 -133 -34 -133 -89zM359 685c0 -64 -45 -102 -105 -102c-63 0 -109 40 -109 103c0 62 46 102 109 102c60 0 105 -40 105 -103zM195 685c0 -32 24 -54 58 -54
c33 0 56 22 56 54c0 33 -23 55 -56 55c-34 0 -58 -22 -58 -55z" />
    <glyph glyph-name="atilde" unicode="&#xe3;" horiz-adv-x="511" 
d="M61 476c47 32 112 52 189 52c123 0 199 -65 199 -194v-300c0 -6 -3 -11 -9 -13c-47 -17 -118 -32 -193 -32c-112 0 -215 45 -215 164c0 106 87 159 215 159c41 0 86 -6 120 -12v32c0 81 -33 122 -120 122c-56 0 -107 -16 -142 -37c-6 -4 -11 -3 -15 3l-29 42
c-3 6 -4 10 0 14zM114 153c0 -60 56 -91 133 -91c45 0 90 9 120 18v150c-32 6 -79 12 -120 12c-91 0 -133 -34 -133 -89zM408 680c-10 -32 -41 -73 -85 -73c-23 0 -48 12 -71 24c-22 12 -41 24 -60 24c-21 0 -33 -16 -41 -34c-5 -9 -11 -7 -16 -5l-33 19c-7 4 -8 9 -5 15
c12 31 41 70 84 70c25 0 50 -12 73 -25c19 -10 42 -23 61 -23c18 0 27 11 39 34c3 7 8 9 15 5l33 -18c7 -4 8 -8 6 -13z" />
    <glyph glyph-name="ae" unicode="&#xe6;" horiz-adv-x="820" 
d="M564 -11c-64 0 -111 24 -143 52c-40 -29 -107 -52 -178 -52c-107 0 -211 52 -211 164c0 105 90 156 209 156c41 0 86 -5 120 -10v46c0 73 -43 108 -119 108c-55 0 -105 -16 -143 -37c-7 -3 -12 -2 -16 4l-24 40c-3 6 -2 12 3 16c45 29 111 51 182 51
c75 0 124 -28 161 -78c37 50 96 78 167 78c104 0 202 -61 202 -188v-101c0 -8 -4 -12 -12 -12h-320v-50c0 -75 48 -112 123 -112c62 0 114 21 152 56c6 5 11 5 16 -1l31 -40c4 -5 5 -11 -1 -15c-47 -45 -119 -75 -199 -75zM115 154c0 -61 58 -92 126 -92c52 0 103 18 134 37
c-10 22 -14 48 -14 71v61c-32 5 -75 10 -113 10c-90 0 -133 -33 -133 -87zM442 331v-38h253v40c0 80 -54 120 -126 120s-127 -39 -127 -122z" />
    <glyph glyph-name="b" unicode="b" horiz-adv-x="543" 
d="M150 497c35 18 79 31 126 31c127 0 217 -78 217 -212v-111c0 -151 -93 -216 -223 -216c-64 0 -136 13 -193 35c-7 3 -9 7 -9 13v667c0 7 4 11 11 11h59c8 0 12 -4 12 -11v-207zM268 62c89 0 142 39 142 143v111c0 96 -51 139 -141 139c-46 0 -87 -14 -119 -36v-338
c31 -12 75 -19 118 -19z" />
    <glyph glyph-name="c" unicode="c" horiz-adv-x="470" 
d="M442 47c-52 -38 -107 -58 -177 -58c-133 0 -214 80 -214 193v152c0 114 82 194 213 194c59 0 113 -17 163 -50c7 -5 7 -11 3 -17l-26 -41c-4 -5 -10 -7 -16 -3c-37 24 -78 37 -122 37c-86 0 -133 -49 -133 -120v-152c0 -72 48 -120 132 -120c46 0 91 15 134 44
c6 5 12 4 16 -2l29 -41c4 -6 4 -12 -2 -16z" />
    <glyph glyph-name="cacute" unicode="&#x107;" horiz-adv-x="470" 
d="M442 47c-52 -38 -107 -58 -177 -58c-133 0 -214 80 -214 193v152c0 114 82 194 213 194c59 0 113 -17 163 -50c7 -5 7 -11 3 -17l-26 -41c-4 -5 -10 -7 -16 -3c-37 24 -78 37 -122 37c-86 0 -133 -49 -133 -120v-152c0 -72 48 -120 132 -120c46 0 91 15 134 44
c6 5 12 4 16 -2l29 -41c4 -6 4 -12 -2 -16zM248 597h-45c-9 0 -14 6 -9 14l81 133c3 4 9 7 14 7h63c9 0 12 -6 6 -14l-96 -133c-3 -4 -8 -7 -14 -7z" />
    <glyph glyph-name="ccaron" unicode="&#x10d;" horiz-adv-x="470" 
d="M442 47c-52 -38 -107 -58 -177 -58c-133 0 -214 80 -214 193v152c0 114 82 194 213 194c59 0 113 -17 163 -50c7 -5 7 -11 3 -17l-26 -41c-4 -5 -10 -7 -16 -3c-37 24 -78 37 -122 37c-86 0 -133 -49 -133 -120v-152c0 -72 48 -120 132 -120c46 0 91 15 134 44
c6 5 12 4 16 -2l29 -41c4 -6 4 -12 -2 -16zM118 751h50c6 0 10 -3 14 -7l78 -91l76 91c3 4 9 7 14 7h52c9 0 12 -6 5 -14l-112 -133c-3 -4 -8 -7 -14 -7h-43c-5 0 -10 3 -14 7l-113 133c-6 8 -3 14 7 14z" />
    <glyph glyph-name="ccedilla" unicode="&#xe7;" horiz-adv-x="470" 
d="M442 47c-47 -34 -96 -54 -156 -57l-16 -40c52 -3 86 -30 86 -72c0 -54 -47 -83 -116 -83c-19 0 -40 3 -58 9c-7 2 -9 7 -9 13v24c0 8 5 11 13 10c16 -5 32 -7 45 -7c33 0 60 10 60 39c0 23 -19 36 -63 37c-7 0 -11 2 -14 8c-1 2 -1 7 1 11l21 52
c-116 10 -185 86 -185 191v152c0 114 82 194 213 194c59 0 113 -17 163 -50c7 -5 7 -11 3 -17l-26 -41c-4 -5 -10 -7 -16 -3c-37 24 -78 37 -122 37c-86 0 -133 -49 -133 -120v-152c0 -72 48 -120 132 -120c46 0 91 15 134 44c6 5 12 4 16 -2l29 -41c4 -6 4 -12 -2 -16z" />
    <glyph glyph-name="cdotaccent" unicode="&#x10b;" horiz-adv-x="470" 
d="M442 47c-52 -38 -107 -58 -177 -58c-133 0 -214 80 -214 193v152c0 114 82 194 213 194c59 0 113 -17 163 -50c7 -5 7 -11 3 -17l-26 -41c-4 -5 -10 -7 -16 -3c-37 24 -78 37 -122 37c-86 0 -133 -49 -133 -120v-152c0 -72 48 -120 132 -120c46 0 91 15 134 44
c6 5 12 4 16 -2l29 -41c4 -6 4 -12 -2 -16zM305 662c0 -28 -21 -50 -50 -50c-28 0 -50 22 -50 50c0 29 22 50 50 50c29 0 50 -21 50 -50z" />
    <glyph glyph-name="d" unicode="d" horiz-adv-x="543" 
d="M393 497v207c0 7 4 11 12 11h59c7 0 11 -4 11 -11v-667c0 -6 -2 -10 -9 -13c-57 -22 -129 -35 -193 -35c-130 0 -223 65 -223 216v111c0 134 90 212 217 212c47 0 91 -13 126 -31zM133 205c0 -105 53 -144 142 -144c43 0 87 7 118 19v339c-32 22 -73 36 -119 36
c-90 0 -141 -43 -141 -139v-111z" />
    <glyph glyph-name="eth" unicode="&#xf0;" horiz-adv-x="550" 
d="M440 685l-59 -44c64 -59 106 -148 107 -271v-185c0 -117 -84 -196 -219 -196s-219 79 -219 196v114c0 117 85 197 213 197c62 0 113 -22 145 -57c-7 68 -41 121 -88 158l-97 -71c-6 -4 -11 -4 -16 3l-16 22c-4 5 -3 11 3 16l81 60c-39 20 -82 32 -124 36
c-7 0 -12 4 -11 12v47c1 7 5 11 12 11c67 -5 132 -24 186 -59l72 53c7 5 13 3 17 -3l16 -22c4 -6 3 -12 -3 -17zM133 185c0 -75 47 -123 136 -123s136 48 137 123v114c1 77 -48 125 -137 125s-136 -49 -136 -125v-114z" />
    <glyph glyph-name="dcaron" unicode="&#x10f;" horiz-adv-x="563" 
d="M267 528c47 0 91 -13 126 -31v207c0 7 4 11 12 11h59c7 0 11 -4 11 -11v-667c0 -6 -2 -10 -9 -13c-57 -22 -129 -35 -193 -35c-130 0 -223 65 -223 216v111c0 134 90 212 217 212zM522 560l35 145c2 8 7 10 13 10h51c8 0 11 -5 9 -13l-49 -145c-2 -6 -6 -9 -13 -9h-36
c-8 0 -11 5 -10 12zM133 205c0 -105 53 -144 142 -144c43 0 87 7 118 19v339c-32 22 -73 36 -119 36c-90 0 -141 -43 -141 -139v-111z" />
    <glyph glyph-name="dcroat" unicode="&#x111;" horiz-adv-x="543" 
d="M475 643h68c8 0 12 -4 12 -12v-34c0 -7 -4 -11 -12 -11h-68v-549c0 -6 -2 -10 -9 -13c-57 -22 -129 -35 -193 -35c-130 0 -223 65 -223 216v99c0 135 90 213 217 213c47 0 91 -13 126 -32v101h-139c-7 0 -11 4 -11 11v34c0 8 4 12 11 12h139v61c0 7 4 11 12 11h59
c7 0 11 -4 11 -11v-61zM133 205c0 -105 53 -144 142 -144c43 0 87 7 118 19v327c-32 22 -73 36 -119 36c-90 0 -141 -42 -141 -139v-99z" />
    <glyph glyph-name="e" unicode="e" horiz-adv-x="518" 
d="M472 329v-98c0 -8 -4 -12 -11 -12h-327v-42c0 -75 56 -115 130 -115c69 0 116 27 153 56c6 4 12 3 16 -3l29 -38c5 -6 4 -11 -2 -16c-50 -42 -114 -72 -198 -72c-108 0 -211 62 -211 188v152c0 137 102 199 212 199c109 0 209 -62 209 -199zM392 329
c0 85 -56 125 -129 125c-75 0 -129 -39 -129 -125v-42h258v42z" />
    <glyph glyph-name="eacute" unicode="&#xe9;" horiz-adv-x="518" 
d="M472 329v-98c0 -8 -4 -12 -11 -12h-327v-42c0 -75 56 -115 130 -115c69 0 116 27 153 56c6 4 12 3 16 -3l29 -38c5 -6 4 -11 -2 -16c-50 -42 -114 -72 -198 -72c-108 0 -211 62 -211 188v152c0 137 102 199 212 199c109 0 209 -62 209 -199zM392 329
c0 85 -56 125 -129 125c-75 0 -129 -39 -129 -125v-42h258v42zM254 597h-45c-9 0 -14 6 -9 14l81 133c3 4 9 7 14 7h63c9 0 12 -6 6 -14l-96 -133c-3 -4 -8 -7 -14 -7z" />
    <glyph glyph-name="ecaron" unicode="&#x11b;" horiz-adv-x="518" 
d="M472 329v-98c0 -8 -4 -12 -11 -12h-327v-42c0 -75 56 -115 130 -115c69 0 116 27 153 56c6 4 12 3 16 -3l29 -38c5 -6 4 -11 -2 -16c-50 -42 -114 -72 -198 -72c-108 0 -211 62 -211 188v152c0 137 102 199 212 199c109 0 209 -62 209 -199zM392 329
c0 85 -56 125 -129 125c-75 0 -129 -39 -129 -125v-42h258v42zM124 751h50c6 0 10 -3 14 -7l78 -91l76 91c3 4 9 7 14 7h52c9 0 12 -6 5 -14l-112 -133c-3 -4 -8 -7 -14 -7h-43c-5 0 -10 3 -14 7l-113 133c-6 8 -3 14 7 14z" />
    <glyph glyph-name="ecircumflex" unicode="&#xea;" horiz-adv-x="518" 
d="M472 329v-98c0 -8 -4 -12 -11 -12h-327v-42c0 -75 56 -115 130 -115c69 0 116 27 153 56c6 4 12 3 16 -3l29 -38c5 -6 4 -11 -2 -16c-50 -42 -114 -72 -198 -72c-108 0 -211 62 -211 188v152c0 137 102 199 212 199c109 0 209 -62 209 -199zM392 329
c0 85 -56 125 -129 125c-75 0 -129 -39 -129 -125v-42h258v42zM171 597h-50c-10 0 -13 6 -7 14l113 133c4 4 9 7 14 7h43c6 0 11 -3 14 -7l112 -133c7 -8 4 -14 -5 -14h-52c-5 0 -11 3 -14 7l-76 91l-78 -91c-4 -4 -8 -7 -14 -7z" />
    <glyph glyph-name="edieresis" unicode="&#xeb;" horiz-adv-x="518" 
d="M472 329v-98c0 -8 -4 -12 -11 -12h-327v-42c0 -75 56 -115 130 -115c69 0 116 27 153 56c6 4 12 3 16 -3l29 -38c5 -6 4 -11 -2 -16c-50 -42 -114 -72 -198 -72c-108 0 -211 62 -211 188v152c0 137 102 199 212 199c109 0 209 -62 209 -199zM392 329
c0 85 -56 125 -129 125c-75 0 -129 -39 -129 -125v-42h258v42zM212 662c0 -29 -19 -47 -47 -47c-27 0 -47 18 -47 47c0 30 20 48 47 48c28 0 47 -18 47 -48zM404 662c0 -29 -20 -47 -47 -47c-28 0 -48 18 -48 47c0 30 20 48 48 48c27 0 47 -18 47 -48z" />
    <glyph glyph-name="edotaccent" unicode="&#x117;" horiz-adv-x="518" 
d="M472 329v-98c0 -8 -4 -12 -11 -12h-327v-42c0 -75 56 -115 130 -115c69 0 116 27 153 56c6 4 12 3 16 -3l29 -38c5 -6 4 -11 -2 -16c-50 -42 -114 -72 -198 -72c-108 0 -211 62 -211 188v152c0 137 102 199 212 199c109 0 209 -62 209 -199zM392 329
c0 85 -56 125 -129 125c-75 0 -129 -39 -129 -125v-42h258v42zM311 662c0 -28 -21 -50 -50 -50c-28 0 -50 22 -50 50c0 29 22 50 50 50c29 0 50 -21 50 -50z" />
    <glyph glyph-name="egrave" unicode="&#xe8;" horiz-adv-x="518" 
d="M472 329v-98c0 -8 -4 -12 -11 -12h-327v-42c0 -75 56 -115 130 -115c69 0 116 27 153 56c6 4 12 3 16 -3l29 -38c5 -6 4 -11 -2 -16c-50 -42 -114 -72 -198 -72c-108 0 -211 62 -211 188v152c0 137 102 199 212 199c109 0 209 -62 209 -199zM392 329
c0 85 -56 125 -129 125c-75 0 -129 -39 -129 -125v-42h258v42zM305 597h-45c-6 0 -11 3 -14 7l-96 133c-6 8 -3 14 6 14h63c5 0 11 -3 14 -7l81 -133c5 -8 0 -14 -9 -14z" />
    <glyph glyph-name="emacron" unicode="&#x113;" horiz-adv-x="518" 
d="M472 329v-98c0 -8 -4 -12 -11 -12h-327v-42c0 -75 56 -115 130 -115c69 0 116 27 153 56c6 4 12 3 16 -3l29 -38c5 -6 4 -11 -2 -16c-50 -42 -114 -72 -198 -72c-108 0 -211 62 -211 188v152c0 137 102 199 212 199c109 0 209 -62 209 -199zM392 329
c0 85 -56 125 -129 125c-75 0 -129 -39 -129 -125v-42h258v42zM124 631v43c0 7 4 12 11 12h252c7 0 11 -5 11 -12v-43c0 -7 -4 -11 -11 -11h-252c-7 0 -11 4 -11 11z" />
    <glyph glyph-name="eogonek" unicode="&#x119;" horiz-adv-x="515" 
d="M406 -179c-25 -14 -55 -22 -85 -22c-55 0 -91 27 -91 81c0 40 26 78 68 114c-10 -4 -24 -5 -33 -5c-111 0 -214 62 -214 187v157c0 134 102 195 211 195c110 0 207 -61 207 -195v-102c0 -7 -4 -11 -11 -11h-324v-43c0 -76 54 -115 129 -115c62 0 117 24 151 55
c6 5 11 4 16 -2l29 -38c4 -6 5 -11 -1 -16c-18 -15 -43 -30 -69 -46c-58 -38 -90 -82 -90 -110c0 -24 12 -35 38 -35c14 0 29 3 44 11c6 3 12 0 15 -6l15 -40c3 -6 1 -11 -5 -14zM134 331v-43h257v45c0 84 -60 122 -132 122c-71 0 -125 -37 -125 -124z" />
    <glyph glyph-name="f" unicode="f" horiz-adv-x="317" 
d="M298 651c-15 2 -34 3 -50 3c-63 0 -97 -41 -97 -109v-33h138c7 0 11 -4 11 -11v-50c0 -8 -4 -12 -11 -12h-138v-428c0 -7 -4 -11 -12 -11h-59c-7 0 -11 4 -11 11v533c0 120 73 182 168 182c20 0 42 -1 60 -3c8 -1 11 -6 11 -13v-48c0 -7 -4 -11 -10 -11z" />
    <glyph glyph-name="g" unicode="g" horiz-adv-x="543" 
d="M475 14c0 -131 -62 -214 -211 -214c-80 0 -140 25 -193 69c-5 4 -5 9 -1 16l29 43c4 6 10 7 16 2c41 -33 89 -56 149 -56c90 0 132 45 129 147v24c-37 -18 -86 -29 -128 -29c-120 0 -215 65 -215 204v100c0 151 99 208 224 208c70 0 140 -16 192 -39c6 -2 9 -6 9 -13
v-462zM133 220c0 -96 59 -130 138 -130c45 0 94 11 122 30v317c-29 10 -81 17 -118 17c-86 0 -142 -35 -142 -134v-100z" />
    <glyph glyph-name="gbreve" unicode="&#x11f;" horiz-adv-x="543" 
d="M475 14c0 -131 -62 -214 -211 -214c-80 0 -140 25 -193 69c-5 4 -5 9 -1 16l29 43c4 6 10 7 16 2c41 -33 89 -56 149 -56c90 0 132 45 129 147v24c-37 -18 -86 -29 -128 -29c-120 0 -215 65 -215 204v100c0 151 99 208 224 208c70 0 140 -16 192 -39c6 -2 9 -6 9 -13
v-462zM133 220c0 -96 59 -130 138 -130c45 0 94 11 122 30v317c-29 10 -81 17 -118 17c-86 0 -142 -35 -142 -134v-100zM427 732c-9 -79 -63 -135 -155 -135c-91 0 -143 55 -153 134c-1 7 4 12 10 13l40 5c7 1 11 -2 13 -9c9 -51 38 -80 90 -80c54 0 83 29 92 80
c1 7 5 10 13 9l39 -5c7 -1 12 -5 11 -12z" />
    <glyph glyph-name="uni0123" unicode="&#x123;" horiz-adv-x="543" 
d="M475 14c0 -131 -62 -214 -211 -214c-80 0 -140 25 -193 69c-5 4 -5 9 -1 16l29 43c4 6 10 7 16 2c41 -33 89 -56 149 -56c90 0 132 45 129 147v24c-37 -18 -86 -29 -128 -29c-120 0 -215 65 -215 204v100c0 151 99 208 224 208c70 0 140 -16 192 -39c6 -2 9 -6 9 -13
v-462zM133 220c0 -96 59 -130 138 -130c45 0 94 11 122 30v317c-29 10 -81 17 -118 17c-86 0 -142 -35 -142 -134v-100zM285 597h-55c-8 0 -13 6 -9 13l55 137c2 7 7 9 13 9h38c8 0 12 -5 9 -13l-39 -136c-2 -6 -5 -10 -12 -10z" />
    <glyph glyph-name="gdotaccent" unicode="&#x121;" horiz-adv-x="543" 
d="M475 14c0 -131 -62 -214 -211 -214c-80 0 -140 25 -193 69c-5 4 -5 9 -1 16l29 43c4 6 10 7 16 2c41 -33 89 -56 149 -56c90 0 132 45 129 147v24c-37 -18 -86 -29 -128 -29c-120 0 -215 65 -215 204v100c0 151 99 208 224 208c70 0 140 -16 192 -39c6 -2 9 -6 9 -13
v-462zM133 220c0 -96 59 -130 138 -130c45 0 94 11 122 30v317c-29 10 -81 17 -118 17c-86 0 -142 -35 -142 -134v-100zM322 662c0 -28 -21 -50 -50 -50c-28 0 -50 22 -50 50c0 29 22 50 50 50c29 0 50 -21 50 -50z" />
    <glyph glyph-name="h" unicode="h" horiz-adv-x="558" 
d="M151 503c35 15 77 25 125 25c124 0 218 -63 218 -218v-299c0 -7 -4 -11 -12 -11h-59c-7 0 -11 4 -11 11v296c0 108 -51 147 -141 147c-44 0 -88 -10 -120 -26v-417c0 -7 -4 -11 -12 -11h-59c-7 0 -11 4 -11 11v693c0 7 4 11 11 11h59c8 0 12 -4 12 -11v-201z" />
    <glyph glyph-name="hbar" unicode="&#x127;" horiz-adv-x="558" 
d="M151 491c36 15 78 25 126 25c124 0 217 -63 217 -218v-287c0 -7 -4 -11 -11 -11h-59c-7 0 -12 4 -12 11v284c0 108 -51 147 -140 147c-45 0 -88 -11 -121 -26v-405c0 -7 -4 -11 -11 -11h-59c-8 0 -12 4 -12 11v575h-68c-7 0 -11 4 -11 11v34c0 8 4 12 11 12h68v61
c0 7 4 11 12 11h59c7 0 11 -4 11 -11v-61h140c7 0 11 -4 11 -12v-34c0 -7 -4 -11 -11 -11h-140v-95z" />
    <glyph glyph-name="i" unicode="i" horiz-adv-x="220" 
d="M140 0h-59c-8 0 -12 4 -12 11v494c0 7 4 12 12 12h59c7 0 11 -5 11 -12v-494c0 -7 -4 -11 -11 -11zM160 662c0 -28 -21 -49 -49 -49s-50 21 -50 49c0 29 22 49 50 49s49 -20 49 -49z" />
    <glyph glyph-name="dotlessi" unicode="&#x131;" horiz-adv-x="220" 
d="M139 0h-59c-7 0 -11 4 -11 11v494c0 7 4 12 11 12h59c8 0 12 -5 12 -12v-494c0 -7 -4 -11 -12 -11z" />
    <glyph glyph-name="iacute" unicode="&#xed;" horiz-adv-x="220" 
d="M139 0h-59c-7 0 -11 4 -11 11v494c0 7 4 12 11 12h59c8 0 12 -5 12 -12v-494c0 -7 -4 -11 -12 -11zM111 597h-45c-9 0 -14 6 -9 14l81 133c3 4 9 7 14 7h63c9 0 12 -6 6 -14l-96 -133c-3 -4 -8 -7 -14 -7z" />
    <glyph glyph-name="icircumflex" unicode="&#xee;" horiz-adv-x="220" 
d="M139 0h-59c-7 0 -11 4 -11 11v494c0 7 4 12 11 12h59c8 0 12 -5 12 -12v-494c0 -7 -4 -11 -12 -11zM36 597h-49c-9 0 -12 7 -8 14l95 133c3 4 8 7 14 7h44c5 0 10 -3 14 -7l95 -133c5 -7 2 -14 -7 -14h-50c-6 0 -11 3 -14 7l-60 93l-60 -92c-3 -5 -8 -8 -14 -8z" />
    <glyph glyph-name="idieresis" unicode="&#xef;" horiz-adv-x="220" 
d="M139 0h-59c-7 0 -11 4 -11 11v494c0 7 4 12 11 12h59c8 0 12 -5 12 -12v-494c0 -7 -4 -11 -12 -11zM86 662c0 -26 -19 -46 -46 -46c-26 0 -46 20 -46 46c0 27 20 47 46 47c27 0 46 -20 46 -47zM225 662c0 -26 -20 -46 -47 -46s-46 20 -46 46c0 27 19 47 46 47
s47 -20 47 -47z" />
    <glyph glyph-name="idotaccent" horiz-adv-x="220" 
d="M139 0h-59c-7 0 -11 4 -11 11v494c0 7 4 12 11 12h59c8 0 12 -5 12 -12v-494c0 -7 -4 -11 -12 -11zM160 662c0 -28 -21 -50 -50 -50c-28 0 -50 22 -50 50c0 29 22 50 50 50c29 0 50 -21 50 -50z" />
    <glyph glyph-name="igrave" unicode="&#xec;" horiz-adv-x="220" 
d="M139 0h-59c-7 0 -11 4 -11 11v494c0 7 4 12 11 12h59c8 0 12 -5 12 -12v-494c0 -7 -4 -11 -12 -11zM151 597h-45c-6 0 -11 3 -14 7l-96 133c-6 8 -3 14 6 14h63c5 0 11 -3 14 -7l81 -133c5 -8 0 -14 -9 -14z" />
    <glyph glyph-name="ij" unicode="&#x133;" horiz-adv-x="500" 
d="M140 0h-59c-8 0 -12 4 -12 11v494c0 7 4 12 12 12h59c7 0 11 -5 11 -12v-494c0 -7 -4 -11 -11 -11zM160 662c0 -28 -21 -49 -49 -49s-50 21 -50 49c0 29 22 49 50 49s49 -20 49 -49zM431 -17c0 -120 -54 -184 -150 -184c-17 0 -34 1 -49 3c-8 1 -11 6 -11 13v50
c0 8 4 12 12 12c14 -2 28 -3 39 -3c51 0 77 29 77 109v522c0 7 4 12 12 12h59c7 0 11 -5 11 -12v-522zM440 662c0 -28 -21 -49 -49 -49s-50 21 -50 49c0 29 22 49 50 49s49 -20 49 -49z" />
    <glyph glyph-name="imacron" unicode="&#x12b;" horiz-adv-x="220" 
d="M207 618h-193c-7 0 -11 4 -11 12v43c0 7 4 11 11 11h193c7 0 11 -4 11 -11v-43c0 -8 -4 -12 -11 -12zM140 0h-59c-7 0 -12 4 -12 11v494c0 7 5 12 12 12h59c7 0 11 -5 11 -12v-494c0 -7 -4 -11 -11 -11z" />
    <glyph glyph-name="iogonek" unicode="&#x12f;" horiz-adv-x="220" 
d="M202 -179c-26 -13 -57 -20 -89 -20c-61 0 -98 29 -98 90c0 39 28 80 67 110h-3c-6 1 -10 5 -10 12v492c0 7 5 12 12 12h59c7 0 11 -5 11 -12v-494c0 -7 -3 -11 -11 -12c-40 -31 -57 -63 -57 -88c0 -27 15 -39 46 -39c13 0 35 3 55 11c7 3 12 1 13 -7l11 -40
c2 -8 0 -12 -6 -15zM160 662c0 -28 -21 -49 -49 -49s-50 21 -50 49c0 29 22 50 50 50s49 -21 49 -50z" />
    <glyph glyph-name="j" unicode="j" horiz-adv-x="228" 
d="M159 -17c0 -120 -54 -184 -150 -184c-17 0 -34 1 -49 3c-8 1 -11 6 -11 13v50c0 8 4 12 12 12c14 -2 28 -3 39 -3c51 0 77 29 77 109v522c0 7 4 12 12 12h59c7 0 11 -5 11 -12v-522zM168 662c0 -28 -21 -49 -49 -49s-50 21 -50 49c0 29 22 49 50 49s49 -20 49 -49z" />
    <glyph glyph-name="uni0237" unicode="&#x237;" horiz-adv-x="228" 
d="M159 -17c0 -120 -54 -184 -150 -184c-16 0 -34 1 -49 3c-8 1 -11 6 -11 13v50c0 8 4 12 12 12c14 -2 28 -3 39 -3c51 0 77 29 77 108v523c0 7 4 12 12 12h59c7 0 11 -5 11 -12v-522z" />
    <glyph glyph-name="k" unicode="k" horiz-adv-x="495" 
d="M481 0h-74c-6 0 -11 2 -15 7l-190 231l-51 -49v-178c0 -7 -4 -11 -12 -11h-59c-7 0 -11 4 -11 11v693c0 7 4 11 11 11h59c8 0 12 -4 12 -11v-414l226 221c4 5 9 6 14 6h73c9 0 12 -7 5 -14l-212 -209l230 -280c6 -8 3 -14 -6 -14z" />
    <glyph glyph-name="uni0137" unicode="&#x137;" horiz-adv-x="495" 
d="M481 0h-74c-6 0 -11 2 -15 7l-190 231l-51 -49v-178c0 -7 -4 -11 -12 -11h-59c-7 0 -11 4 -11 11v693c0 7 4 11 11 11h59c8 0 12 -4 12 -11v-414l226 221c4 5 9 6 14 6h73c9 0 12 -7 5 -14l-212 -209l230 -280c6 -8 3 -14 -6 -14zM243 -236h-36c-8 0 -12 4 -10 12l34 139
c2 7 7 10 13 10h51c8 0 11 -5 9 -13l-48 -139c-2 -6 -6 -9 -13 -9z" />
    <glyph glyph-name="l" unicode="l" horiz-adv-x="290" 
d="M273 -8c-17 -2 -38 -3 -56 -3c-96 0 -151 64 -151 184v531c0 7 4 11 12 11h59c7 0 11 -4 11 -11v-532c0 -78 27 -108 78 -108c12 0 29 1 45 3c8 0 12 -4 12 -11v-51c0 -7 -4 -12 -10 -13z" />
    <glyph glyph-name="lacute" unicode="&#x13a;" horiz-adv-x="290" 
d="M273 -8c-17 -2 -38 -3 -56 -3c-96 0 -151 64 -151 184v531c0 7 4 11 12 11h59c7 0 11 -4 11 -11v-532c0 -78 27 -108 78 -108c12 0 29 1 45 3c8 0 12 -4 12 -11v-51c0 -7 -4 -12 -10 -13zM262 925l-121 -133c-4 -5 -9 -7 -14 -7h-52c-9 0 -12 6 -7 14l105 133
c3 5 8 7 13 7h70c9 0 13 -7 6 -14z" />
    <glyph glyph-name="lcaron" unicode="&#x13e;" horiz-adv-x="303" 
d="M269 -8c-17 -2 -36 -3 -52 -3c-97 0 -151 64 -151 184v531c0 7 4 11 11 11h59c8 0 12 -4 12 -11v-532c0 -78 26 -108 77 -108c12 0 27 1 41 3c8 0 13 -4 13 -11v-51c0 -7 -4 -12 -10 -13zM260 556h-38c-8 0 -12 6 -10 13l36 136c2 7 6 10 13 10h51c8 0 12 -6 9 -13
l-49 -137c-2 -5 -6 -9 -12 -9z" />
    <glyph glyph-name="uni013C" unicode="&#x13c;" horiz-adv-x="290" 
d="M273 -8c-17 -2 -38 -3 -56 -3c-96 0 -151 64 -151 184v531c0 7 4 11 12 11h59c7 0 11 -4 11 -11v-532c0 -78 27 -108 78 -108c12 0 29 1 45 3c8 0 12 -4 12 -11v-51c0 -7 -4 -12 -10 -13zM172 -236h-36c-8 0 -12 4 -10 12l34 139c2 7 7 10 13 10h51c8 0 11 -5 9 -13
l-48 -139c-2 -6 -6 -9 -13 -9z" />
    <glyph glyph-name="ldot" unicode="&#x140;" horiz-adv-x="314" 
d="M269 -8c-17 -2 -36 -3 -52 -3c-97 0 -151 64 -151 184v531c0 7 4 11 11 11h59c8 0 12 -4 12 -11v-532c0 -78 26 -108 77 -108c12 0 27 1 41 3c8 0 13 -4 13 -11v-51c0 -7 -4 -12 -10 -13zM312 363c0 -29 -20 -51 -50 -51c-31 0 -52 22 -52 51c0 30 21 51 52 51
c30 0 50 -21 50 -51z" />
    <glyph glyph-name="lslash" unicode="&#x142;" horiz-adv-x="357" 
d="M306 -8c-16 -2 -35 -3 -51 -3c-97 0 -151 64 -151 184v89l-64 -45c-8 -6 -14 -1 -14 7v53c0 5 2 10 7 14l71 50v363c0 7 4 11 11 11h59c7 0 12 -4 12 -11v-305l112 80c7 6 13 2 13 -7v-53c0 -5 -2 -9 -7 -13l-118 -85v-149c0 -78 26 -108 77 -108c12 0 27 1 41 3
c8 0 12 -4 12 -11v-51c0 -7 -3 -12 -10 -13z" />
    <glyph glyph-name="m" unicode="m" horiz-adv-x="817" 
d="M392 479c48 32 94 49 154 49c122 0 207 -71 207 -204v-313c0 -7 -4 -11 -11 -11h-59c-8 0 -12 4 -12 11v315c0 80 -41 128 -127 128c-42 0 -80 -13 -110 -34c12 -26 19 -59 19 -95v-314c0 -7 -4 -11 -11 -11h-60c-7 0 -11 4 -11 11v315c0 85 -39 128 -120 128
c-41 0 -73 -8 -101 -18v-425c0 -7 -4 -11 -12 -11h-59c-7 0 -11 4 -11 11v464c0 6 2 11 9 14c53 24 111 39 172 39s108 -18 143 -49z" />
    <glyph glyph-name="n" unicode="n" horiz-adv-x="557" 
d="M138 0h-59c-7 0 -11 4 -11 11v464c0 6 2 11 8 14c57 24 123 39 192 39c134 0 225 -63 225 -216v-301c0 -7 -4 -11 -12 -11h-59c-7 0 -11 4 -11 11v299c0 104 -53 144 -143 144c-42 0 -87 -8 -118 -18v-425c0 -7 -4 -11 -12 -11z" />
    <glyph glyph-name="nacute" unicode="&#x144;" horiz-adv-x="557" 
d="M138 0h-59c-7 0 -11 4 -11 11v464c0 6 2 11 8 14c57 24 123 39 192 39c134 0 225 -63 225 -216v-301c0 -7 -4 -11 -12 -11h-59c-7 0 -11 4 -11 11v299c0 104 -53 144 -143 144c-42 0 -87 -8 -118 -18v-425c0 -7 -4 -11 -12 -11zM262 597h-45c-9 0 -14 6 -9 14l81 133
c3 4 9 7 14 7h63c9 0 12 -6 6 -14l-96 -133c-3 -4 -8 -7 -14 -7z" />
    <glyph glyph-name="ncaron" unicode="&#x148;" horiz-adv-x="557" 
d="M138 0h-59c-7 0 -11 4 -11 11v464c0 6 2 11 8 14c57 24 123 39 192 39c134 0 225 -63 225 -216v-301c0 -7 -4 -11 -12 -11h-59c-7 0 -11 4 -11 11v299c0 104 -53 144 -143 144c-42 0 -87 -8 -118 -18v-425c0 -7 -4 -11 -12 -11zM130 751h50c6 0 10 -3 14 -7l78 -91l76 91
c3 4 9 7 14 7h52c9 0 12 -6 5 -14l-112 -133c-3 -4 -8 -7 -14 -7h-43c-5 0 -10 3 -14 7l-113 133c-6 8 -3 14 7 14z" />
    <glyph glyph-name="uni0146" unicode="&#x146;" horiz-adv-x="557" 
d="M138 0h-59c-7 0 -11 4 -11 11v464c0 6 2 11 8 14c57 24 123 39 192 39c134 0 225 -63 225 -216v-301c0 -7 -4 -11 -12 -11h-59c-7 0 -11 4 -11 11v299c0 104 -53 144 -143 144c-42 0 -87 -8 -118 -18v-425c0 -7 -4 -11 -12 -11zM260 -236h-36c-8 0 -12 4 -10 12l34 139
c2 7 7 10 13 10h51c8 0 11 -5 9 -13l-48 -139c-2 -6 -6 -9 -13 -9z" />
    <glyph glyph-name="eng" unicode="&#x14b;" horiz-adv-x="557" 
d="M493 -11c0 -133 -53 -189 -148 -189c-16 0 -31 1 -46 4c-8 1 -11 5 -11 12v51c0 7 4 11 12 11c14 -2 28 -3 36 -3c49 0 75 36 75 114v321c0 104 -53 144 -143 144c-42 0 -87 -7 -118 -18v-425c0 -7 -4 -11 -12 -11h-59c-7 0 -11 4 -11 11v464c0 6 2 10 7 13
c57 25 124 40 193 40c134 0 225 -63 225 -216v-323z" />
    <glyph glyph-name="ntilde" unicode="&#xf1;" horiz-adv-x="557" 
d="M138 0h-59c-7 0 -11 4 -11 11v464c0 6 2 11 8 14c57 24 123 39 192 39c134 0 225 -63 225 -216v-301c0 -7 -4 -11 -12 -11h-59c-7 0 -11 4 -11 11v299c0 104 -53 144 -143 144c-42 0 -87 -8 -118 -18v-425c0 -7 -4 -11 -12 -11zM423 680c-10 -32 -41 -73 -85 -73
c-23 0 -48 12 -71 24c-22 12 -41 24 -60 24c-21 0 -33 -16 -41 -34c-5 -9 -11 -7 -16 -5l-33 19c-7 4 -8 9 -5 15c12 31 41 70 84 70c25 0 50 -12 73 -25c19 -10 42 -23 61 -23c18 0 27 11 39 34c3 7 8 9 15 5l33 -18c7 -4 8 -8 6 -13z" />
    <glyph glyph-name="o" unicode="o" horiz-adv-x="540" 
d="M490 185c0 -117 -84 -196 -220 -196c-135 0 -220 79 -220 196v144c0 117 85 199 220 199c136 0 220 -82 220 -199v-144zM133 185c0 -75 48 -123 137 -123c90 0 138 48 138 123v144c0 76 -48 125 -138 125c-89 0 -137 -49 -137 -125v-144z" />
    <glyph glyph-name="oacute" unicode="&#xf3;" horiz-adv-x="540" 
d="M490 185c0 -117 -84 -196 -220 -196c-135 0 -220 79 -220 196v144c0 117 85 199 220 199c136 0 220 -82 220 -199v-144zM133 185c0 -75 48 -123 137 -123c90 0 138 48 138 123v144c0 76 -48 125 -138 125c-89 0 -137 -49 -137 -125v-144zM263 597h-45c-9 0 -14 6 -9 14
l81 133c3 4 9 7 14 7h63c9 0 12 -6 6 -14l-96 -133c-3 -4 -8 -7 -14 -7z" />
    <glyph glyph-name="ocircumflex" unicode="&#xf4;" horiz-adv-x="540" 
d="M490 185c0 -117 -84 -196 -220 -196c-135 0 -220 79 -220 196v144c0 117 85 199 220 199c136 0 220 -82 220 -199v-144zM133 185c0 -75 48 -123 137 -123c90 0 138 48 138 123v144c0 76 -48 125 -138 125c-89 0 -137 -49 -137 -125v-144zM178 597h-50c-10 0 -13 6 -7 14
l113 133c4 4 9 7 14 7h43c6 0 11 -3 14 -7l112 -133c7 -8 4 -14 -5 -14h-52c-5 0 -11 3 -14 7l-76 91l-78 -91c-4 -4 -8 -7 -14 -7z" />
    <glyph glyph-name="odieresis" unicode="&#xf6;" horiz-adv-x="540" 
d="M490 185c0 -117 -84 -196 -220 -196c-135 0 -220 79 -220 196v144c0 117 85 199 220 199c136 0 220 -82 220 -199v-144zM133 185c0 -75 48 -123 137 -123c90 0 138 48 138 123v144c0 76 -48 125 -138 125c-89 0 -137 -49 -137 -125v-144zM221 662c0 -29 -19 -47 -47 -47
c-27 0 -47 18 -47 47c0 30 20 48 47 48c28 0 47 -18 47 -48zM413 662c0 -29 -20 -47 -47 -47c-28 0 -48 18 -48 47c0 30 20 48 48 48c27 0 47 -18 47 -48z" />
    <glyph glyph-name="ograve" unicode="&#xf2;" horiz-adv-x="540" 
d="M490 185c0 -117 -84 -196 -220 -196c-135 0 -220 79 -220 196v144c0 117 85 199 220 199c136 0 220 -82 220 -199v-144zM133 185c0 -75 48 -123 137 -123c90 0 138 48 138 123v144c0 76 -48 125 -138 125c-89 0 -137 -49 -137 -125v-144zM314 597h-45c-6 0 -11 3 -14 7
l-96 133c-6 8 -3 14 6 14h63c5 0 11 -3 14 -7l81 -133c5 -8 0 -14 -9 -14z" />
    <glyph glyph-name="ohungarumlaut" unicode="&#x151;" horiz-adv-x="540" 
d="M490 185c0 -117 -84 -196 -220 -196c-135 0 -220 79 -220 196v144c0 117 85 199 220 199c136 0 220 -82 220 -199v-144zM133 185c0 -75 48 -123 137 -123c90 0 138 48 138 123v144c0 76 -48 125 -138 125c-89 0 -137 -49 -137 -125v-144zM199 597h-36c-9 0 -13 6 -9 14
l72 132c4 5 8 8 14 8h50c9 0 12 -6 7 -14l-84 -133c-4 -5 -9 -7 -14 -7zM343 597h-36c-9 0 -12 6 -8 14l79 133c3 4 8 7 14 7h50c9 0 13 -6 8 -14l-93 -133c-3 -4 -8 -7 -14 -7z" />
    <glyph glyph-name="omacron" unicode="&#x14d;" horiz-adv-x="540" 
d="M490 185c0 -117 -84 -196 -220 -196c-135 0 -220 79 -220 196v144c0 117 85 199 220 199c136 0 220 -82 220 -199v-144zM133 185c0 -75 48 -123 137 -123c90 0 138 48 138 123v144c0 76 -48 125 -138 125c-89 0 -137 -49 -137 -125v-144zM133 631v43c0 7 4 12 11 12h252
c7 0 11 -5 11 -12v-43c0 -7 -4 -11 -11 -11h-252c-7 0 -11 4 -11 11z" />
    <glyph glyph-name="oslash" unicode="&#xf8;" horiz-adv-x="540" 
d="M114 -57h-50c-9 0 -12 6 -8 14l51 88c-36 34 -57 82 -57 140v144c0 117 84 199 220 199c41 0 75 -7 104 -21l39 66c3 5 8 8 14 8h50c9 0 12 -6 8 -14l-55 -94c39 -35 60 -85 60 -144v-144c0 -117 -84 -196 -220 -196c-42 0 -78 7 -108 22l-35 -60c-3 -5 -8 -8 -13 -8z
M133 185c0 -24 6 -46 17 -63l187 318c-18 9 -40 14 -67 14c-90 0 -137 -49 -137 -125v-144zM270 62c90 0 137 48 137 123v144c0 26 -7 50 -20 68l-187 -320c19 -9 42 -15 70 -15z" />
    <glyph glyph-name="otilde" unicode="&#xf5;" horiz-adv-x="540" 
d="M490 185c0 -117 -84 -196 -220 -196c-135 0 -220 79 -220 196v144c0 117 85 199 220 199c136 0 220 -82 220 -199v-144zM133 185c0 -75 48 -123 137 -123c90 0 138 48 138 123v144c0 76 -48 125 -138 125c-89 0 -137 -49 -137 -125v-144zM425 680
c-10 -32 -41 -73 -85 -73c-23 0 -48 12 -71 24c-22 12 -41 24 -60 24c-21 0 -33 -16 -41 -34c-5 -9 -11 -7 -16 -5l-33 19c-7 4 -8 9 -5 15c12 31 41 70 84 70c25 0 50 -12 73 -25c19 -10 42 -23 61 -23c18 0 27 11 39 34c3 7 8 9 15 5l33 -18c7 -4 8 -8 6 -13z" />
    <glyph glyph-name="oe" unicode="&#x153;" horiz-adv-x="874" 
d="M618 -11c-67 0 -134 26 -171 79c-36 -49 -97 -79 -177 -79c-135 0 -220 79 -220 196v144c0 117 85 199 220 199c80 0 141 -32 178 -82c38 55 103 82 171 82c109 0 209 -62 209 -199v-98c0 -8 -4 -12 -11 -12h-327v-42c0 -74 56 -114 130 -114c69 0 115 27 152 57
c6 4 12 3 16 -3l31 -39c5 -6 4 -12 -2 -17c-50 -41 -115 -72 -199 -72zM133 185c0 -75 48 -123 137 -123c90 0 138 47 138 123v144c0 76 -48 125 -138 125c-89 0 -137 -49 -137 -125v-144zM490 329v-42h258v42c0 85 -56 125 -129 125c-75 0 -129 -39 -129 -125z" />
    <glyph glyph-name="p" unicode="p" horiz-adv-x="543" 
d="M76 492c57 22 130 36 194 36c130 0 223 -65 223 -217v-110c0 -135 -90 -212 -219 -212c-46 0 -90 12 -124 31v-199c0 -7 -4 -11 -12 -11h-59c-7 0 -11 4 -11 11v658c0 6 2 11 8 13zM269 62c90 0 141 42 141 139v110c0 105 -53 145 -142 145c-43 0 -87 -7 -118 -20v-338
c32 -22 73 -36 119 -36z" />
    <glyph glyph-name="thorn" unicode="&#xfe;" horiz-adv-x="544" 
d="M151 503c37 16 82 25 124 25c117 0 218 -58 218 -201v-139c0 -132 -101 -199 -219 -199c-42 0 -87 10 -123 28v-195c0 -7 -4 -12 -12 -12h-59c-7 0 -11 5 -11 12v882c0 7 4 11 11 11h59c8 0 12 -4 12 -11v-201zM268 62c76 0 142 35 142 127v136c0 97 -65 130 -143 130
c-41 0 -86 -11 -116 -25v-340c32 -17 76 -28 117 -28z" />
    <glyph glyph-name="q" unicode="q" horiz-adv-x="543" 
d="M50 311c0 152 93 217 223 217c64 0 136 -14 193 -36c7 -2 9 -7 9 -13v-658c0 -7 -4 -11 -11 -11h-59c-8 0 -12 4 -12 11v199c-35 -19 -78 -31 -124 -31c-129 0 -219 77 -219 212v110zM133 201c0 -97 51 -139 141 -139c46 0 87 14 119 36v339c-31 12 -75 19 -118 19
c-89 0 -142 -40 -142 -145v-110z" />
    <glyph glyph-name="r" unicode="r" horiz-adv-x="377" 
d="M138 0h-59c-7 0 -11 4 -11 11v467c0 6 2 11 8 13c50 24 112 37 171 37c33 0 67 -3 103 -8c7 -1 10 -6 10 -13v-49c0 -8 -4 -12 -12 -10c-28 4 -60 7 -90 7c-41 0 -81 -9 -108 -20v-424c0 -7 -4 -11 -12 -11z" />
    <glyph glyph-name="racute" unicode="&#x155;" horiz-adv-x="377" 
d="M138 0h-59c-7 0 -11 4 -11 11v467c0 6 2 11 8 13c50 24 112 37 171 37c33 0 67 -3 103 -8c7 -1 10 -6 10 -13v-49c0 -8 -4 -12 -12 -10c-28 4 -60 7 -90 7c-41 0 -81 -9 -108 -20v-424c0 -7 -4 -11 -12 -11zM214 597h-45c-9 0 -14 6 -9 14l81 133c3 4 9 7 14 7h63
c9 0 12 -6 6 -14l-96 -133c-3 -4 -8 -7 -14 -7z" />
    <glyph glyph-name="rcaron" unicode="&#x159;" horiz-adv-x="377" 
d="M138 0h-59c-7 0 -11 4 -11 11v467c0 6 2 11 8 13c50 24 112 37 171 37c33 0 67 -3 103 -8c7 -1 10 -6 10 -13v-49c0 -8 -4 -12 -12 -10c-28 4 -60 7 -90 7c-41 0 -81 -9 -108 -20v-424c0 -7 -4 -11 -12 -11zM74 751h50c6 0 10 -3 14 -7l78 -91l76 91c3 4 9 7 14 7h52
c9 0 12 -6 5 -14l-112 -133c-3 -4 -8 -7 -14 -7h-43c-5 0 -10 3 -14 7l-113 133c-6 8 -3 14 7 14z" />
    <glyph glyph-name="uni0157" unicode="&#x157;" horiz-adv-x="377" 
d="M138 0h-59c-7 0 -11 4 -11 11v467c0 6 2 11 8 13c50 24 112 37 171 37c33 0 67 -3 103 -8c7 -1 10 -6 10 -13v-49c0 -8 -4 -12 -12 -10c-28 4 -60 7 -90 7c-41 0 -81 -9 -108 -20v-424c0 -7 -4 -11 -12 -11zM97 -236h-36c-8 0 -12 4 -10 12l34 139c2 7 7 10 13 10h51
c8 0 11 -5 9 -13l-48 -139c-2 -6 -6 -9 -13 -9z" />
    <glyph glyph-name="s" unicode="s" horiz-adv-x="475" 
d="M441 146c0 -102 -86 -157 -203 -157c-69 0 -138 20 -198 64c-6 4 -6 10 -3 16l27 46c4 7 9 8 16 3c48 -36 103 -56 160 -56c67 0 118 28 118 80c0 56 -62 69 -118 80c-72 15 -195 43 -195 159c0 102 97 147 197 147c63 0 119 -16 174 -47c7 -3 8 -9 4 -15l-27 -45
c-3 -6 -9 -8 -15 -4c-41 22 -90 37 -140 37c-70 0 -112 -28 -112 -73c0 -55 59 -70 130 -84c80 -16 185 -39 185 -151z" />
    <glyph glyph-name="sacute" unicode="&#x15b;" horiz-adv-x="475" 
d="M441 146c0 -102 -86 -157 -203 -157c-69 0 -138 20 -198 64c-6 4 -6 10 -3 16l27 46c4 7 9 8 16 3c48 -36 103 -56 160 -56c67 0 118 28 118 80c0 56 -62 69 -118 80c-72 15 -195 43 -195 159c0 102 97 147 197 147c63 0 119 -16 174 -47c7 -3 8 -9 4 -15l-27 -45
c-3 -6 -9 -8 -15 -4c-41 22 -90 37 -140 37c-70 0 -112 -28 -112 -73c0 -55 59 -70 130 -84c80 -16 185 -39 185 -151zM227 597h-45c-9 0 -14 6 -9 14l81 133c3 4 9 7 14 7h63c9 0 12 -6 6 -14l-96 -133c-3 -4 -8 -7 -14 -7z" />
    <glyph glyph-name="scaron" unicode="&#x161;" horiz-adv-x="475" 
d="M441 146c0 -102 -86 -157 -203 -157c-69 0 -138 20 -198 64c-6 4 -6 10 -3 16l27 46c4 7 9 8 16 3c48 -36 103 -56 160 -56c67 0 118 28 118 80c0 56 -62 69 -118 80c-72 15 -195 43 -195 159c0 102 97 147 197 147c63 0 119 -16 174 -47c7 -3 8 -9 4 -15l-27 -45
c-3 -6 -9 -8 -15 -4c-41 22 -90 37 -140 37c-70 0 -112 -28 -112 -73c0 -55 59 -70 130 -84c80 -16 185 -39 185 -151zM97 751h50c6 0 10 -3 14 -7l78 -91l76 91c3 4 9 7 14 7h52c9 0 12 -6 5 -14l-112 -133c-3 -4 -8 -7 -14 -7h-43c-5 0 -10 3 -14 7l-113 133
c-6 8 -3 14 7 14z" />
    <glyph glyph-name="scedilla" unicode="&#x15f;" horiz-adv-x="475" 
d="M344 -122c0 -54 -47 -83 -116 -83c-19 0 -40 3 -58 9c-7 2 -9 7 -9 13v24c0 8 5 11 13 10c16 -5 32 -7 45 -7c33 0 60 10 60 39c0 23 -19 36 -63 37c-7 0 -11 2 -14 8c-1 2 -1 7 1 11l20 50c-64 3 -127 23 -183 64c-6 4 -6 10 -3 16l27 46c4 7 9 8 16 3
c48 -36 103 -56 160 -56c67 0 118 28 118 80c0 56 -62 69 -118 80c-72 15 -195 43 -195 159c0 102 97 147 197 147c63 0 119 -16 174 -47c7 -3 8 -9 4 -15l-27 -45c-3 -6 -9 -8 -15 -4c-41 22 -90 37 -140 37c-70 0 -112 -28 -112 -73c0 -55 59 -70 130 -84
c80 -16 185 -39 185 -151c0 -91 -69 -145 -166 -155l-17 -41c52 -3 86 -30 86 -72z" />
    <glyph glyph-name="uni0219" unicode="&#x219;" horiz-adv-x="475" 
d="M441 146c0 -102 -86 -157 -203 -157c-69 0 -138 20 -198 64c-6 4 -6 10 -3 16l27 46c4 7 9 8 16 3c48 -36 103 -56 160 -56c67 0 118 28 118 80c0 56 -62 69 -118 80c-72 15 -195 43 -195 159c0 102 97 147 197 147c63 0 119 -16 174 -47c7 -3 8 -9 4 -15l-27 -45
c-3 -6 -9 -8 -15 -4c-41 22 -90 37 -140 37c-70 0 -112 -28 -112 -73c0 -55 59 -70 130 -84c80 -16 185 -39 185 -151zM220 -236h-36c-8 0 -12 4 -10 12l34 139c2 7 7 10 13 10h51c8 0 11 -5 9 -13l-48 -139c-2 -6 -6 -9 -13 -9z" />
    <glyph glyph-name="germandbls" unicode="&#xdf;" horiz-adv-x="558" 
d="M486 529c0 -62 -25 -122 -85 -149c78 -31 114 -95 114 -175c0 -132 -96 -208 -216 -208c-30 0 -65 5 -97 16c-6 3 -9 7 -9 13v55c0 8 5 12 13 9c27 -9 59 -13 84 -13c82 0 142 46 142 131c0 81 -48 129 -136 129h-88c-7 0 -11 4 -11 12v51c0 8 4 12 11 12h85
c72 0 111 52 111 117c0 82 -43 126 -128 126c-82 0 -125 -44 -125 -136v-508c0 -7 -4 -11 -12 -11h-59c-7 0 -11 4 -11 11v508c0 138 90 207 207 207c121 0 210 -66 210 -197z" />
    <glyph glyph-name="t" unicode="t" horiz-adv-x="321" 
d="M148 170c0 -66 34 -105 96 -105c11 0 30 1 48 2c8 0 12 -4 12 -11v-53c0 -6 -3 -11 -10 -12c-18 -1 -41 -2 -54 -2c-100 0 -174 54 -174 177v466c0 8 4 12 12 12h52c6 0 10 -4 11 -11l7 -121h130c7 0 11 -4 11 -11v-50c0 -8 -4 -12 -11 -12h-130v-269z" />
    <glyph glyph-name="tbar" unicode="&#x167;" horiz-adv-x="326" 
d="M298 -9c-18 -1 -41 -2 -54 -2c-99 0 -173 54 -173 177v84h-43c-7 0 -12 4 -12 11v34c0 7 5 11 12 11h43v326c0 8 4 12 11 12h52c7 0 11 -4 11 -11l7 -121h130c7 0 12 -4 12 -11v-50c0 -8 -5 -12 -12 -12h-129v-133h85c7 0 11 -4 11 -11v-34c0 -7 -4 -11 -11 -11h-85v-80
c0 -66 33 -105 95 -105c11 0 31 1 49 2c8 0 12 -4 12 -11v-53c0 -6 -4 -11 -11 -12z" />
    <glyph glyph-name="tcaron" unicode="&#x165;" horiz-adv-x="321" 
d="M293 -9c-17 -1 -40 -2 -53 -2c-100 0 -174 54 -174 177v466c0 8 4 12 12 12h52c6 0 10 -4 11 -11l7 -121h130c7 0 11 -4 11 -11v-50c0 -8 -4 -12 -11 -12h-130v-269c0 -66 34 -105 96 -105c11 0 30 1 48 2c8 0 12 -4 12 -11v-53c0 -6 -4 -11 -11 -12zM259 589h-36
c-8 0 -12 4 -10 12l35 135c1 7 6 10 13 10h50c8 0 12 -5 9 -13l-48 -135c-3 -6 -6 -9 -13 -9z" />
    <glyph glyph-name="uni0163" unicode="&#x163;" horiz-adv-x="321" 
d="M176 -236h-36c-8 0 -12 4 -10 12l34 139c2 7 7 10 13 10h51c8 0 11 -5 9 -13l-48 -139c-2 -6 -6 -9 -13 -9zM148 170c0 -66 34 -105 96 -105c11 0 30 1 48 2c8 0 12 -4 12 -11v-53c0 -6 -3 -11 -10 -12c-18 -1 -41 -2 -54 -2c-100 0 -174 54 -174 177v466c0 8 4 12 12 12
h52c6 0 10 -4 11 -11l7 -121h130c7 0 11 -4 11 -11v-50c0 -8 -4 -12 -11 -12h-130v-269z" />
    <glyph glyph-name="uni021B" unicode="&#x21b;" horiz-adv-x="321" 
d="M148 170c0 -66 34 -105 96 -105c11 0 30 1 48 2c8 0 12 -4 12 -11v-53c0 -6 -3 -11 -10 -12c-18 -1 -41 -2 -54 -2c-100 0 -174 54 -174 177v466c0 8 4 12 12 12h52c6 0 10 -4 11 -11l7 -121h130c7 0 11 -4 11 -11v-50c0 -8 -4 -12 -11 -12h-130v-269zM176 -236h-36
c-8 0 -12 4 -10 12l34 139c2 7 7 10 13 10h51c8 0 11 -5 9 -13l-48 -139c-2 -6 -6 -9 -13 -9z" />
    <glyph glyph-name="u" unicode="u" horiz-adv-x="551" 
d="M413 517h59c7 0 11 -5 11 -12v-463c0 -6 -2 -12 -8 -14c-56 -25 -121 -39 -189 -39c-131 0 -221 63 -221 216v300c0 7 4 12 12 12h59c7 0 11 -5 11 -12v-298c0 -105 52 -145 139 -145c42 0 84 8 115 19v424c0 7 4 12 12 12z" />
    <glyph glyph-name="uacute" unicode="&#xfa;" horiz-adv-x="551" 
d="M413 517h59c7 0 11 -5 11 -12v-463c0 -6 -2 -12 -8 -14c-56 -25 -121 -39 -189 -39c-131 0 -221 63 -221 216v300c0 7 4 12 12 12h59c7 0 11 -5 11 -12v-298c0 -105 52 -145 139 -145c42 0 84 8 115 19v424c0 7 4 12 12 12zM268 597h-45c-9 0 -14 6 -9 14l81 133
c3 4 9 7 14 7h63c9 0 12 -6 6 -14l-96 -133c-3 -4 -8 -7 -14 -7z" />
    <glyph glyph-name="ucircumflex" unicode="&#xfb;" horiz-adv-x="551" 
d="M413 517h59c7 0 11 -5 11 -12v-463c0 -6 -2 -12 -8 -14c-56 -25 -121 -39 -189 -39c-131 0 -221 63 -221 216v300c0 7 4 12 12 12h59c7 0 11 -5 11 -12v-298c0 -105 52 -145 139 -145c42 0 84 8 115 19v424c0 7 4 12 12 12zM185 597h-50c-10 0 -13 6 -7 14l113 133
c4 4 9 7 14 7h43c6 0 11 -3 14 -7l112 -133c7 -8 4 -14 -5 -14h-52c-5 0 -11 3 -14 7l-76 91l-78 -91c-4 -4 -8 -7 -14 -7z" />
    <glyph glyph-name="udieresis" unicode="&#xfc;" horiz-adv-x="551" 
d="M413 517h59c7 0 11 -5 11 -12v-463c0 -6 -2 -12 -8 -14c-56 -25 -121 -39 -189 -39c-131 0 -221 63 -221 216v300c0 7 4 12 12 12h59c7 0 11 -5 11 -12v-298c0 -105 52 -145 139 -145c42 0 84 8 115 19v424c0 7 4 12 12 12zM228 662c0 -29 -19 -47 -47 -47
c-27 0 -47 18 -47 47c0 30 20 48 47 48c28 0 47 -18 47 -48zM420 662c0 -29 -20 -47 -47 -47c-28 0 -48 18 -48 47c0 30 20 48 48 48c27 0 47 -18 47 -48z" />
    <glyph glyph-name="ugrave" unicode="&#xf9;" horiz-adv-x="551" 
d="M413 517h59c7 0 11 -5 11 -12v-463c0 -6 -2 -12 -8 -14c-56 -25 -121 -39 -189 -39c-131 0 -221 63 -221 216v300c0 7 4 12 12 12h59c7 0 11 -5 11 -12v-298c0 -105 52 -145 139 -145c42 0 84 8 115 19v424c0 7 4 12 12 12zM321 597h-45c-6 0 -11 3 -14 7l-96 133
c-6 8 -3 14 6 14h63c5 0 11 -3 14 -7l81 -133c5 -8 0 -14 -9 -14z" />
    <glyph glyph-name="uhungarumlaut" unicode="&#x171;" horiz-adv-x="551" 
d="M413 517h59c7 0 11 -5 11 -12v-463c0 -6 -2 -12 -8 -14c-56 -25 -121 -39 -189 -39c-131 0 -221 63 -221 216v300c0 7 4 12 12 12h59c7 0 11 -5 11 -12v-298c0 -105 52 -145 139 -145c42 0 84 8 115 19v424c0 7 4 12 12 12zM206 597h-36c-9 0 -13 6 -9 14l72 132
c4 5 8 8 14 8h50c9 0 12 -6 7 -14l-84 -133c-4 -5 -9 -7 -14 -7zM350 597h-36c-9 0 -12 6 -8 14l79 133c3 4 8 7 14 7h50c9 0 13 -6 8 -14l-93 -133c-3 -4 -8 -7 -14 -7z" />
    <glyph glyph-name="umacron" unicode="&#x16b;" horiz-adv-x="551" 
d="M413 517h59c7 0 11 -5 11 -12v-463c0 -6 -2 -12 -8 -14c-56 -25 -121 -39 -189 -39c-131 0 -221 63 -221 216v300c0 7 4 12 12 12h59c7 0 11 -5 11 -12v-298c0 -105 52 -145 139 -145c42 0 84 8 115 19v424c0 7 4 12 12 12zM141 631v43c0 7 4 12 11 12h252
c7 0 11 -5 11 -12v-43c0 -7 -4 -11 -11 -11h-252c-7 0 -11 4 -11 11z" />
    <glyph glyph-name="uogonek" unicode="&#x173;" horiz-adv-x="550" 
d="M452 -180c-25 -13 -56 -19 -85 -19c-65 0 -103 31 -103 83c0 44 30 82 77 111c-15 -3 -34 -6 -48 -6c-139 0 -228 64 -228 199v317c0 7 4 12 11 12h59c7 0 12 -5 12 -12v-317c0 -87 52 -126 143 -126c39 0 81 8 110 19v424c0 7 5 12 12 12h59c7 0 11 -5 11 -12v-465
c0 -6 -3 -11 -9 -13c-78 -31 -139 -71 -139 -118c0 -27 15 -37 46 -37c16 0 34 3 52 11c7 3 12 1 14 -7l13 -42c2 -7 0 -11 -7 -14z" />
    <glyph glyph-name="uring" unicode="&#x16f;" horiz-adv-x="551" 
d="M413 517h59c7 0 11 -5 11 -12v-463c0 -6 -2 -12 -8 -14c-56 -25 -121 -39 -189 -39c-131 0 -221 63 -221 216v300c0 7 4 12 12 12h59c7 0 11 -5 11 -12v-298c0 -105 52 -145 139 -145c42 0 84 8 115 19v424c0 7 4 12 12 12zM383 685c0 -64 -45 -102 -105 -102
c-63 0 -109 40 -109 103c0 62 46 102 109 102c60 0 105 -40 105 -103zM219 685c0 -32 24 -54 58 -54c33 0 56 22 56 54c0 33 -23 55 -56 55c-34 0 -58 -22 -58 -55z" />
    <glyph glyph-name="v" unicode="v" horiz-adv-x="500" 
d="M285 0h-73c-6 0 -10 3 -13 9l-183 494c-3 8 1 14 9 14h64c6 0 11 -4 13 -9l99 -285c16 -45 31 -91 48 -136h1c15 45 31 91 47 136l100 285c1 5 7 9 13 9h64c8 0 11 -6 9 -14l-184 -494c-3 -6 -7 -9 -14 -9z" />
    <glyph glyph-name="w" unicode="w" horiz-adv-x="756" 
d="M179 0c-7 0 -11 3 -12 10l-149 493c-2 8 1 14 9 14h62c6 0 11 -3 13 -10l66 -237c11 -42 35 -137 45 -177h2c13 54 27 113 42 162l76 243c2 7 6 10 12 10h66c6 0 10 -3 12 -10l76 -243c15 -49 30 -108 43 -162h1c10 39 34 135 45 177l67 237c1 7 6 10 12 10h62
c8 0 12 -6 9 -14l-148 -493c-2 -7 -6 -10 -13 -10h-70c-7 0 -11 3 -12 10l-84 272c-13 44 -24 92 -31 125h-3c-8 -33 -20 -81 -32 -125l-84 -272c-1 -7 -5 -10 -12 -10h-70z" />
    <glyph glyph-name="wacute" unicode="&#x1e83;" horiz-adv-x="756" 
d="M179 0c-7 0 -11 3 -12 10l-149 493c-2 8 1 14 9 14h62c6 0 11 -3 13 -10l66 -237c11 -42 35 -137 45 -177h2c13 54 27 113 42 162l76 243c2 7 6 10 12 10h66c6 0 10 -3 12 -10l76 -243c15 -49 30 -108 43 -162h1c10 39 34 135 45 177l67 237c1 7 6 10 12 10h62
c8 0 12 -6 9 -14l-148 -493c-2 -7 -6 -10 -13 -10h-70c-7 0 -11 3 -12 10l-84 272c-13 44 -24 92 -31 125h-3c-8 -33 -20 -81 -32 -125l-84 -272c-1 -7 -5 -10 -12 -10h-70zM371 597h-45c-9 0 -14 6 -9 14l81 133c3 4 9 7 14 7h63c9 0 12 -6 6 -14l-96 -133
c-3 -4 -8 -7 -14 -7z" />
    <glyph glyph-name="wcircumflex" unicode="&#x175;" horiz-adv-x="756" 
d="M179 0c-7 0 -11 3 -12 10l-149 493c-2 8 1 14 9 14h62c6 0 11 -3 13 -10l66 -237c11 -42 35 -137 45 -177h2c13 54 27 113 42 162l76 243c2 7 6 10 12 10h66c6 0 10 -3 12 -10l76 -243c15 -49 30 -108 43 -162h1c10 39 34 135 45 177l67 237c1 7 6 10 12 10h62
c8 0 12 -6 9 -14l-148 -493c-2 -7 -6 -10 -13 -10h-70c-7 0 -11 3 -12 10l-84 272c-13 44 -24 92 -31 125h-3c-8 -33 -20 -81 -32 -125l-84 -272c-1 -7 -5 -10 -12 -10h-70zM286 597h-50c-10 0 -13 6 -7 14l113 133c4 4 9 7 14 7h43c6 0 11 -3 14 -7l112 -133
c7 -8 4 -14 -5 -14h-52c-5 0 -11 3 -14 7l-76 91l-78 -91c-4 -4 -8 -7 -14 -7z" />
    <glyph glyph-name="wdieresis" unicode="&#x1e85;" horiz-adv-x="756" 
d="M317 662c0 -29 -19 -47 -47 -47c-27 0 -48 18 -48 47c0 30 21 48 48 48c28 0 47 -18 47 -48zM534 662c0 -29 -20 -47 -47 -47c-28 0 -48 18 -48 47c0 30 20 48 48 48c27 0 47 -18 47 -48zM179 0c-7 0 -11 3 -12 10l-149 493c-2 8 1 14 9 14h62c6 0 11 -3 13 -10l66 -237
c11 -42 35 -137 45 -177h2c13 54 27 113 42 162l76 243c2 7 6 10 12 10h66c6 0 10 -3 12 -10l76 -243c15 -49 30 -108 43 -162h1c10 39 34 135 45 177l67 237c1 7 6 10 12 10h62c8 0 12 -6 9 -14l-148 -493c-2 -7 -6 -10 -13 -10h-70c-7 0 -11 3 -12 10l-84 272
c-13 44 -24 92 -31 125h-3c-8 -33 -20 -81 -32 -125l-84 -272c-1 -7 -5 -10 -12 -10h-70z" />
    <glyph glyph-name="wgrave" unicode="&#x1e81;" horiz-adv-x="756" 
d="M179 0c-7 0 -11 3 -12 10l-149 493c-2 8 1 14 9 14h62c6 0 11 -3 13 -10l66 -237c11 -42 35 -137 45 -177h2c13 54 27 113 42 162l76 243c2 7 6 10 12 10h66c6 0 10 -3 12 -10l76 -243c15 -49 30 -108 43 -162h1c10 39 34 135 45 177l67 237c1 7 6 10 12 10h62
c8 0 12 -6 9 -14l-148 -493c-2 -7 -6 -10 -13 -10h-70c-7 0 -11 3 -12 10l-84 272c-13 44 -24 92 -31 125h-3c-8 -33 -20 -81 -32 -125l-84 -272c-1 -7 -5 -10 -12 -10h-70zM419 597h-45c-6 0 -11 3 -14 7l-96 133c-6 8 -3 14 6 14h63c5 0 11 -3 14 -7l81 -133
c5 -8 0 -14 -9 -14z" />
    <glyph glyph-name="x" unicode="x" horiz-adv-x="487" 
d="M294 261l174 -247c5 -8 2 -14 -7 -14h-74c-5 0 -10 2 -13 7l-130 197l-130 -197c-3 -5 -8 -7 -14 -7h-74c-9 0 -12 6 -7 14l174 247l-163 242c-5 7 -2 14 7 14h70c6 0 11 -4 14 -8l123 -190l123 190c3 4 8 8 13 8h70c9 0 13 -7 8 -14z" />
    <glyph glyph-name="y" unicode="y" horiz-adv-x="551" 
d="M400 119v386c0 7 4 12 11 12h59c8 0 12 -5 12 -12v-491c0 -135 -66 -213 -211 -214c-82 0 -141 25 -193 69c-5 5 -5 10 -1 17l30 41c4 6 10 8 16 3c41 -31 88 -55 148 -56c86 1 132 42 129 145v23c-36 -15 -81 -26 -124 -26c-108 0 -212 64 -212 199v290c0 7 4 12 11 12
h59c8 0 12 -5 12 -12v-286c0 -92 63 -127 140 -127c42 0 84 10 114 27z" />
    <glyph glyph-name="yacute" unicode="&#xfd;" horiz-adv-x="551" 
d="M400 119v386c0 7 4 12 11 12h59c8 0 12 -5 12 -12v-491c0 -135 -66 -213 -211 -214c-82 0 -141 25 -193 69c-5 5 -5 10 -1 17l30 41c4 6 10 8 16 3c41 -31 88 -55 148 -56c86 1 132 42 129 145v23c-36 -15 -81 -26 -124 -26c-108 0 -212 64 -212 199v290c0 7 4 12 11 12
h59c8 0 12 -5 12 -12v-286c0 -92 63 -127 140 -127c42 0 84 10 114 27zM269 597h-45c-9 0 -14 6 -9 14l81 133c3 4 9 7 14 7h63c9 0 12 -6 6 -14l-96 -133c-3 -4 -8 -7 -14 -7z" />
    <glyph glyph-name="ycircumflex" unicode="&#x177;" horiz-adv-x="551" 
d="M400 119v386c0 7 4 12 11 12h59c8 0 12 -5 12 -12v-491c0 -135 -66 -213 -211 -214c-82 0 -141 25 -193 69c-5 5 -5 10 -1 17l30 41c4 6 10 8 16 3c41 -31 88 -55 148 -56c86 1 132 42 129 145v23c-36 -15 -81 -26 -124 -26c-108 0 -212 64 -212 199v290c0 7 4 12 11 12
h59c8 0 12 -5 12 -12v-286c0 -92 63 -127 140 -127c42 0 84 10 114 27zM182 597h-50c-10 0 -13 6 -7 14l113 133c4 4 9 7 14 7h43c6 0 11 -3 14 -7l112 -133c7 -8 4 -14 -5 -14h-52c-5 0 -11 3 -14 7l-76 91l-78 -91c-4 -4 -8 -7 -14 -7z" />
    <glyph glyph-name="ydieresis" unicode="&#xff;" horiz-adv-x="551" 
d="M400 119v386c0 7 4 12 11 12h59c8 0 12 -5 12 -12v-491c0 -135 -66 -213 -211 -214c-82 0 -141 25 -193 69c-5 5 -5 10 -1 17l30 41c4 6 10 8 16 3c41 -31 88 -55 148 -56c86 1 132 42 129 145v23c-36 -15 -81 -26 -124 -26c-108 0 -212 64 -212 199v290c0 7 4 12 11 12
h59c8 0 12 -5 12 -12v-286c0 -92 63 -127 140 -127c42 0 84 10 114 27zM225 662c0 -29 -19 -47 -47 -47c-27 0 -47 18 -47 47c0 30 20 48 47 48c28 0 47 -18 47 -48zM417 662c0 -29 -20 -47 -47 -47c-28 0 -48 18 -48 47c0 30 20 48 48 48c27 0 47 -18 47 -48z" />
    <glyph glyph-name="ygrave" unicode="&#x1ef3;" horiz-adv-x="551" 
d="M400 119v386c0 7 4 12 11 12h59c8 0 12 -5 12 -12v-491c0 -135 -66 -213 -211 -214c-82 0 -141 25 -193 69c-5 5 -5 10 -1 17l30 41c4 6 10 8 16 3c41 -31 88 -55 148 -56c86 1 132 42 129 145v23c-36 -15 -81 -26 -124 -26c-108 0 -212 64 -212 199v290c0 7 4 12 11 12
h59c8 0 12 -5 12 -12v-286c0 -92 63 -127 140 -127c42 0 84 10 114 27zM318 597h-45c-6 0 -11 3 -14 7l-96 133c-6 8 -3 14 6 14h63c5 0 11 -3 14 -7l81 -133c5 -8 0 -14 -9 -14z" />
    <glyph glyph-name="z" unicode="z" horiz-adv-x="467" 
d="M422 0h-380c-7 0 -11 4 -11 11v30c0 5 1 10 5 14l278 388h-257c-7 0 -11 5 -11 12v50c0 7 4 12 11 12h359c8 0 12 -5 12 -12v-27c0 -5 -2 -10 -5 -14l-280 -391h279c7 0 11 -4 11 -11v-51c0 -7 -4 -11 -11 -11z" />
    <glyph glyph-name="zacute" unicode="&#x17a;" horiz-adv-x="467" 
d="M422 0h-380c-7 0 -11 4 -11 11v30c0 5 1 10 5 14l278 388h-257c-7 0 -11 5 -11 12v50c0 7 4 12 11 12h359c8 0 12 -5 12 -12v-27c0 -5 -2 -10 -5 -14l-280 -391h279c7 0 11 -4 11 -11v-51c0 -7 -4 -11 -11 -11zM228 597h-45c-9 0 -14 6 -9 14l81 133c3 4 9 7 14 7h63
c9 0 12 -6 6 -14l-96 -133c-3 -4 -8 -7 -14 -7z" />
    <glyph glyph-name="zcaron" unicode="&#x17e;" horiz-adv-x="467" 
d="M422 0h-380c-7 0 -11 4 -11 11v30c0 5 1 10 5 14l278 388h-257c-7 0 -11 5 -11 12v50c0 7 4 12 11 12h359c8 0 12 -5 12 -12v-27c0 -5 -2 -10 -5 -14l-280 -391h279c7 0 11 -4 11 -11v-51c0 -7 -4 -11 -11 -11zM96 751h50c6 0 10 -3 14 -7l78 -91l76 91c3 4 9 7 14 7h52
c9 0 12 -6 5 -14l-112 -133c-3 -4 -8 -7 -14 -7h-43c-5 0 -10 3 -14 7l-113 133c-6 8 -3 14 7 14z" />
    <glyph glyph-name="zdotaccent" unicode="&#x17c;" horiz-adv-x="467" 
d="M422 0h-380c-7 0 -11 4 -11 11v30c0 5 1 10 5 14l278 388h-257c-7 0 -11 5 -11 12v50c0 7 4 12 11 12h359c8 0 12 -5 12 -12v-27c0 -5 -2 -10 -5 -14l-280 -391h279c7 0 11 -4 11 -11v-51c0 -7 -4 -11 -11 -11zM283 662c0 -28 -21 -50 -50 -50c-28 0 -50 22 -50 50
c0 29 22 50 50 50c29 0 50 -21 50 -50z" />
    <glyph glyph-name="a.ss01" horiz-adv-x="541" 
d="M397 57c-39 -44 -95 -68 -153 -68c-106 0 -194 60 -194 206v124c0 140 102 209 222 209c63 0 128 -14 192 -36c6 -2 9 -6 9 -13v-468c0 -7 -4 -11 -11 -11h-49c-7 0 -11 4 -12 11zM133 195c0 -93 41 -133 123 -133c44 0 96 22 135 65v311c-39 11 -83 17 -122 17
c-76 0 -136 -46 -136 -136v-124z" />
    <glyph glyph-name="aacute.ss01" horiz-adv-x="541" 
d="M266 598h-45c-9 0 -14 6 -9 14l81 133c3 4 9 7 14 7h63c9 0 12 -6 6 -14l-96 -133c-3 -4 -8 -7 -14 -7zM397 57c-39 -44 -95 -68 -153 -68c-106 0 -194 60 -194 206v124c0 140 102 209 222 209c63 0 128 -14 192 -36c6 -2 9 -6 9 -13v-468c0 -7 -4 -11 -11 -11h-49
c-7 0 -11 4 -12 11zM133 195c0 -93 41 -133 123 -133c44 0 96 22 135 65v311c-39 11 -83 17 -122 17c-76 0 -136 -46 -136 -136v-124z" />
    <glyph glyph-name="abreve.ss01" horiz-adv-x="541" 
d="M428 733c-9 -79 -63 -135 -155 -135c-91 0 -143 55 -153 134c-1 7 4 12 10 13l40 5c7 1 11 -2 13 -9c9 -51 38 -80 90 -80c54 0 83 29 92 80c1 7 5 10 13 9l39 -5c7 -1 12 -5 11 -12zM397 57c-39 -44 -95 -68 -153 -68c-106 0 -194 60 -194 206v124
c0 140 102 209 222 209c63 0 128 -14 192 -36c6 -2 9 -6 9 -13v-468c0 -7 -4 -11 -11 -11h-49c-7 0 -11 4 -12 11zM133 195c0 -93 41 -133 123 -133c44 0 96 22 135 65v311c-39 11 -83 17 -122 17c-76 0 -136 -46 -136 -136v-124z" />
    <glyph glyph-name="acircumflex.ss01" horiz-adv-x="541" 
d="M181 598h-50c-10 0 -13 6 -7 14l113 133c4 4 9 7 14 7h43c6 0 11 -3 14 -7l112 -133c7 -8 4 -14 -5 -14h-52c-5 0 -11 3 -14 7l-76 91l-78 -91c-4 -4 -8 -7 -14 -7zM397 57c-39 -44 -95 -68 -153 -68c-106 0 -194 60 -194 206v124c0 140 102 209 222 209
c63 0 128 -14 192 -36c6 -2 9 -6 9 -13v-468c0 -7 -4 -11 -11 -11h-49c-7 0 -11 4 -12 11zM133 195c0 -93 41 -133 123 -133c44 0 96 22 135 65v311c-39 11 -83 17 -122 17c-76 0 -136 -46 -136 -136v-124z" />
    <glyph glyph-name="adieresis.ss01" horiz-adv-x="541" 
d="M224 663c0 -29 -19 -47 -47 -47c-27 0 -47 18 -47 47c0 30 20 48 47 48c28 0 47 -18 47 -48zM416 663c0 -29 -20 -47 -47 -47c-28 0 -48 18 -48 47c0 30 20 48 48 48c27 0 47 -18 47 -48zM397 57c-39 -44 -95 -68 -153 -68c-106 0 -194 60 -194 206v124
c0 140 102 209 222 209c63 0 128 -14 192 -36c6 -2 9 -6 9 -13v-468c0 -7 -4 -11 -11 -11h-49c-7 0 -11 4 -12 11zM133 195c0 -93 41 -133 123 -133c44 0 96 22 135 65v311c-39 11 -83 17 -122 17c-76 0 -136 -46 -136 -136v-124z" />
    <glyph glyph-name="agrave.ss01" horiz-adv-x="541" 
d="M314 598h-45c-6 0 -11 3 -14 7l-96 133c-6 8 -3 14 6 14h63c5 0 11 -3 14 -7l81 -133c5 -8 0 -14 -9 -14zM397 57c-39 -44 -95 -68 -153 -68c-106 0 -194 60 -194 206v124c0 140 102 209 222 209c63 0 128 -14 192 -36c6 -2 9 -6 9 -13v-468c0 -7 -4 -11 -11 -11h-49
c-7 0 -11 4 -12 11zM133 195c0 -93 41 -133 123 -133c44 0 96 22 135 65v311c-39 11 -83 17 -122 17c-76 0 -136 -46 -136 -136v-124z" />
    <glyph glyph-name="amacron.ss01" horiz-adv-x="541" 
d="M137 632v43c0 7 4 12 11 12h252c7 0 11 -5 11 -12v-43c0 -7 -4 -11 -11 -11h-252c-7 0 -11 4 -11 11zM397 57c-39 -44 -95 -68 -153 -68c-106 0 -194 60 -194 206v124c0 140 102 209 222 209c63 0 128 -14 192 -36c6 -2 9 -6 9 -13v-468c0 -7 -4 -11 -11 -11h-49
c-7 0 -11 4 -12 11zM133 195c0 -93 41 -133 123 -133c44 0 96 22 135 65v311c-39 11 -83 17 -122 17c-76 0 -136 -46 -136 -136v-124z" />
    <glyph glyph-name="aogonek.ss01" horiz-adv-x="541" 
d="M495 -183c-23 -11 -59 -17 -86 -17c-56 0 -92 32 -92 81c0 45 33 87 87 122l-7 54c-39 -41 -94 -68 -156 -68c-101 0 -191 62 -191 206v124c0 140 100 209 225 209c58 0 125 -14 189 -36c6 -2 9 -6 9 -13v-465c0 -10 -7 -13 -21 -18c-41 -19 -63 -52 -63 -85
c0 -28 15 -39 42 -39c16 0 33 3 48 8c7 2 12 0 14 -8l9 -41c2 -7 0 -11 -7 -14zM133 195c0 -88 41 -132 119 -132c54 0 101 26 139 64v310c-39 12 -85 18 -117 18c-83 0 -141 -46 -141 -136v-124z" />
    <glyph glyph-name="aring.ss01" horiz-adv-x="541" 
d="M379 686c0 -64 -45 -102 -105 -102c-63 0 -109 40 -109 103c0 62 46 102 109 102c60 0 105 -40 105 -103zM215 686c0 -32 24 -54 58 -54c33 0 56 22 56 54c0 33 -23 55 -56 55c-34 0 -58 -22 -58 -55zM397 57c-39 -44 -95 -68 -153 -68c-106 0 -194 60 -194 206v124
c0 140 102 209 222 209c63 0 128 -14 192 -36c6 -2 9 -6 9 -13v-468c0 -7 -4 -11 -11 -11h-49c-7 0 -11 4 -12 11zM133 195c0 -93 41 -133 123 -133c44 0 96 22 135 65v311c-39 11 -83 17 -122 17c-76 0 -136 -46 -136 -136v-124z" />
    <glyph glyph-name="atilde.ss01" horiz-adv-x="541" 
d="M428 681c-10 -32 -41 -73 -85 -73c-23 0 -48 12 -71 24c-22 12 -41 24 -60 24c-21 0 -33 -16 -41 -34c-5 -9 -11 -7 -16 -5l-33 19c-7 4 -8 9 -5 15c12 31 41 70 84 70c25 0 50 -12 73 -25c19 -10 42 -23 61 -23c18 0 27 11 39 34c3 7 8 9 15 5l33 -18c7 -4 8 -8 6 -13z
M397 57c-39 -44 -95 -68 -153 -68c-106 0 -194 60 -194 206v124c0 140 102 209 222 209c63 0 128 -14 192 -36c6 -2 9 -6 9 -13v-468c0 -7 -4 -11 -11 -11h-49c-7 0 -11 4 -12 11zM133 195c0 -93 41 -133 123 -133c44 0 96 22 135 65v311c-39 11 -83 17 -122 17
c-76 0 -136 -46 -136 -136v-124z" />
    <glyph glyph-name="ae.ss01" horiz-adv-x="850" 
d="M792 61c-49 -41 -112 -72 -196 -72c-49 0 -97 22 -131 61l-3 -39c0 -7 -4 -11 -12 -11h-38c-7 0 -12 4 -12 11l-5 43c-38 -43 -94 -65 -157 -65c-101 0 -188 60 -188 206v124c0 140 100 209 219 209c50 0 108 -11 162 -56c38 28 95 56 167 56c107 0 206 -62 206 -199v-98
c0 -8 -3 -12 -11 -12h-323v-84c25 -46 55 -73 128 -73c69 0 112 27 151 56c6 4 12 3 16 -3l29 -38c5 -5 4 -11 -2 -16zM132 195c0 -93 40 -133 119 -133c48 0 99 24 136 73v265c-24 41 -83 55 -121 55c-74 0 -134 -46 -134 -136v-124zM470 400v-113h254v42
c0 85 -55 125 -126 125c-75 0 -108 -28 -128 -54z" />
    <glyph glyph-name="uni0410" unicode="&#x410;" horiz-adv-x="619" 
d="M85 0h-67c-8 0 -11 5 -9 13l249 693c2 6 6 9 12 9h79c6 0 11 -3 13 -9l248 -693c3 -8 -1 -13 -9 -13h-67c-6 0 -11 3 -13 9l-61 178h-300l-62 -178c-2 -6 -6 -9 -13 -9zM308 620l-122 -354h248l-122 354h-4z" />
    <glyph glyph-name="uni0411" unicode="&#x411;" horiz-adv-x="636" 
d="M175 432h172c165 0 246 -65 246 -214c0 -147 -97 -218 -241 -218h-251c-7 0 -12 4 -12 11v693c0 7 5 11 12 11h427c8 0 12 -4 12 -11v-56c0 -7 -4 -11 -12 -11h-353v-205zM175 78h174c99 0 157 40 157 140c0 92 -46 136 -158 136h-173v-276z" />
    <glyph glyph-name="uni0412" unicode="&#x412;" horiz-adv-x="637" 
d="M558 527c0 -68 -33 -121 -85 -146c74 -27 115 -91 115 -174c0 -130 -90 -207 -246 -207h-241c-8 0 -12 4 -12 11v693c0 7 4 11 12 11h242c143 0 215 -75 215 -188zM174 77h169c98 0 159 41 159 130c0 79 -48 132 -153 132h-175v-262zM472 527c0 68 -44 111 -129 111h-169
v-222h175c73 0 123 36 123 111z" />
    <glyph glyph-name="uni0413" unicode="&#x413;" horiz-adv-x="510" 
d="M163 0h-62c-7 0 -12 4 -12 11v693c0 7 5 11 12 11h385c8 0 12 -4 12 -11v-56c0 -7 -4 -11 -12 -11h-311v-626c0 -7 -5 -11 -12 -11z" />
    <glyph glyph-name="uni0403" unicode="&#x403;" horiz-adv-x="510" 
d="M163 0h-62c-7 0 -12 4 -12 11v693c0 7 5 11 12 11h385c8 0 12 -4 12 -11v-56c0 -7 -4 -11 -12 -11h-311v-626c0 -7 -5 -11 -12 -11zM408 925l-121 -133c-4 -5 -9 -7 -14 -7h-52c-9 0 -12 6 -7 14l105 133c3 5 8 7 13 7h70c9 0 13 -7 6 -14z" />
    <glyph glyph-name="uni0490" unicode="&#x490;" horiz-adv-x="493" 
d="M163 0h-62c-7 0 -12 4 -12 11v693c0 7 5 11 12 11h299v143c0 7 4 11 12 11h57c8 0 12 -4 12 -11v-210c0 -7 -4 -11 -12 -11h-294v-626c0 -7 -5 -11 -12 -11z" />
    <glyph glyph-name="uni0414" unicode="&#x414;" horiz-adv-x="687" 
d="M84 -137h-61c-8 0 -12 5 -12 12v193c0 7 4 11 12 11h28c73 25 101 146 125 624c0 8 5 12 12 12h377c8 0 12 -4 12 -11v-625h59c8 0 12 -4 12 -11v-193c0 -7 -4 -12 -12 -12h-61c-7 0 -12 5 -12 12v125h-467v-125c0 -7 -4 -12 -12 -12zM259 637
c-11 -329 -30 -486 -87 -558h319v558h-232z" />
    <glyph glyph-name="uni0415" unicode="&#x415;" 
d="M175 324v-246h344c7 0 11 -4 11 -11v-56c0 -7 -4 -11 -11 -11h-418c-8 0 -12 4 -12 11v693c0 7 4 11 12 11h404c7 0 11 -4 11 -11v-56c0 -7 -4 -11 -11 -11h-330v-234h307c7 0 11 -4 11 -12v-55c0 -8 -4 -12 -11 -12h-307z" />
    <glyph glyph-name="uni0401" unicode="&#x401;" 
d="M261 857c0 -29 -21 -50 -49 -50c-29 0 -50 21 -50 50s21 50 50 50c28 0 49 -21 49 -50zM465 857c0 -29 -21 -50 -50 -50c-30 0 -50 21 -50 50s20 50 50 50c29 0 50 -21 50 -50zM175 324v-246h344c7 0 11 -4 11 -11v-56c0 -7 -4 -11 -11 -11h-418c-8 0 -12 4 -12 11v693
c0 7 4 11 12 11h404c7 0 11 -4 11 -11v-56c0 -7 -4 -11 -11 -11h-330v-234h307c7 0 11 -4 11 -12v-55c0 -8 -4 -12 -11 -12h-307z" />
    <glyph glyph-name="uni0416" unicode="&#x416;" horiz-adv-x="917" 
d="M897 0h-81c-5 0 -10 2 -13 7l-239 326l-63 -71v-251c0 -7 -5 -11 -12 -11h-61c-8 0 -12 4 -12 11v251l-63 71l-239 -326c-3 -5 -8 -7 -14 -7h-80c-9 0 -13 6 -7 14l286 382l-265 305c-6 8 -3 14 7 14h79c5 0 11 -2 14 -7l282 -339v335c0 7 4 11 12 11h61
c7 0 12 -4 12 -11v-335c31 38 63 76 282 339c3 5 9 7 14 7h79c10 0 13 -6 6 -14l-264 -305l286 -382c6 -8 2 -14 -7 -14z" />
    <glyph glyph-name="uni0417" unicode="&#x417;" horiz-adv-x="590" 
d="M517 529c-1 -64 -34 -126 -102 -150c79 -28 121 -95 121 -172c0 -141 -108 -218 -254 -218c-112 0 -194 36 -249 86c-5 5 -6 11 -2 17l33 47c4 6 10 7 15 2c45 -40 112 -72 203 -72c99 0 166 54 166 138c0 69 -50 126 -171 126h-97c-7 0 -11 4 -11 11v55c0 7 4 11 11 11
h100c102 0 150 56 150 117c0 65 -53 119 -151 119c-88 0 -144 -29 -185 -65c-6 -5 -12 -5 -17 2l-32 45c-4 6 -3 12 1 17c54 48 128 81 233 81c147 0 239 -90 238 -197z" />
    <glyph glyph-name="uni0418" unicode="&#x418;" horiz-adv-x="704" 
d="M603 0h-61c-7 0 -12 4 -12 11v303c0 79 3 181 6 260l-2 2c-25 -48 -58 -105 -87 -152l-263 -417c-3 -5 -8 -7 -14 -7h-70c-7 0 -11 4 -11 11v693c0 7 4 11 11 11h62c7 0 11 -4 11 -11v-303c0 -84 -2 -186 -6 -269l3 -3c25 47 57 100 84 146l265 432c3 5 9 8 14 8h70
c8 0 12 -4 12 -11v-693c0 -7 -4 -11 -12 -11z" />
    <glyph glyph-name="uni0419" unicode="&#x419;" horiz-adv-x="704" 
d="M519 910c-10 -81 -66 -138 -163 -138s-152 57 -163 137c-1 7 3 11 10 13l44 11c7 1 11 -1 13 -9c9 -53 40 -84 96 -84s88 31 96 84c2 8 6 10 13 9l44 -11c7 -2 11 -6 10 -12zM542 0h61c8 0 12 4 12 11v693c0 7 -4 11 -12 11h-70c-5 0 -11 -3 -14 -8l-265 -432
c-27 -46 -59 -99 -84 -146l-3 1c4 83 6 187 6 271v303c0 7 -4 11 -11 11h-62c-7 0 -11 -4 -11 -11v-693c0 -7 4 -11 11 -11h70c6 0 11 2 14 7l263 417c29 47 62 104 87 152l2 -1c-3 -79 -6 -182 -6 -261v-303c0 -7 5 -11 12 -11z" />
    <glyph glyph-name="uni041A" unicode="&#x41a;" horiz-adv-x="614" 
d="M163 0h-62c-8 0 -12 4 -12 11v693c0 7 4 11 12 11h62c7 0 11 -4 11 -11v-331l309 335c5 5 9 7 15 7h80c10 0 14 -7 7 -14l-287 -308l307 -379c6 -8 2 -14 -7 -14h-81c-6 0 -11 2 -14 7l-262 326l-67 -69v-253c0 -7 -4 -11 -11 -11z" />
    <glyph glyph-name="uni040C" unicode="&#x40c;" horiz-adv-x="614" 
d="M454 925l-121 -133c-4 -5 -9 -7 -14 -7h-52c-9 0 -12 6 -7 14l105 133c3 5 8 7 13 7h70c9 0 13 -7 6 -14zM163 0h-62c-8 0 -12 4 -12 11v693c0 7 4 11 12 11h62c7 0 11 -4 11 -11v-331l309 335c5 5 9 7 15 7h80c10 0 14 -7 7 -14l-287 -308l307 -379c6 -8 2 -14 -7 -14
h-81c-6 0 -11 2 -14 7l-262 326l-67 -69v-253c0 -7 -4 -11 -11 -11z" />
    <glyph glyph-name="uni041B" unicode="&#x41b;" horiz-adv-x="664" 
d="M212 220c-28 -163 -83 -220 -191 -223c-7 0 -11 4 -11 11v57c0 7 4 11 11 11c63 4 90 40 110 164c15 91 25 236 32 464c0 7 4 11 11 11h390c7 0 11 -4 11 -11v-693c0 -7 -4 -11 -11 -11h-63c-7 0 -11 4 -11 11v625h-246c-5 -190 -17 -324 -32 -416z" />
    <glyph glyph-name="uni041C" unicode="&#x41c;" horiz-adv-x="853" 
d="M163 0h-62c-8 0 -12 4 -12 11v693c0 7 4 11 12 11h76c5 0 10 -2 13 -8l155 -282c25 -46 62 -120 80 -158h3c18 38 55 112 80 157l156 283c2 6 7 8 13 8h76c7 0 11 -4 11 -11v-693c0 -7 -4 -11 -11 -11h-63c-7 0 -11 4 -11 11v302c0 84 3 186 6 271l-2 1
c-27 -54 -58 -113 -91 -176l-125 -232c-3 -5 -8 -8 -14 -8h-53c-6 0 -11 3 -13 8l-125 232c-34 63 -65 122 -91 176l-2 -1c2 -85 5 -187 5 -271v-302c0 -7 -4 -11 -11 -11z" />
    <glyph glyph-name="uni041D" unicode="&#x41d;" horiz-adv-x="682" 
d="M508 402v302c0 7 4 11 12 11h62c7 0 11 -4 11 -11v-693c0 -7 -4 -11 -11 -11h-62c-8 0 -12 4 -12 11v313h-334v-313c0 -7 -4 -11 -11 -11h-62c-8 0 -12 4 -12 11v693c0 7 4 11 12 11h62c7 0 11 -4 11 -11v-302h334z" />
    <glyph glyph-name="uni041E" unicode="&#x41e;" horiz-adv-x="674" 
d="M610 251c0 -161 -104 -262 -273 -262s-273 101 -273 262v211c0 164 104 264 273 264s273 -100 273 -264v-211zM150 251c0 -113 68 -181 187 -181s186 68 186 181v211c0 117 -67 185 -186 185s-187 -68 -187 -185v-211z" />
    <glyph glyph-name="uni041F" unicode="&#x41f;" horiz-adv-x="685" 
d="M164 0h-63c-7 0 -12 4 -12 11v693c0 7 5 11 12 11h483c8 0 12 -4 12 -11v-693c0 -7 -4 -11 -12 -11h-63c-7 0 -11 4 -11 11v626h-335v-626c0 -7 -4 -11 -11 -11z" />
    <glyph glyph-name="uni0420" unicode="&#x420;" horiz-adv-x="625" 
d="M100 715h241c158 0 248 -88 248 -234c0 -148 -91 -235 -248 -235h-167v-235c0 -7 -4 -11 -11 -11h-63c-7 0 -11 4 -11 11v693c0 7 4 11 11 11zM174 325h158c115 0 171 52 171 156c0 103 -56 155 -171 155h-158v-311z" />
    <glyph glyph-name="uni0421" unicode="&#x421;" horiz-adv-x="587" 
d="M555 65c-64 -53 -147 -76 -227 -76c-147 0 -263 83 -263 247v242c0 165 117 248 261 248c75 0 151 -24 213 -70c6 -4 6 -9 2 -15l-32 -47c-4 -6 -10 -6 -17 -2c-49 36 -110 54 -167 54c-113 0 -175 -66 -175 -168v-241c0 -102 63 -168 176 -168c65 0 131 21 184 62
c5 5 11 4 15 -3l33 -46c4 -7 4 -12 -3 -17z" />
    <glyph glyph-name="uni0422" unicode="&#x422;" horiz-adv-x="561" 
d="M23 715h514c7 0 12 -4 12 -11v-56c0 -7 -5 -11 -12 -11h-214v-626c0 -7 -5 -11 -12 -11h-62c-7 0 -12 4 -12 11v626h-214c-7 0 -11 4 -11 11v56c0 7 4 11 11 11z" />
    <glyph glyph-name="uni0423" unicode="&#x423;" horiz-adv-x="546" 
d="M219 0h-69c-8 0 -11 6 -8 13l98 214l-232 475c-3 7 0 13 8 13h70c6 0 11 -2 14 -9l183 -390l166 390c2 6 6 9 13 9h69c8 0 12 -6 9 -13l-307 -693c-3 -6 -8 -9 -14 -9z" />
    <glyph glyph-name="uni040E" unicode="&#x40e;" horiz-adv-x="546" 
d="M219 0h-69c-8 0 -11 6 -8 13l98 214l-232 475c-3 7 0 13 8 13h70c6 0 11 -2 14 -9l183 -390l166 390c2 6 6 9 13 9h69c8 0 12 -6 9 -13l-307 -693c-3 -6 -8 -9 -14 -9zM438 910c-10 -81 -66 -138 -163 -138s-152 57 -163 137c-1 7 3 11 10 13l44 11c7 1 11 -1 13 -9
c9 -53 40 -84 96 -84s88 31 96 84c2 8 6 10 13 9l44 -11c7 -2 11 -6 10 -12z" />
    <glyph glyph-name="uni0424" unicode="&#x424;" horiz-adv-x="857" 
d="M460 -66h-63c-7 0 -11 4 -11 11v77h-59c-133 0 -265 79 -265 271v126c0 192 132 270 265 270h59v71c0 7 4 12 11 12h63c7 0 11 -5 11 -12v-71h59c133 0 265 -78 265 -270v-126c0 -192 -132 -271 -265 -271h-59v-77c0 -7 -4 -11 -11 -11zM150 293c0 -138 87 -191 181 -191
h55v507h-55c-94 0 -181 -48 -181 -190v-126zM471 609v-507h55c94 0 182 53 182 191v126c0 142 -88 190 -182 190h-55z" />
    <glyph glyph-name="uni0425" unicode="&#x425;" horiz-adv-x="590" 
d="M345 359l224 -345c5 -7 2 -14 -7 -14h-77c-6 0 -11 3 -14 8l-175 284l-176 -284c-3 -5 -8 -8 -14 -8h-77c-9 0 -13 7 -8 14l225 345l-214 342c-5 7 -1 14 8 14h76c5 0 10 -3 13 -8l167 -279l166 279c3 5 8 8 13 8h76c8 0 12 -7 7 -14z" />
    <glyph glyph-name="uni0427" unicode="&#x427;" horiz-adv-x="630" 
d="M529 0h-63c-7 0 -11 4 -11 11v271c-50 -22 -102 -35 -155 -35c-145 0 -248 78 -248 233v224c0 7 4 11 11 11h64c7 0 11 -4 11 -11v-220c0 -109 73 -157 169 -157c51 0 104 14 148 37v340c0 7 4 11 11 11h63c8 0 12 -4 12 -11v-693c0 -7 -4 -11 -12 -11z" />
    <glyph glyph-name="uni0426" unicode="&#x426;" horiz-adv-x="697" 
d="M647 -131h-59c-7 0 -11 4 -11 11v120h-476c-8 0 -12 4 -12 11v693c0 7 4 11 12 11h62c7 0 11 -4 11 -11v-625h328v625c0 7 4 11 11 11h62c8 0 12 -4 12 -11v-625h60c7 0 12 -4 12 -11v-188c0 -7 -5 -11 -12 -11z" />
    <glyph glyph-name="uni0428" unicode="&#x428;" horiz-adv-x="954" 
d="M854 0h-754c-7 0 -11 4 -11 11v693c0 7 4 11 11 11h63c7 0 12 -4 12 -11v-625h259v625c0 7 4 11 11 11h63c8 0 12 -4 12 -11v-625h259v625c0 7 5 11 12 11h63c7 0 11 -4 11 -11v-693c0 -7 -4 -11 -11 -11z" />
    <glyph glyph-name="uni0429" unicode="&#x429;" horiz-adv-x="974" 
d="M925 -131h-59c-7 0 -12 4 -12 11v120h-753c-8 0 -12 4 -12 11v693c0 7 4 11 12 11h63c7 0 11 -4 11 -11v-625h259v625c0 7 4 11 11 11h63c7 0 12 -4 12 -11v-625h258v625c0 7 5 11 12 11h63c7 0 11 -4 11 -11v-625h61c7 0 11 -4 11 -11v-188c0 -7 -4 -11 -11 -11z" />
    <glyph glyph-name="uni040F" unicode="&#x40f;" horiz-adv-x="684" 
d="M521 715h63c7 0 11 -4 11 -11v-693c0 -7 -4 -11 -11 -11h-201v-123c0 -7 -4 -12 -11 -12h-59c-7 0 -11 5 -11 12v123h-201c-7 0 -12 4 -12 11v693c0 7 5 11 12 11h62c7 0 12 -4 12 -11v-626h335v626c0 7 4 11 11 11z" />
    <glyph glyph-name="uni042C" unicode="&#x42c;" horiz-adv-x="617" 
d="M337 0h-236c-7 0 -12 4 -12 11v693c0 7 5 11 12 11h63c7 0 11 -4 11 -11v-247h158c159 0 249 -84 249 -226c0 -146 -89 -231 -245 -231zM175 377v-297h162c107 0 157 50 157 151c0 97 -50 146 -157 146h-162z" />
    <glyph glyph-name="uni042A" unicode="&#x42a;" horiz-adv-x="692" 
d="M412 0h-236c-7 0 -11 4 -11 11v624h-138c-7 0 -11 4 -11 12v57c0 7 4 11 11 11h212c7 0 12 -4 12 -11v-248h157c157 0 249 -74 249 -225c0 -150 -96 -231 -245 -231zM251 377v-297h162c100 0 156 47 156 151c0 92 -49 146 -160 146h-158z" />
    <glyph glyph-name="uni042B" unicode="&#x42b;" horiz-adv-x="874" 
d="M337 0h-236c-7 0 -12 4 -12 11v693c0 7 5 11 12 11h63c7 0 11 -4 11 -11v-247h158c159 0 249 -84 249 -227c0 -145 -89 -230 -245 -230zM774 0h-63c-8 0 -12 4 -12 11v693c0 7 4 11 12 11h63c7 0 11 -4 11 -11v-693c0 -7 -4 -11 -11 -11zM175 377v-297h162
c107 0 157 50 157 150c0 97 -50 147 -157 147h-162z" />
    <glyph glyph-name="uni0409" unicode="&#x409;" horiz-adv-x="997" 
d="M208 156c-33 -118 -90 -160 -188 -159c-7 0 -11 4 -11 11v57c0 7 4 11 11 11c57 1 90 27 110 116c22 88 33 243 44 511c1 8 5 12 12 12h374c7 0 11 -4 11 -11v-254h142c157 0 249 -74 249 -224c0 -147 -96 -226 -245 -226h-220c-8 0 -12 4 -12 11v625h-228
c-8 -229 -20 -382 -49 -480zM571 370v-290h146c101 0 157 45 157 146c0 92 -49 144 -160 144h-143z" />
    <glyph glyph-name="uni040A" unicode="&#x40a;" horiz-adv-x="990" 
d="M163 0h-63c-7 0 -11 4 -11 11v693c0 7 4 11 11 11h63c8 0 12 -4 12 -11v-276h311v276c0 7 4 11 11 11h63c8 0 12 -4 12 -11v-276h134c160 0 251 -67 251 -211c0 -141 -99 -217 -246 -217h-214c-7 0 -11 4 -11 11v338h-311v-338c0 -7 -4 -11 -12 -11zM572 348v-268h140
c97 0 157 42 157 137c0 85 -51 131 -162 131h-135z" />
    <glyph glyph-name="uni0405" unicode="&#x405;" horiz-adv-x="612" 
d="M567 194c0 -143 -121 -205 -262 -205c-99 0 -171 31 -250 95c-6 5 -6 10 -2 16l34 47c4 6 10 7 15 3c69 -52 131 -79 206 -80c91 0 173 38 173 122c0 83 -73 109 -187 134c-121 27 -239 78 -239 211c0 132 118 189 255 189c89 0 157 -25 233 -80c7 -4 7 -10 3 -15
l-33 -47c-4 -6 -10 -6 -16 -2c-61 42 -125 63 -194 65c-95 0 -162 -39 -162 -112c0 -76 70 -103 175 -127c133 -30 251 -72 251 -214z" />
    <glyph glyph-name="uni0404" unicode="&#x404;" horiz-adv-x="591" 
d="M555 65c-64 -53 -147 -76 -227 -76c-147 0 -263 82 -263 247v242c0 165 117 248 261 248c75 0 151 -24 213 -70c6 -4 6 -9 2 -15l-32 -47c-4 -6 -10 -6 -17 -2c-49 36 -110 54 -167 54c-113 0 -175 -66 -175 -168v-82h273c7 0 12 -4 12 -12v-57c0 -8 -5 -12 -12 -12h-273
v-78c0 -102 63 -168 176 -168c65 0 131 21 184 62c5 5 11 4 15 -3l33 -46c4 -7 4 -12 -3 -17z" />
    <glyph glyph-name="uni042D" unicode="&#x42d;" horiz-adv-x="591" 
d="M36 65c-7 5 -7 10 -3 17l33 46c4 7 10 8 15 3c53 -41 119 -62 184 -62c113 0 176 66 176 168v78h-273c-7 0 -12 4 -12 12v57c0 8 5 12 12 12h273v82c0 102 -62 168 -175 168c-57 0 -118 -18 -167 -54c-7 -4 -13 -4 -17 2l-32 47c-4 6 -4 11 2 15c62 46 138 70 213 70
c144 0 261 -83 261 -248v-242c0 -165 -116 -247 -263 -247c-80 0 -163 23 -227 76z" />
    <glyph glyph-name="uni0406" unicode="&#x406;" horiz-adv-x="263" 
d="M174 704v-693c0 -7 -4 -11 -11 -11h-62c-8 0 -12 4 -12 11v693c0 7 4 11 12 11h62c7 0 11 -4 11 -11z" />
    <glyph glyph-name="uni0407" unicode="&#x407;" horiz-adv-x="263" 
d="M174 704v-693c0 -7 -4 -11 -11 -11h-63c-7 0 -11 4 -11 11v693c0 7 4 11 11 11h63c7 0 11 -4 11 -11zM93 857c0 -29 -21 -49 -49 -49c-29 0 -49 20 -49 49s20 50 49 50c28 0 49 -21 49 -50zM270 857c0 -29 -21 -49 -50 -49s-50 20 -50 49s21 50 50 50s50 -21 50 -50z" />
    <glyph glyph-name="uni0408" unicode="&#x408;" horiz-adv-x="506" 
d="M421 228c0 -155 -87 -239 -209 -239c-81 0 -139 28 -197 78c-6 4 -6 10 -2 16l28 46c4 7 10 7 16 2c47 -37 93 -61 155 -61c77 0 124 48 124 159v475c0 7 4 11 12 11h62c7 0 11 -4 11 -11v-476z" />
    <glyph glyph-name="uni040B" unicode="&#x40b;" horiz-adv-x="716" 
d="M318 495c35 14 77 24 124 24c125 0 219 -63 219 -218v-290c0 -7 -4 -11 -11 -11h-62c-6 0 -10 4 -11 11v284c0 109 -51 147 -140 147c-45 0 -87 -10 -119 -26v-405c0 -7 -5 -11 -12 -11h-62c-7 0 -12 4 -12 11v626h-209c-7 0 -11 4 -11 11v56c0 7 4 11 11 11h503
c7 0 12 -4 12 -11v-56c0 -7 -5 -11 -12 -11h-208v-142z" />
    <glyph glyph-name="uni042E" unicode="&#x42e;" horiz-adv-x="904" 
d="M839 237c0 -165 -122 -248 -262 -248c-141 0 -263 83 -263 248v90h-140v-316c0 -7 -4 -11 -11 -11h-63c-7 0 -11 4 -11 11v693c0 7 4 11 11 11h63c7 0 11 -4 11 -11v-298h140v71c0 167 122 249 263 249c140 0 262 -82 262 -249v-240zM401 237c0 -111 79 -168 176 -168
c96 0 175 57 175 168v240c0 117 -78 169 -175 169c-98 0 -176 -52 -176 -169v-240z" />
    <glyph glyph-name="uni042F" unicode="&#x42f;" horiz-adv-x="644" 
d="M55 491c0 140 91 224 246 224h242c7 0 11 -4 11 -11v-693c0 -7 -4 -11 -11 -11h-62c-8 0 -12 4 -12 11v259h-140l-192 -263c-4 -5 -9 -7 -14 -7h-80c-9 0 -13 6 -7 14l200 264c-113 19 -181 95 -181 213zM302 349h167v286h-167c-104 0 -160 -51 -160 -145
c0 -92 56 -141 160 -141z" />
    <glyph glyph-name="uni0402" unicode="&#x402;" horiz-adv-x="716" 
d="M322 495c36 14 77 24 125 24c125 0 219 -63 219 -218v-128c0 -120 -55 -184 -152 -184c-16 0 -34 1 -49 3c-7 1 -11 6 -11 13v52c0 7 5 12 13 11c13 -1 27 -2 39 -2c50 0 75 28 75 106v123c0 109 -50 147 -139 147c-44 0 -87 -10 -120 -26v-405c0 -7 -4 -11 -11 -11h-63
c-7 0 -11 4 -11 11v626h-214c-7 0 -11 4 -11 11v56c0 7 4 11 11 11h513c8 0 12 -4 12 -11v-56c0 -7 -4 -11 -12 -11h-214v-142z" />
    <glyph glyph-name="uni0414.loclBGR" horiz-adv-x="675" 
d="M90 -137h-62c-7 0 -11 5 -11 12v193c0 8 4 12 11 12h48l200 625c2 7 7 10 13 10h98c6 0 11 -3 13 -10l199 -625h48c7 0 11 -4 11 -12v-193c0 -7 -4 -12 -11 -12h-66c-8 0 -12 5 -12 12v125h-468v-125c0 -7 -4 -12 -11 -12zM336 618l-170 -538h343l-169 538h-4z" />
    <glyph glyph-name="uni041B.loclBGR" horiz-adv-x="624" 
d="M86 0h-68c-8 0 -11 5 -9 13l248 693c2 6 7 9 13 9h85c6 0 11 -3 13 -9l247 -693c3 -8 -1 -13 -9 -13h-67c-7 0 -12 3 -13 9l-149 425l-63 187h-3l-63 -186l-149 -426c-2 -6 -7 -9 -13 -9z" />
    <glyph glyph-name="uni0430" unicode="&#x430;" horiz-adv-x="511" 
d="M61 476c47 32 112 52 189 52c123 0 199 -65 199 -194v-300c0 -6 -3 -11 -9 -13c-47 -17 -118 -32 -193 -32c-112 0 -215 45 -215 164c0 106 87 159 215 159c41 0 86 -6 120 -12v32c0 81 -33 122 -120 122c-56 0 -107 -16 -142 -37c-6 -4 -11 -3 -15 3l-29 42
c-3 6 -4 10 0 14zM114 153c0 -60 56 -91 133 -91c45 0 90 9 120 18v150c-32 6 -79 12 -120 12c-91 0 -133 -34 -133 -89z" />
    <glyph glyph-name="uni0431" unicode="&#x431;" horiz-adv-x="541" 
d="M147 456c37 22 87 35 136 35c123 0 209 -70 209 -206v-90c0 -139 -99 -206 -215 -206c-113 0 -212 67 -212 206v308c0 124 99 188 194 206c37 8 113 16 158 40c6 3 12 2 15 -5l25 -44c3 -6 2 -12 -4 -15c-45 -25 -122 -37 -164 -47c-76 -17 -142 -53 -142 -137v-45z
M277 62c73 0 132 43 132 133v88c0 87 -45 136 -131 136c-43 0 -95 -13 -131 -36v-188c0 -90 58 -133 130 -133z" />
    <glyph glyph-name="uni0432" unicode="&#x432;" horiz-adv-x="524" 
d="M284 0h-204c-7 0 -11 4 -11 11v494c0 7 4 12 11 12h204c115 0 178 -59 178 -135c0 -55 -30 -91 -75 -109c64 -23 94 -66 94 -130c0 -83 -74 -143 -197 -143zM151 449v-151h130c60 0 99 27 99 77c0 46 -34 74 -99 74h-130zM151 234v-167h130c78 0 117 30 117 85
c0 57 -44 82 -117 82h-130z" />
    <glyph glyph-name="uni0433" unicode="&#x433;" horiz-adv-x="406" 
d="M139 0h-59c-7 0 -11 4 -11 11v494c0 7 4 12 11 12h299c7 0 11 -5 11 -12v-50c0 -7 -4 -12 -11 -12h-228v-432c0 -7 -4 -11 -12 -11z" />
    <glyph glyph-name="uni0453" unicode="&#x453;" horiz-adv-x="406" 
d="M139 0h-59c-7 0 -11 4 -11 11v494c0 7 4 12 11 12h299c7 0 11 -5 11 -12v-50c0 -7 -4 -12 -11 -12h-228v-432c0 -7 -4 -11 -12 -11zM221 597h-45c-9 0 -14 6 -9 14l81 133c3 4 9 7 14 7h63c9 0 12 -6 6 -14l-96 -133c-3 -4 -8 -7 -14 -7z" />
    <glyph glyph-name="uni0491" unicode="&#x491;" horiz-adv-x="406" 
d="M315 517v108c0 7 4 11 11 11h53c7 0 11 -4 11 -11v-170c0 -7 -4 -12 -11 -12h-228v-432c0 -7 -4 -11 -12 -11h-59c-7 0 -11 4 -11 11v494c0 7 4 12 11 12h235z" />
    <glyph glyph-name="uni0434" unicode="&#x434;" horiz-adv-x="574" 
d="M86 -137h-56c-7 0 -11 5 -11 12v187c0 7 4 11 11 11h22c45 27 68 108 89 432c0 7 5 12 11 12h319c8 0 12 -5 12 -12v-432h52c8 0 12 -4 12 -11v-187c0 -7 -4 -12 -12 -12h-55c-8 0 -12 5 -12 12v125h-371v-125c0 -7 -4 -12 -11 -12zM217 443c-12 -211 -33 -326 -74 -370
h258v370h-184z" />
    <glyph glyph-name="uni0435" unicode="&#x435;" horiz-adv-x="518" 
d="M472 329v-98c0 -8 -4 -12 -11 -12h-327v-42c0 -75 56 -115 130 -115c69 0 116 27 153 56c6 4 12 3 16 -3l29 -38c5 -6 4 -11 -2 -16c-50 -42 -114 -72 -198 -72c-108 0 -211 62 -211 188v152c0 137 102 199 212 199c109 0 209 -62 209 -199zM392 329
c0 85 -56 125 -129 125c-75 0 -129 -39 -129 -125v-42h258v42z" />
    <glyph glyph-name="uni0451" unicode="&#x451;" horiz-adv-x="518" 
d="M212 662c0 -29 -19 -47 -47 -47c-27 0 -47 18 -47 47c0 30 20 48 47 48c28 0 47 -18 47 -48zM404 662c0 -29 -20 -47 -47 -47c-28 0 -48 18 -48 47c0 30 20 48 48 48c27 0 47 -18 47 -48zM472 329v-98c0 -8 -4 -12 -11 -12h-327v-42c0 -75 56 -115 130 -115
c69 0 116 27 153 56c6 4 12 3 16 -3l29 -38c5 -6 4 -11 -2 -16c-50 -42 -114 -72 -198 -72c-108 0 -211 62 -211 188v152c0 137 102 199 212 199c109 0 209 -62 209 -199zM392 329c0 85 -56 125 -129 125c-75 0 -129 -39 -129 -125v-42h258v42z" />
    <glyph glyph-name="uni0436" unicode="&#x436;" horiz-adv-x="730" 
d="M707 0h-71c-6 0 -11 2 -14 7l-159 229l-58 -65v-160c0 -7 -4 -11 -12 -11h-57c-7 0 -11 4 -11 11v160l-58 65l-159 -229c-4 -5 -9 -7 -14 -7h-71c-9 0 -12 6 -7 14l197 278l-179 211c-6 7 -3 14 6 14h72c5 0 11 -3 14 -8l199 -240v236c0 7 4 12 11 12h57
c8 0 12 -5 12 -12v-236l199 240c3 5 8 8 14 8h71c10 0 13 -7 7 -14l-180 -211l198 -278c5 -8 2 -14 -7 -14z" />
    <glyph glyph-name="uni0437" unicode="&#x437;" horiz-adv-x="482" 
d="M421 379c0 -52 -26 -85 -69 -106c59 -21 87 -64 87 -122c0 -93 -86 -162 -206 -162c-75 0 -139 16 -205 75c-6 5 -5 10 -1 15l31 39c5 5 11 6 17 1c44 -35 96 -57 155 -57c77 0 126 33 126 91c0 54 -41 82 -112 82h-100c-8 0 -12 4 -12 12v40c0 7 4 12 12 12h99
c59 0 96 30 96 78c0 53 -46 79 -111 79c-61 0 -109 -23 -142 -49c-5 -5 -12 -4 -16 2l-30 38c-4 6 -5 12 1 17c44 35 108 64 188 64c114 0 192 -64 192 -149z" />
    <glyph glyph-name="uni0438" unicode="&#x438;" horiz-adv-x="562" 
d="M151 0h-71c-7 0 -11 4 -11 11v494c0 7 4 12 11 12h59c7 0 11 -5 11 -12v-266c0 -34 -1 -87 -1 -122c16 29 67 118 88 150l161 242c3 5 8 8 14 8h70c7 0 11 -5 11 -12v-494c0 -7 -4 -11 -11 -11h-58c-8 0 -12 4 -12 11v258c0 34 1 89 2 125h-1c-16 -30 -63 -110 -86 -145
l-162 -242c-3 -5 -9 -7 -14 -7z" />
    <glyph glyph-name="uni0439" unicode="&#x439;" horiz-adv-x="562" 
d="M151 0h-71c-7 0 -11 4 -11 11v494c0 7 4 12 11 12h59c7 0 11 -5 11 -12v-266c0 -34 -1 -87 -1 -122c16 29 67 118 88 150l161 242c3 5 8 8 14 8h70c7 0 11 -5 11 -12v-494c0 -7 -4 -11 -11 -11h-58c-8 0 -12 4 -12 11v258c0 34 1 89 2 125h-1c-16 -30 -63 -110 -86 -145
l-162 -242c-3 -5 -9 -7 -14 -7zM432 733c-9 -79 -63 -135 -155 -135c-91 0 -143 55 -153 134c-1 7 4 12 10 13l40 5c7 1 11 -2 13 -9c9 -51 38 -80 90 -80c54 0 83 29 92 80c1 7 5 10 13 9l39 -5c7 -1 12 -5 11 -12z" />
    <glyph glyph-name="uni045D" unicode="&#x45d;" horiz-adv-x="562" 
d="M151 0h-71c-7 0 -11 4 -11 11v494c0 7 4 12 11 12h59c7 0 11 -5 11 -12v-266c0 -34 -1 -87 -1 -122c16 29 67 118 88 150l161 242c3 5 8 8 14 8h70c7 0 11 -5 11 -12v-494c0 -7 -4 -11 -11 -11h-58c-8 0 -12 4 -12 11v258c0 34 1 89 2 125h-1c-16 -30 -63 -110 -86 -145
l-162 -242c-3 -5 -9 -7 -14 -7zM321 598h-45c-6 0 -11 3 -14 7l-96 133c-6 8 -3 14 6 14h63c5 0 11 -3 14 -7l81 -133c5 -8 0 -14 -9 -14z" />
    <glyph glyph-name="uni043A" unicode="&#x43a;" horiz-adv-x="495" 
d="M480 0h-70c-6 0 -11 2 -15 7l-189 227l-57 -57v-166c0 -7 -5 -11 -12 -11h-57c-7 0 -11 4 -11 11v494c0 7 4 12 11 12h57c7 0 12 -5 12 -12v-227l230 233c4 5 9 6 14 6h72c9 0 13 -7 6 -14l-210 -212l226 -277c6 -8 2 -14 -7 -14z" />
    <glyph glyph-name="uni045C" unicode="&#x45c;" horiz-adv-x="495" 
d="M480 0h-70c-6 0 -11 2 -15 7l-189 227l-57 -57v-166c0 -7 -5 -11 -12 -11h-57c-7 0 -11 4 -11 11v494c0 7 4 12 11 12h57c7 0 12 -5 12 -12v-227l230 233c4 5 9 6 14 6h72c9 0 13 -7 6 -14l-210 -212l226 -277c6 -8 2 -14 -7 -14zM256 597h-45c-9 0 -14 6 -9 14l81 133
c3 4 9 7 14 7h63c9 0 12 -6 6 -14l-96 -133c-3 -4 -8 -7 -14 -7z" />
    <glyph glyph-name="uni043B" unicode="&#x43b;" horiz-adv-x="556" 
d="M190 178c-23 -136 -62 -179 -163 -182c-7 0 -11 4 -11 11v51c0 7 4 11 11 12c44 2 68 25 84 128c9 63 18 159 25 307c0 7 5 12 12 12h327c8 0 12 -5 12 -12v-494c0 -7 -4 -11 -12 -11h-59c-7 0 -11 4 -11 11v432h-192c-5 -117 -16 -210 -23 -265z" />
    <glyph glyph-name="uni043C" unicode="&#x43c;" horiz-adv-x="663" 
d="M139 0h-59c-7 0 -11 4 -11 11v494c0 7 4 12 11 12h68c5 0 10 -3 13 -8l115 -211c21 -39 38 -73 55 -107h1c16 34 33 68 54 107l116 211c2 5 7 8 13 8h67c8 0 12 -5 12 -12v-494c0 -7 -4 -11 -12 -11h-58c-7 0 -11 4 -11 11v239c0 46 0 94 1 138h-1
c-18 -38 -36 -76 -57 -114l-93 -173c-2 -6 -7 -8 -13 -8h-38c-5 0 -10 2 -13 8l-95 176c-20 38 -37 74 -55 111c0 -44 1 -92 1 -138v-239c0 -7 -4 -11 -11 -11z" />
    <glyph glyph-name="uni043D" unicode="&#x43d;" horiz-adv-x="546" 
d="M139 0h-59c-7 0 -11 4 -11 11v494c0 7 4 12 11 12h59c8 0 12 -5 12 -12v-200h244v200c0 7 4 12 11 12h59c7 0 12 -5 12 -12v-494c0 -7 -5 -11 -12 -11h-59c-7 0 -11 4 -11 11v221h-244v-221c0 -7 -4 -11 -12 -11z" />
    <glyph glyph-name="uni043E" unicode="&#x43e;" horiz-adv-x="540" 
d="M490 185c0 -117 -84 -196 -220 -196c-135 0 -220 79 -220 196v144c0 117 85 199 220 199c136 0 220 -82 220 -199v-144zM133 185c0 -75 48 -123 137 -123c90 0 138 48 138 123v144c0 76 -48 125 -138 125c-89 0 -137 -49 -137 -125v-144z" />
    <glyph glyph-name="uni043F" unicode="&#x43f;" horiz-adv-x="546" 
d="M81 517h385c7 0 11 -5 11 -12v-494c0 -7 -4 -11 -11 -11h-59c-8 0 -12 4 -12 11v432h-244v-432c0 -7 -4 -11 -11 -11h-59c-8 0 -12 4 -12 11v494c0 7 4 12 12 12z" />
    <glyph glyph-name="uni0440" unicode="&#x440;" horiz-adv-x="542" 
d="M76 492c57 22 130 36 194 36c130 0 223 -65 223 -217v-110c0 -135 -90 -212 -219 -212c-46 0 -90 12 -124 31v-199c0 -7 -4 -11 -12 -11h-59c-7 0 -11 4 -11 11v658c0 6 2 11 8 13zM269 62c90 0 141 42 141 139v110c0 105 -53 145 -142 145c-43 0 -87 -7 -118 -20v-338
c32 -22 73 -36 119 -36z" />
    <glyph glyph-name="uni0441" unicode="&#x441;" horiz-adv-x="470" 
d="M442 47c-52 -38 -107 -58 -177 -58c-133 0 -214 80 -214 193v152c0 114 82 194 213 194c59 0 113 -17 163 -50c7 -5 7 -11 3 -17l-26 -41c-4 -5 -10 -7 -16 -3c-37 24 -78 37 -122 37c-86 0 -133 -49 -133 -120v-152c0 -72 48 -120 132 -120c46 0 91 15 134 44
c6 5 12 4 16 -2l29 -41c4 -6 4 -12 -2 -16z" />
    <glyph glyph-name="uni0442" unicode="&#x442;" horiz-adv-x="449" 
d="M255 0h-60c-7 0 -11 4 -11 11v432h-156c-7 0 -12 5 -12 12v50c0 7 5 12 12 12h393c8 0 12 -5 12 -12v-50c0 -7 -4 -12 -12 -12h-155v-432c0 -7 -4 -11 -11 -11z" />
    <glyph glyph-name="uni0443" unicode="&#x443;" horiz-adv-x="551" 
d="M400 119v386c0 7 4 12 11 12h59c8 0 12 -5 12 -12v-491c0 -135 -66 -213 -211 -214c-82 0 -141 25 -193 69c-5 5 -5 10 -1 17l30 41c4 6 10 8 16 3c41 -31 88 -55 148 -56c86 1 132 42 129 145v23c-36 -15 -81 -26 -124 -26c-108 0 -212 64 -212 199v290c0 7 4 12 11 12
h59c8 0 12 -5 12 -12v-286c0 -92 63 -127 140 -127c42 0 84 10 114 27z" />
    <glyph glyph-name="uni045E" unicode="&#x45e;" horiz-adv-x="551" 
d="M428 732c-9 -79 -63 -135 -155 -135c-91 0 -143 55 -153 134c-1 7 4 12 10 13l40 5c7 1 11 -2 13 -9c9 -51 38 -80 90 -80c54 0 83 29 92 80c1 7 5 10 13 9l39 -5c7 -1 12 -5 11 -12zM400 119v386c0 7 4 12 11 12h59c8 0 12 -5 12 -12v-491c0 -135 -66 -213 -211 -214
c-82 0 -141 25 -193 69c-5 5 -5 10 -1 17l30 41c4 6 10 8 16 3c41 -31 88 -55 148 -56c86 1 132 42 129 145v23c-36 -15 -81 -26 -124 -26c-108 0 -212 64 -212 199v290c0 7 4 12 11 12h59c8 0 12 -5 12 -12v-286c0 -92 63 -127 140 -127c42 0 84 10 114 27z" />
    <glyph glyph-name="uni0444" unicode="&#x444;" horiz-adv-x="735" 
d="M397 -190h-59c-7 0 -11 4 -11 12v178h-80c-108 0 -197 65 -197 199v119c0 126 87 199 204 199h73v187c0 7 4 11 11 11h59c7 0 11 -4 11 -11v-187h80c118 0 197 -74 197 -199v-119c0 -134 -90 -199 -189 -199h-88v-178c0 -8 -4 -12 -11 -12zM132 201
c0 -85 43 -127 128 -127h67v369h-70c-80 0 -125 -42 -125 -128v-114zM408 74h67c85 0 129 42 129 127v114c0 86 -46 128 -125 128h-71v-369z" />
    <glyph glyph-name="uni0445" unicode="&#x445;" horiz-adv-x="487" 
d="M294 261l174 -247c5 -8 2 -14 -7 -14h-74c-5 0 -10 2 -13 7l-130 197l-130 -197c-3 -5 -8 -7 -14 -7h-74c-9 0 -12 6 -7 14l174 247l-163 242c-5 7 -2 14 7 14h70c6 0 11 -4 14 -8l123 -190l123 190c3 4 8 8 13 8h70c9 0 13 -7 8 -14z" />
    <glyph glyph-name="uni0447" unicode="&#x447;" horiz-adv-x="518" 
d="M438 0h-59c-8 0 -12 4 -12 11v175c-39 -15 -81 -24 -123 -24c-119 0 -200 63 -200 210v133c0 7 4 12 11 12h60c7 0 11 -5 11 -12v-131c0 -99 43 -138 119 -138c44 0 90 11 122 24v245c0 7 4 12 12 12h59c7 0 11 -5 11 -12v-494c0 -7 -4 -11 -11 -11z" />
    <glyph glyph-name="uni0446" unicode="&#x446;" horiz-adv-x="568" 
d="M527 -131h-53c-7 0 -12 4 -12 11v120h-382c-7 0 -11 4 -11 11v494c0 7 4 12 11 12h59c8 0 12 -5 12 -12v-431h244v431c0 7 4 12 11 12h59c7 0 12 -5 12 -12v-432h50c8 0 12 -4 12 -11v-182c0 -7 -4 -11 -12 -11z" />
    <glyph glyph-name="uni0448" unicode="&#x448;" horiz-adv-x="779" 
d="M699 0h-619c-7 0 -11 4 -11 11v494c0 8 4 12 11 12h59c7 0 11 -4 11 -12v-431h199v431c0 8 4 12 11 12h59c7 0 11 -4 11 -12v-431h199v431c0 8 4 12 11 12h59c7 0 11 -4 11 -12v-494c0 -7 -4 -11 -11 -11z" />
    <glyph glyph-name="uni0449" unicode="&#x449;" horiz-adv-x="801" 
d="M761 -131h-54c-7 0 -11 4 -11 11v120h-616c-7 0 -11 4 -11 11v494c0 8 4 12 11 12h59c7 0 11 -4 11 -12v-431h199v431c0 8 4 12 11 12h59c7 0 11 -4 11 -12v-431h199v431c0 8 4 12 11 12h59c7 0 11 -4 11 -12v-432h51c7 0 11 -4 11 -11v-182c0 -7 -4 -11 -11 -11z" />
    <glyph glyph-name="uni045F" unicode="&#x45f;" horiz-adv-x="546" 
d="M407 517h59c7 0 11 -5 11 -12v-494c0 -7 -4 -11 -11 -11h-155v-120c0 -7 -4 -11 -12 -11h-52c-7 0 -12 4 -12 11v120h-154c-8 0 -12 4 -12 11v494c0 7 4 12 12 12h59c7 0 11 -5 11 -12v-431h244v431c0 7 5 12 12 12z" />
    <glyph glyph-name="uni044C" unicode="&#x44c;" horiz-adv-x="507" 
d="M278 0h-198c-7 0 -11 4 -11 11v494c0 7 4 12 11 12h59c8 0 12 -5 12 -12v-161h127c122 0 199 -67 199 -175c0 -118 -77 -169 -199 -169zM151 274v-204h114c86 0 129 32 129 101c1 67 -42 103 -129 103h-114z" />
    <glyph glyph-name="uni044A" unicode="&#x44a;" horiz-adv-x="577" 
d="M348 0h-197c-8 0 -12 4 -12 11v433h-109c-8 0 -12 4 -12 12v49c0 7 4 12 12 12h180c7 0 11 -5 11 -12v-161h127c122 0 199 -67 199 -175c0 -118 -77 -169 -199 -169zM221 274v-204h115c86 0 129 32 129 101c0 67 -42 103 -129 103h-115z" />
    <glyph glyph-name="uni044B" unicode="&#x44b;" horiz-adv-x="691" 
d="M278 0h-198c-7 0 -11 4 -11 11v494c0 7 4 12 11 12h59c8 0 12 -5 12 -12v-161h127c122 0 199 -67 199 -175c0 -118 -77 -169 -199 -169zM151 274v-204h114c86 0 129 32 129 101c1 67 -42 103 -129 103h-114zM610 0h-59c-7 0 -11 4 -11 11v494c0 7 4 12 11 12h59
c8 0 12 -5 12 -12v-494c0 -7 -4 -11 -12 -11z" />
    <glyph glyph-name="uni0459" unicode="&#x459;" horiz-adv-x="839" 
d="M187 178c-23 -136 -60 -179 -161 -182c-7 0 -11 4 -11 11v51c0 7 4 11 11 12c43 2 66 25 83 128c10 63 18 159 26 307c0 7 5 12 12 12h326c7 0 11 -5 11 -12v-161h126c122 0 199 -67 199 -175c0 -118 -77 -169 -199 -169h-196c-7 0 -12 4 -12 11v432h-190
c-5 -117 -16 -210 -25 -265zM484 274v-204h113c87 0 129 32 129 101c1 67 -42 103 -129 103h-113z" />
    <glyph glyph-name="uni045A" unicode="&#x45a;" horiz-adv-x="819" 
d="M139 0h-59c-7 0 -11 4 -11 11v494c0 7 4 12 11 12h59c8 0 12 -5 12 -12v-180h237v180c0 7 4 12 11 12h59c7 0 12 -5 12 -12v-181h122c121 0 198 -59 198 -165c0 -108 -77 -159 -198 -159h-193c-7 0 -11 4 -11 11v240h-237v-240c0 -7 -4 -11 -12 -11zM470 254v-184h109
c84 0 128 29 128 94c0 59 -40 90 -128 90h-109z" />
    <glyph glyph-name="uni0455" unicode="&#x455;" horiz-adv-x="475" 
d="M441 146c0 -102 -86 -157 -203 -157c-69 0 -138 20 -198 64c-6 4 -6 10 -3 16l27 46c4 7 9 8 16 3c48 -36 103 -56 160 -56c67 0 118 28 118 80c0 56 -62 69 -118 80c-72 15 -195 43 -195 159c0 102 97 147 197 147c63 0 119 -16 174 -47c7 -3 8 -9 4 -15l-27 -45
c-3 -6 -9 -8 -15 -4c-41 22 -90 37 -140 37c-70 0 -112 -28 -112 -73c0 -55 59 -70 130 -84c80 -16 185 -39 185 -151z" />
    <glyph glyph-name="uni0454" unicode="&#x454;" horiz-adv-x="477" 
d="M266 62c47 0 95 15 139 45c6 4 12 4 16 -3l29 -41c4 -6 3 -12 -3 -16c-53 -38 -110 -58 -182 -58c-132 0 -214 80 -214 191v156c0 112 82 192 213 192c63 0 120 -17 174 -51c6 -4 7 -10 3 -16l-27 -41c-4 -5 -9 -7 -15 -4c-41 25 -84 38 -133 38
c-85 0 -133 -49 -133 -118v-38h209c7 0 11 -4 11 -11v-43c0 -8 -4 -12 -11 -12h-209v-52c0 -70 49 -118 133 -118z" />
    <glyph glyph-name="uni044D" unicode="&#x44d;" horiz-adv-x="477" 
d="M211 62c84 0 133 48 133 118v52h-209c-7 0 -11 4 -11 12v43c0 7 4 11 11 11h209v38c0 69 -48 118 -133 118c-49 0 -92 -13 -133 -38c-6 -3 -11 -1 -15 4l-27 41c-4 6 -3 12 3 16c54 34 111 51 174 51c131 0 213 -80 213 -192v-156c0 -111 -82 -191 -214 -191
c-72 0 -129 20 -182 58c-6 4 -7 10 -3 16l29 41c4 7 10 7 16 3c44 -30 92 -45 139 -45z" />
    <glyph glyph-name="uni0456" unicode="&#x456;" horiz-adv-x="220" 
d="M140 0h-59c-8 0 -12 4 -12 11v494c0 7 4 12 12 12h59c7 0 11 -5 11 -12v-494c0 -7 -4 -11 -11 -11zM160 662c0 -28 -21 -49 -49 -49s-50 21 -50 49c0 29 22 49 50 49s49 -20 49 -49z" />
    <glyph glyph-name="uni0457" unicode="&#x457;" horiz-adv-x="220" 
d="M139 0h-59c-7 0 -11 4 -11 11v494c0 7 4 12 11 12h59c8 0 12 -5 12 -12v-494c0 -7 -4 -11 -12 -11zM86 662c0 -26 -19 -46 -46 -46c-26 0 -46 20 -46 46c0 27 20 47 46 47c27 0 46 -20 46 -47zM225 662c0 -26 -20 -46 -47 -46s-46 20 -46 46c0 27 19 47 46 47
s47 -20 47 -47z" />
    <glyph glyph-name="uni0458" unicode="&#x458;" horiz-adv-x="228" 
d="M159 -17c0 -120 -54 -184 -150 -184c-17 0 -34 1 -49 3c-8 1 -11 6 -11 13v50c0 8 4 12 12 12c14 -2 28 -3 39 -3c51 0 77 29 77 109v522c0 7 4 12 12 12h59c7 0 11 -5 11 -12v-522zM168 662c0 -28 -21 -49 -49 -49s-50 21 -50 49c0 29 22 49 50 49s49 -20 49 -49z" />
    <glyph glyph-name="uni045B" unicode="&#x45b;" horiz-adv-x="558" 
d="M151 491c36 15 78 25 126 25c124 0 217 -63 217 -218v-287c0 -7 -4 -11 -11 -11h-59c-7 0 -12 4 -12 11v284c0 108 -51 147 -140 147c-45 0 -88 -11 -121 -26v-405c0 -7 -4 -11 -11 -11h-59c-8 0 -12 4 -12 11v575h-68c-7 0 -11 4 -11 11v34c0 8 4 12 11 12h68v61
c0 7 4 11 12 11h59c7 0 11 -4 11 -11v-61h140c7 0 11 -4 11 -12v-34c0 -7 -4 -11 -11 -11h-140v-95z" />
    <glyph glyph-name="uni044E" unicode="&#x44e;" horiz-adv-x="724" 
d="M253 332c0 113 81 196 209 196c130 0 211 -83 211 -196v-150c0 -112 -81 -193 -211 -193c-128 0 -209 81 -209 193v51h-104v-222c0 -7 -4 -11 -12 -11h-57c-7 0 -11 4 -11 11v494c0 7 4 12 11 12h57c8 0 12 -5 12 -12v-199h104v26zM463 63c84 0 128 49 128 119v150
c0 71 -44 122 -128 122s-128 -51 -128 -122v-150c0 -70 44 -119 128 -119z" />
    <glyph glyph-name="uni044F" unicode="&#x44f;" horiz-adv-x="515" 
d="M116 0h-73c-9 0 -12 6 -6 14l146 184c-91 15 -141 74 -141 156c0 110 80 163 196 163h196c7 0 12 -4 12 -12v-494c0 -7 -5 -11 -12 -11h-59c-7 0 -11 4 -11 11v181h-91l-144 -185c-3 -5 -8 -7 -13 -7zM124 354c0 -62 40 -93 114 -93h126v186h-126
c-74 0 -114 -30 -114 -93z" />
    <glyph glyph-name="uni0452" unicode="&#x452;" horiz-adv-x="558" 
d="M151 491c35 15 77 25 125 25c124 0 218 -63 218 -218v-309c0 -134 -51 -189 -147 -189c-12 0 -29 1 -44 3c-7 1 -10 6 -10 13v51c0 7 4 11 12 11c14 -1 28 -2 35 -2c48 0 72 34 72 112v307c0 108 -51 147 -141 147c-45 0 -88 -11 -120 -26v-405c0 -7 -4 -11 -12 -11h-59
c-7 0 -11 4 -11 11v575h-68c-8 0 -12 4 -12 11v34c0 7 4 11 12 11h68v62c0 7 4 11 11 11h59c8 0 12 -4 12 -11v-62h139c7 0 11 -4 11 -11v-34c0 -7 -4 -11 -11 -11h-139v-95z" />
    <glyph glyph-name="uni0432.loclBGR" horiz-adv-x="540" 
d="M497 208c0 -148 -90 -217 -220 -219c-75 -1 -141 14 -199 37c-7 3 -9 7 -9 13v489c0 133 87 198 201 198c115 0 201 -71 201 -185c0 -75 -37 -126 -94 -160c73 -27 120 -93 120 -173zM151 86c32 -15 73 -23 117 -23c93 1 146 46 146 145c0 81 -51 133 -152 124
c-26 -2 -74 -8 -111 -14v-232zM151 527v-139l116 15c78 12 122 61 122 133c0 78 -52 117 -119 117c-76 0 -119 -52 -119 -126z" />
    <glyph glyph-name="uni0433.loclBGR" horiz-adv-x="463" 
d="M424 55c-57 -44 -125 -66 -201 -66c-122 0 -190 55 -190 146c0 89 64 130 178 166c71 22 129 40 129 89c0 45 -44 64 -101 64c-51 0 -103 -14 -142 -40c-6 -4 -13 -3 -16 4l-23 44c-3 6 -2 12 3 16c50 34 111 50 176 50c113 0 182 -51 182 -138c0 -96 -82 -128 -187 -163
c-51 -15 -118 -38 -118 -91c0 -44 38 -73 113 -73c59 0 107 19 159 54c6 5 11 3 16 -4l24 -42c3 -6 3 -12 -2 -16z" />
    <glyph glyph-name="uni0434.loclBGR" horiz-adv-x="543" 
d="M475 14c0 -131 -62 -214 -211 -214c-80 0 -140 25 -193 69c-5 4 -5 9 -1 16l29 43c4 6 10 7 16 2c41 -33 89 -56 149 -56c90 0 132 45 129 147v24c-37 -18 -86 -29 -128 -29c-120 0 -215 65 -215 204v100c0 151 99 208 224 208c70 0 140 -16 192 -39c6 -2 9 -6 9 -13
v-462zM133 220c0 -96 59 -130 138 -130c45 0 94 11 122 30v317c-29 10 -81 17 -118 17c-86 0 -142 -35 -142 -134v-100z" />
    <glyph glyph-name="uni0436.loclBGR" horiz-adv-x="730" 
d="M707 0h-71c-6 0 -11 2 -14 7l-159 229l-58 -65v-160c0 -7 -4 -11 -12 -11h-57c-7 0 -11 4 -11 11v160l-58 65l-159 -229c-4 -5 -9 -7 -14 -7h-71c-9 0 -12 6 -7 14l197 278l-179 211c-6 7 -3 14 6 14h72c5 0 11 -3 14 -8l199 -240v435c0 7 4 11 11 11h57
c8 0 12 -4 12 -11v-435l199 240c3 5 8 8 14 8h71c10 0 13 -7 7 -14l-180 -211l198 -278c5 -8 2 -14 -7 -14z" />
    <glyph glyph-name="uni0438.loclBGR" horiz-adv-x="551" 
d="M413 517h59c7 0 11 -5 11 -12v-463c0 -6 -2 -12 -8 -14c-56 -25 -121 -39 -189 -39c-131 0 -221 63 -221 216v300c0 7 4 12 12 12h59c7 0 11 -5 11 -12v-298c0 -105 52 -145 139 -145c42 0 84 8 115 19v424c0 7 4 12 12 12z" />
    <glyph glyph-name="uni0439.loclBGR" horiz-adv-x="551" 
d="M435 732c-9 -79 -63 -135 -155 -135c-91 0 -143 55 -153 134c-1 7 4 12 10 13l40 5c7 1 11 -2 13 -9c9 -51 38 -80 90 -80c54 0 83 29 92 80c1 7 5 10 13 9l39 -5c7 -1 12 -5 11 -12zM413 517h59c7 0 11 -5 11 -12v-463c0 -6 -2 -12 -8 -14c-56 -25 -121 -39 -189 -39
c-131 0 -221 63 -221 216v300c0 7 4 12 12 12h59c7 0 11 -5 11 -12v-298c0 -105 52 -145 139 -145c42 0 84 8 115 19v424c0 7 4 12 12 12z" />
    <glyph glyph-name="uni045D.loclBGR" horiz-adv-x="551" 
d="M323 597h-45c-6 0 -11 3 -14 7l-96 133c-6 8 -3 14 6 14h63c5 0 11 -3 14 -7l81 -133c5 -8 0 -14 -9 -14zM413 517h59c7 0 11 -5 11 -12v-463c0 -6 -2 -12 -8 -14c-56 -25 -121 -39 -189 -39c-131 0 -221 63 -221 216v300c0 7 4 12 12 12h59c7 0 11 -5 11 -12v-298
c0 -105 52 -145 139 -145c42 0 84 8 115 19v424c0 7 4 12 12 12z" />
    <glyph glyph-name="uni043A.loclBGR" horiz-adv-x="494" 
d="M481 0h-74c-6 0 -11 2 -15 7l-190 231l-51 -49v-178c0 -7 -4 -11 -12 -11h-59c-7 0 -11 4 -11 11v693c0 7 4 11 11 11h59c8 0 12 -4 12 -11v-414l226 221c4 5 9 6 14 6h73c9 0 12 -7 5 -14l-212 -209l230 -280c6 -8 3 -14 -6 -14z" />
    <glyph glyph-name="uni043B.loclBGR" horiz-adv-x="501" 
d="M17 13l183 495c3 5 7 9 13 9h73c7 0 11 -4 14 -9l184 -495c2 -7 -1 -13 -9 -13h-64c-6 0 -12 3 -13 9l-147 421h-1l-147 -421c-2 -6 -7 -9 -13 -9h-64c-8 0 -12 6 -9 13z" />
    <glyph glyph-name="uni043F.loclBGR" horiz-adv-x="557" 
d="M138 0h-59c-7 0 -11 4 -11 11v464c0 6 2 11 8 14c57 24 123 39 192 39c134 0 225 -63 225 -216v-301c0 -7 -4 -11 -12 -11h-59c-7 0 -11 4 -11 11v299c0 104 -53 144 -143 144c-42 0 -87 -8 -118 -18v-425c0 -7 -4 -11 -12 -11z" />
    <glyph glyph-name="uni0442.loclBGR" horiz-adv-x="817" 
d="M392 479c48 32 94 49 154 49c122 0 207 -71 207 -204v-313c0 -7 -4 -11 -11 -11h-59c-8 0 -12 4 -12 11v315c0 80 -41 128 -127 128c-42 0 -80 -13 -110 -34c12 -26 19 -59 19 -95v-314c0 -7 -4 -11 -11 -11h-60c-7 0 -11 4 -11 11v315c0 85 -39 128 -120 128
c-41 0 -73 -8 -101 -18v-425c0 -7 -4 -11 -12 -11h-59c-7 0 -11 4 -11 11v464c0 6 2 11 9 14c53 24 111 39 172 39s108 -18 143 -49z" />
    <glyph glyph-name="uni0446.loclBGR" horiz-adv-x="580" 
d="M540 -131h-53c-7 0 -12 4 -12 11v143h-17c-50 -22 -105 -34 -167 -34c-144 0 -226 69 -226 220v296c0 7 4 12 11 12h59c8 0 12 -5 12 -12v-297c0 -103 49 -145 144 -145c45 0 80 9 109 21v421c0 7 4 12 11 12h60c7 0 11 -5 11 -12v-411h58c8 0 12 -4 12 -11v-203
c0 -7 -4 -11 -12 -11z" />
    <glyph glyph-name="uni0448.loclBGR" horiz-adv-x="819" 
d="M427 37c-48 -31 -95 -48 -154 -48c-123 0 -208 70 -208 204v312c0 7 4 12 12 12h59c7 0 11 -5 11 -12v-314c0 -80 42 -127 127 -127c43 0 80 12 110 32c-12 27 -18 59 -18 95v314c0 7 4 12 11 12h59c7 0 12 -5 12 -12v-314c0 -85 38 -128 120 -128c41 0 73 7 101 18v424
c0 7 4 12 11 12h59c8 0 12 -5 12 -12v-463c0 -7 -3 -12 -9 -14c-53 -24 -111 -39 -172 -39s-108 17 -143 48z" />
    <glyph glyph-name="uni0449.loclBGR" horiz-adv-x="843" 
d="M803 -131h-53c-7 0 -11 4 -11 11v143h-17c-49 -21 -100 -34 -155 -34c-61 0 -109 17 -143 47c-48 -30 -95 -47 -153 -47c-121 0 -206 70 -206 204v312c0 7 4 12 12 12h59c7 0 11 -5 11 -12v-314c0 -80 41 -127 126 -127c41 0 79 12 109 32c-13 27 -19 59 -19 95v314
c0 7 4 12 11 12h59c8 0 12 -5 12 -12v-314c0 -85 38 -127 120 -127c40 0 71 9 98 23v418c0 7 4 12 12 12h59c7 0 11 -5 11 -12v-408h58c8 0 12 -4 12 -11v-206c0 -7 -4 -11 -12 -11z" />
    <glyph glyph-name="uni044C.loclBGR" horiz-adv-x="509" 
d="M479 170c0 -118 -88 -179 -210 -181c-64 -1 -135 14 -192 36c-7 2 -9 6 -9 13v467c0 7 4 12 11 12h58c7 0 11 -5 11 -12v-174c36 10 79 18 124 18c123 0 207 -67 207 -179zM148 84c31 -12 70 -19 110 -19c89 1 139 35 139 105c0 69 -47 106 -135 106
c-43 0 -81 -7 -114 -18v-174z" />
    <glyph glyph-name="uni044A.loclBGR" horiz-adv-x="581" 
d="M551 170c0 -118 -88 -179 -210 -181c-64 -1 -135 14 -192 36c-7 2 -9 6 -9 13v406h-110c-8 0 -12 4 -12 12v49c0 7 4 12 12 12h179c7 0 11 -5 11 -12v-174c36 10 79 18 124 18c123 0 207 -67 207 -179zM220 84c31 -12 70 -19 110 -19c89 1 139 35 139 105
c0 69 -47 106 -135 106c-43 0 -81 -7 -114 -18v-174z" />
    <glyph glyph-name="uni044E.loclBGR" horiz-adv-x="724" 
d="M253 332c0 113 81 196 209 196c130 0 211 -83 211 -196v-150c0 -112 -81 -193 -211 -193c-128 0 -209 81 -209 193v51h-104v-222c0 -7 -4 -11 -12 -11h-57c-7 0 -11 4 -11 11v693c0 7 4 11 11 11h57c8 0 12 -4 12 -11v-398h104v26zM463 63c84 0 128 49 128 119v150
c0 71 -44 122 -128 122s-128 -51 -128 -122v-150c0 -70 44 -119 128 -119z" />
    <glyph glyph-name="uni0430.ss01" horiz-adv-x="541" 
d="M397 57c-39 -44 -95 -68 -153 -68c-106 0 -194 60 -194 206v124c0 140 102 209 222 209c63 0 128 -14 192 -36c6 -2 9 -6 9 -13v-468c0 -7 -4 -11 -11 -11h-49c-7 0 -11 4 -12 11zM133 195c0 -93 41 -133 123 -133c44 0 96 22 135 65v311c-39 11 -83 17 -122 17
c-76 0 -136 -46 -136 -136v-124z" />
    <glyph glyph-name="Alpha" unicode="&#x391;" horiz-adv-x="619" 
d="M85 0h-67c-8 0 -11 5 -9 13l249 693c2 6 6 9 12 9h79c6 0 11 -3 13 -9l248 -693c3 -8 -1 -13 -9 -13h-67c-6 0 -11 3 -13 9l-61 178h-300l-62 -178c-2 -6 -6 -9 -13 -9zM308 620l-122 -354h248l-122 354h-4z" />
    <glyph glyph-name="Beta" unicode="&#x392;" horiz-adv-x="637" 
d="M558 527c0 -68 -33 -121 -85 -146c74 -27 115 -91 115 -174c0 -130 -90 -207 -246 -207h-241c-8 0 -12 4 -12 11v693c0 7 4 11 12 11h242c143 0 215 -75 215 -188zM174 77h169c98 0 159 41 159 130c0 79 -48 132 -153 132h-175v-262zM472 527c0 68 -44 111 -129 111h-169
v-222h175c73 0 123 36 123 111z" />
    <glyph glyph-name="Gamma" unicode="&#x393;" horiz-adv-x="510" 
d="M163 0h-62c-7 0 -12 4 -12 11v693c0 7 5 11 12 11h385c8 0 12 -4 12 -11v-56c0 -7 -4 -11 -12 -11h-311v-626c0 -7 -5 -11 -12 -11z" />
    <glyph glyph-name="uni0394" unicode="&#x394;" horiz-adv-x="624" 
d="M606 0h-588c-8 0 -11 5 -9 13l248 693c2 6 7 9 13 9h85c6 0 11 -3 13 -9l247 -693c3 -8 -1 -13 -9 -13zM311 620l-189 -542h381l-189 542h-3z" />
    <glyph glyph-name="Epsilon" unicode="&#x395;" 
d="M175 324v-246h344c7 0 11 -4 11 -11v-56c0 -7 -4 -11 -11 -11h-418c-8 0 -12 4 -12 11v693c0 7 4 11 12 11h404c7 0 11 -4 11 -11v-56c0 -7 -4 -11 -11 -11h-330v-234h307c7 0 11 -4 11 -12v-55c0 -8 -4 -12 -11 -12h-307z" />
    <glyph glyph-name="Zeta" unicode="&#x396;" horiz-adv-x="588" 
d="M540 0h-493c-7 0 -11 4 -11 11v39c0 5 1 10 4 14l388 573h-364c-8 0 -12 4 -12 11v56c0 7 4 11 12 11h467c7 0 11 -4 11 -11v-38c0 -5 -1 -10 -4 -15l-387 -573h389c7 0 11 -4 11 -11v-56c0 -7 -4 -11 -11 -11z" />
    <glyph glyph-name="Eta" unicode="&#x397;" horiz-adv-x="682" 
d="M508 402v302c0 7 4 11 12 11h62c7 0 11 -4 11 -11v-693c0 -7 -4 -11 -11 -11h-62c-8 0 -12 4 -12 11v313h-334v-313c0 -7 -4 -11 -11 -11h-62c-8 0 -12 4 -12 11v693c0 7 4 11 12 11h62c7 0 11 -4 11 -11v-302h334z" />
    <glyph glyph-name="Theta" unicode="&#x398;" horiz-adv-x="680" 
d="M616 251c0 -161 -105 -262 -276 -262s-276 101 -276 262v211c0 164 105 264 276 264s276 -100 276 -264v-211zM150 251c0 -113 69 -181 190 -181s189 68 189 181v211c0 117 -68 185 -189 185s-190 -68 -190 -185v-211zM473 328h-266c-7 0 -12 4 -12 12v47c0 7 5 11 12 11
h266c7 0 12 -4 12 -11v-47c0 -8 -5 -12 -12 -12z" />
    <glyph glyph-name="Iota" unicode="&#x399;" horiz-adv-x="263" 
d="M174 704v-693c0 -7 -4 -11 -11 -11h-62c-8 0 -12 4 -12 11v693c0 7 4 11 12 11h62c7 0 11 -4 11 -11z" />
    <glyph glyph-name="Kappa" unicode="&#x39a;" horiz-adv-x="614" 
d="M163 0h-62c-8 0 -12 4 -12 11v693c0 7 4 11 12 11h62c7 0 11 -4 11 -11v-331l309 335c5 5 9 7 15 7h80c10 0 14 -7 7 -14l-287 -308l307 -379c6 -8 2 -14 -7 -14h-81c-6 0 -11 2 -14 7l-262 326l-67 -69v-253c0 -7 -4 -11 -11 -11z" />
    <glyph glyph-name="Lambda" unicode="&#x39b;" horiz-adv-x="624" 
d="M86 0h-68c-8 0 -11 5 -9 13l248 693c2 6 7 9 13 9h85c6 0 11 -3 13 -9l247 -693c3 -8 -1 -13 -9 -13h-67c-7 0 -12 3 -13 9l-149 425l-63 187h-3l-63 -186l-149 -426c-2 -6 -7 -9 -13 -9z" />
    <glyph glyph-name="Mu" unicode="&#x39c;" horiz-adv-x="853" 
d="M163 0h-62c-8 0 -12 4 -12 11v693c0 7 4 11 12 11h76c5 0 10 -2 13 -8l155 -282c25 -46 62 -120 80 -158h3c18 38 55 112 80 157l156 283c2 6 7 8 13 8h76c7 0 11 -4 11 -11v-693c0 -7 -4 -11 -11 -11h-63c-7 0 -11 4 -11 11v302c0 84 3 186 6 271l-2 1
c-27 -54 -58 -113 -91 -176l-125 -232c-3 -5 -8 -8 -14 -8h-53c-6 0 -11 3 -13 8l-125 232c-34 63 -65 122 -91 176l-2 -1c2 -85 5 -187 5 -271v-302c0 -7 -4 -11 -11 -11z" />
    <glyph glyph-name="Nu" unicode="&#x39d;" horiz-adv-x="704" 
d="M162 0h-61c-8 0 -12 4 -12 11v693c0 7 4 11 12 11h70c5 0 11 -3 14 -8l265 -432c27 -46 59 -99 84 -146l3 1c-4 83 -6 187 -6 271v303c0 7 4 11 11 11h62c7 0 11 -4 11 -11v-693c0 -7 -4 -11 -11 -11h-70c-6 0 -11 2 -14 7l-263 417c-29 47 -62 104 -87 152l-2 -1
c3 -79 6 -182 6 -261v-303c0 -7 -5 -11 -12 -11z" />
    <glyph glyph-name="Xi" unicode="&#x39e;" horiz-adv-x="558" 
d="M486 637h-415c-7 0 -11 4 -11 11v56c0 7 4 11 11 11h415c7 0 12 -4 12 -11v-56c0 -7 -5 -11 -12 -11zM464 323h-370c-7 0 -11 5 -11 12v55c0 7 4 11 11 11h370c8 0 12 -4 12 -11v-55c0 -7 -4 -12 -12 -12zM498 0h-439c-7 0 -11 4 -11 11v57c0 7 4 11 11 11h439
c8 0 12 -4 12 -11v-57c0 -7 -4 -11 -12 -11z" />
    <glyph glyph-name="Omicron" unicode="&#x39f;" horiz-adv-x="674" 
d="M610 251c0 -161 -104 -262 -273 -262s-273 101 -273 262v211c0 164 104 264 273 264s273 -100 273 -264v-211zM150 251c0 -113 68 -181 187 -181s186 68 186 181v211c0 117 -67 185 -186 185s-187 -68 -187 -185v-211z" />
    <glyph glyph-name="Pi" unicode="&#x3a0;" horiz-adv-x="685" 
d="M164 0h-63c-7 0 -12 4 -12 11v693c0 7 5 11 12 11h483c8 0 12 -4 12 -11v-693c0 -7 -4 -11 -12 -11h-63c-7 0 -11 4 -11 11v626h-335v-626c0 -7 -4 -11 -11 -11z" />
    <glyph glyph-name="Rho" unicode="&#x3a1;" horiz-adv-x="625" 
d="M100 715h241c158 0 248 -88 248 -234c0 -148 -91 -235 -248 -235h-167v-235c0 -7 -4 -11 -11 -11h-63c-7 0 -11 4 -11 11v693c0 7 4 11 11 11zM174 325h158c115 0 171 52 171 156c0 103 -56 155 -171 155h-158v-311z" />
    <glyph glyph-name="Sigma" unicode="&#x3a3;" horiz-adv-x="552" 
d="M51 715h445c8 0 12 -4 12 -11v-55c0 -7 -4 -11 -12 -11h-331c13 -16 38 -50 195 -261c3 -5 3 -11 0 -17l-140 -197c-17 -25 -47 -65 -64 -85h340c8 0 12 -4 12 -12v-55c0 -7 -4 -11 -12 -11h-445c-7 0 -11 4 -11 11v35c0 4 1 10 4 14l221 309l-220 290c-3 4 -5 9 -5 15
v30c0 7 4 11 11 11z" />
    <glyph glyph-name="Tau" unicode="&#x3a4;" horiz-adv-x="561" 
d="M23 715h514c7 0 12 -4 12 -11v-56c0 -7 -5 -11 -12 -11h-214v-626c0 -7 -5 -11 -12 -11h-62c-7 0 -12 4 -12 11v626h-214c-7 0 -11 4 -11 11v56c0 7 4 11 11 11z" />
    <glyph glyph-name="Upsilon" unicode="&#x3a5;" horiz-adv-x="568" 
d="M315 0h-63c-7 0 -11 4 -11 11v261l-235 429c-4 8 -1 14 8 14h72c6 0 11 -2 13 -8l185 -357l184 357c2 6 8 8 13 8h72c9 0 12 -6 8 -14l-234 -431v-259c0 -7 -4 -11 -12 -11z" />
    <glyph glyph-name="Phi" unicode="&#x3a6;" horiz-adv-x="857" 
d="M460 -66h-63c-7 0 -11 4 -11 11v77h-59c-133 0 -265 79 -265 271v126c0 192 132 270 265 270h59v71c0 7 4 12 11 12h63c7 0 11 -5 11 -12v-71h59c133 0 265 -78 265 -270v-126c0 -192 -132 -271 -265 -271h-59v-77c0 -7 -4 -11 -11 -11zM150 293c0 -138 87 -191 181 -191
h55v507h-55c-94 0 -181 -48 -181 -190v-126zM471 609v-507h55c94 0 182 53 182 191v126c0 142 -88 190 -182 190h-55z" />
    <glyph glyph-name="Chi" unicode="&#x3a7;" horiz-adv-x="590" 
d="M345 359l224 -345c5 -7 2 -14 -7 -14h-77c-6 0 -11 3 -14 8l-175 284l-176 -284c-3 -5 -8 -8 -14 -8h-77c-9 0 -13 7 -8 14l225 345l-214 342c-5 7 -1 14 8 14h76c5 0 10 -3 13 -8l167 -279l166 279c3 5 8 8 13 8h76c8 0 12 -7 7 -14z" />
    <glyph glyph-name="Psi" unicode="&#x3a8;" horiz-adv-x="816" 
d="M439 0h-63c-8 0 -12 4 -12 11v146h-56c-129 0 -249 83 -249 242v305c0 7 4 11 11 11h64c8 0 12 -4 12 -11v-305c0 -108 76 -162 171 -162h47v467c0 7 4 11 12 11h63c7 0 11 -4 11 -11v-467h49c95 0 171 54 171 162v305c0 7 4 11 11 11h65c7 0 11 -4 11 -11v-305
c0 -159 -120 -242 -249 -242h-58v-146c0 -7 -4 -11 -11 -11z" />
    <glyph glyph-name="uni03A9" unicode="&#x3a9;" horiz-adv-x="705" 
d="M291 0h-209c-8 0 -12 4 -12 11v53c0 7 4 12 12 12h84c-55 49 -89 117 -89 198v180c0 171 102 272 276 272c173 0 275 -101 275 -272v-180c0 -81 -34 -149 -89 -198h85c7 0 11 -5 11 -12v-53c0 -7 -4 -11 -11 -11h-210c-7 0 -11 4 -11 11v43c0 6 3 10 9 13
c79 32 128 104 128 207v180c0 125 -66 193 -187 193c-122 0 -188 -68 -188 -193v-180c0 -103 48 -175 128 -207c6 -3 10 -7 10 -13v-43c0 -7 -5 -11 -12 -11z" />
    <glyph glyph-name="Alphatonos" unicode="&#x386;" horiz-adv-x="658" 
d="M91 561h-45c-9 0 -14 6 -9 14l81 133c3 4 9 7 14 7h63c9 0 12 -6 6 -14l-96 -133c-3 -4 -8 -7 -14 -7zM124 0h-67c-8 0 -11 5 -9 13l249 693c2 6 6 9 12 9h79c6 0 11 -3 13 -9l248 -693c3 -8 -1 -13 -9 -13h-67c-6 0 -11 3 -13 9l-61 178h-300l-62 -178
c-2 -6 -6 -9 -13 -9zM347 620l-122 -354h248l-122 354h-4z" />
    <glyph glyph-name="Epsilontonos" unicode="&#x388;" horiz-adv-x="736" 
d="M65 561h-45c-9 0 -14 6 -9 14l81 133c3 4 9 7 14 7h63c9 0 12 -6 6 -14l-96 -133c-3 -4 -8 -7 -14 -7zM332 324v-246h344c7 0 11 -4 11 -11v-56c0 -7 -4 -11 -11 -11h-418c-8 0 -12 4 -12 11v693c0 7 4 11 12 11h404c7 0 11 -4 11 -11v-56c0 -7 -4 -11 -11 -11h-330v-234
h307c7 0 11 -4 11 -12v-55c0 -8 -4 -12 -11 -12h-307z" />
    <glyph glyph-name="Etatonos" unicode="&#x389;" horiz-adv-x="844" 
d="M65 561h-45c-9 0 -14 6 -9 14l81 133c3 4 9 7 14 7h63c9 0 12 -6 6 -14l-96 -133c-3 -4 -8 -7 -14 -7zM670 402v302c0 7 4 11 12 11h62c7 0 11 -4 11 -11v-693c0 -7 -4 -11 -11 -11h-62c-8 0 -12 4 -12 11v313h-334v-313c0 -7 -4 -11 -11 -11h-62c-8 0 -12 4 -12 11v693
c0 7 4 11 12 11h62c7 0 11 -4 11 -11v-302h334z" />
    <glyph glyph-name="Iotatonos" unicode="&#x38a;" horiz-adv-x="432" 
d="M65 561h-45c-9 0 -14 6 -9 14l81 133c3 4 9 7 14 7h63c9 0 12 -6 6 -14l-96 -133c-3 -4 -8 -7 -14 -7zM343 704v-693c0 -7 -4 -11 -11 -11h-62c-8 0 -12 4 -12 11v693c0 7 4 11 12 11h62c7 0 11 -4 11 -11z" />
    <glyph glyph-name="Omicrontonos" unicode="&#x38c;" horiz-adv-x="797" 
d="M67 561h-45c-9 0 -14 6 -9 14l81 133c3 4 9 7 14 7h63c9 0 12 -6 6 -14l-96 -133c-3 -4 -8 -7 -14 -7zM733 251c0 -161 -104 -262 -273 -262s-273 101 -273 262v211c0 164 104 264 273 264s273 -100 273 -264v-211zM273 251c0 -113 68 -181 187 -181s186 68 186 181v211
c0 117 -67 185 -186 185s-187 -68 -187 -185v-211z" />
    <glyph glyph-name="Upsilontonos" unicode="&#x38e;" horiz-adv-x="800" 
d="M75 561h-45c-9 0 -14 6 -9 14l81 133c3 4 9 7 14 7h63c9 0 12 -6 6 -14l-96 -133c-3 -4 -8 -7 -14 -7zM547 0h-63c-7 0 -11 4 -11 11v261l-235 429c-4 8 -1 14 8 14h72c6 0 11 -2 13 -8l185 -357l184 357c2 6 8 8 13 8h72c9 0 12 -6 8 -14l-234 -431v-259
c0 -7 -4 -11 -12 -11z" />
    <glyph glyph-name="Omegatonos" unicode="&#x38f;" horiz-adv-x="797" 
d="M383 0h-209c-8 0 -12 4 -12 11v53c0 7 4 12 12 12h84c-55 49 -89 117 -89 198v180c0 171 102 272 276 272c173 0 275 -101 275 -272v-180c0 -81 -34 -149 -89 -198h85c7 0 11 -5 11 -12v-53c0 -7 -4 -11 -11 -11h-210c-7 0 -11 4 -11 11v43c0 6 3 10 9 13
c79 32 128 104 128 207v180c0 125 -66 193 -187 193c-122 0 -188 -68 -188 -193v-180c0 -103 48 -175 128 -207c6 -3 10 -7 10 -13v-43c0 -7 -5 -11 -12 -11zM69 561h-45c-9 0 -14 6 -9 14l81 133c3 4 9 7 14 7h63c9 0 12 -6 6 -14l-96 -133c-3 -4 -8 -7 -14 -7z" />
    <glyph glyph-name="Iotadieresis" unicode="&#x3aa;" horiz-adv-x="263" 
d="M162 0h-62c-7 0 -11 4 -11 11v693c0 7 4 11 11 11h62c8 0 12 -4 12 -11v-693c0 -7 -4 -11 -12 -11zM92 857c0 -29 -21 -49 -49 -49s-49 20 -49 49s21 50 49 50s49 -21 49 -50zM269 857c0 -29 -20 -49 -50 -49c-29 0 -49 20 -49 49s20 50 49 50c30 0 50 -21 50 -50z" />
    <glyph glyph-name="Upsilondieresis" unicode="&#x3ab;" horiz-adv-x="568" 
d="M231 847c0 -29 -21 -49 -49 -49c-29 0 -49 20 -49 49s20 50 49 50c28 0 49 -21 49 -50zM435 847c0 -29 -21 -49 -50 -49s-49 20 -49 49s20 50 49 50s50 -21 50 -50zM315 0h-63c-7 0 -11 4 -11 11v261l-235 429c-4 8 -1 14 8 14h72c6 0 11 -2 13 -8l185 -357l184 357
c2 6 8 8 13 8h72c9 0 12 -6 8 -14l-234 -431v-259c0 -7 -4 -11 -12 -11z" />
    <glyph glyph-name="alpha" unicode="&#x3b1;" horiz-adv-x="541" 
d="M397 57c-39 -44 -95 -68 -153 -68c-106 0 -194 60 -194 206v124c0 140 102 209 222 209c63 0 128 -14 192 -36c6 -2 9 -6 9 -13v-468c0 -7 -4 -11 -11 -11h-49c-7 0 -11 4 -12 11zM133 195c0 -93 41 -133 123 -133c44 0 96 22 135 65v311c-39 11 -83 17 -122 17
c-76 0 -136 -46 -136 -136v-124z" />
    <glyph glyph-name="beta" unicode="&#x3b2;" horiz-adv-x="539" 
d="M469 532c1 -76 -39 -128 -93 -157c75 -24 119 -85 119 -176c0 -138 -88 -208 -215 -210c-41 -1 -87 7 -131 29v-196c0 -8 -4 -12 -11 -12h-58c-7 0 -11 4 -11 12v707c0 133 85 197 199 197c119 0 201 -71 201 -194zM149 94c38 -23 84 -32 122 -32c94 0 143 42 143 138
c0 86 -45 129 -143 129h-60c-7 0 -12 4 -12 11v50c0 7 5 12 12 12h61c70 0 117 49 117 126c0 86 -51 125 -121 125c-78 0 -119 -52 -119 -126v-433z" />
    <glyph glyph-name="gamma" unicode="&#x3b3;" horiz-adv-x="499" 
d="M279 -191h-58c-8 0 -12 4 -12 11v188l-193 495c-3 8 1 14 9 14h64c7 0 12 -4 13 -9l85 -235c16 -43 48 -140 62 -185h2c15 46 45 142 61 185l84 235c2 5 7 9 13 9h65c8 0 12 -6 9 -14l-193 -495v-188c0 -7 -4 -11 -11 -11z" />
    <glyph glyph-name="delta" unicode="&#x3b4;" horiz-adv-x="535" 
d="M152 582c0 -53 85 -86 164 -112c100 -33 171 -88 171 -193v-97c0 -126 -107 -191 -218 -191c-113 0 -221 65 -221 190v102c0 88 54 148 131 176c-62 31 -108 69 -108 128c0 78 71 141 204 141c61 0 116 -13 170 -44c6 -4 8 -9 5 -15l-25 -48c-4 -6 -9 -8 -17 -4
c-47 26 -90 38 -138 38c-71 0 -118 -27 -118 -71zM269 62c70 0 136 36 136 121v91c0 82 -64 123 -141 139c-80 -7 -133 -55 -133 -134v-98c0 -78 63 -119 138 -119z" />
    <glyph glyph-name="epsilon" unicode="&#x3b5;" horiz-adv-x="486" 
d="M253 62c59 0 111 25 155 63c6 5 11 4 16 -1l32 -38c5 -6 5 -11 0 -16c-66 -62 -130 -81 -207 -81c-120 0 -206 69 -206 163c0 57 29 100 88 121c-44 21 -70 55 -70 105c0 87 78 150 193 150c81 0 145 -31 188 -67c6 -5 5 -11 1 -17l-30 -38c-5 -5 -11 -6 -17 -1
c-31 26 -78 51 -141 51c-66 0 -112 -26 -112 -79c0 -48 37 -78 97 -78h99c7 0 11 -5 11 -12v-40c0 -8 -4 -12 -11 -12h-100c-72 0 -113 -28 -113 -82c0 -58 49 -91 127 -91z" />
    <glyph glyph-name="zeta" unicode="&#x3b6;" horiz-adv-x="465" 
d="M415 -40c0 -43 -30 -93 -73 -142c-5 -5 -10 -6 -16 -1l-38 30c-6 5 -6 11 -1 17c30 34 49 66 49 85c0 26 -37 37 -84 51c-87 27 -209 64 -209 221c0 140 100 296 285 419l-1 1h-246c-7 0 -12 4 -12 12v51c0 7 5 11 12 11h367c7 0 11 -4 11 -11v-33c0 -6 -2 -11 -8 -14
c-209 -130 -326 -292 -326 -422c0 -94 58 -133 122 -159c79 -32 168 -44 168 -116z" />
    <glyph glyph-name="eta" unicode="&#x3b7;" horiz-adv-x="557" 
d="M138 0h-59c-7 0 -11 4 -11 11v464c0 6 2 11 8 14c57 24 123 39 192 39c134 0 225 -63 225 -216v-301c0 -7 -4 -11 -12 -11h-59c-7 0 -11 4 -11 11v299c0 104 -53 144 -143 144c-42 0 -87 -8 -118 -18v-425c0 -7 -4 -11 -12 -11z" />
    <glyph glyph-name="theta" unicode="&#x3b8;" horiz-adv-x="578" 
d="M514 203c0 -139 -95 -215 -225 -214c-128 0 -225 75 -225 214v307c0 138 97 216 225 216c129 1 225 -78 225 -216v-307zM147 510v-109h284v109c0 95 -58 144 -142 143c-82 0 -142 -49 -142 -143zM147 200c0 -90 53 -138 142 -138c89 -1 143 48 143 138v129h-285v-129z
" />
    <glyph glyph-name="iota" unicode="&#x3b9;" horiz-adv-x="220" 
d="M139 0h-59c-7 0 -11 4 -11 11v494c0 7 4 12 11 12h59c8 0 12 -5 12 -12v-494c0 -7 -4 -11 -12 -11z" />
    <glyph glyph-name="kappa" unicode="&#x3ba;" horiz-adv-x="495" 
d="M480 0h-70c-6 0 -11 2 -15 7l-189 227l-57 -57v-166c0 -7 -5 -11 -12 -11h-57c-7 0 -11 4 -11 11v494c0 7 4 12 11 12h57c7 0 12 -5 12 -12v-227l230 233c4 5 9 6 14 6h72c9 0 13 -7 6 -14l-210 -212l226 -277c6 -8 2 -14 -7 -14z" />
    <glyph glyph-name="lambda" unicode="&#x3bb;" horiz-adv-x="557" 
d="M136 0h-59c-8 0 -12 4 -12 11v282c0 145 96 200 217 200c41 0 85 -9 127 -25v70c0 76 -52 115 -132 115c-55 0 -109 -20 -143 -47c-6 -5 -12 -5 -17 1l-28 41c-5 5 -4 11 1 16c44 38 114 62 188 62c114 0 210 -60 210 -193v-522c0 -7 -4 -11 -11 -11h-59
c-7 0 -12 4 -12 11v383c-39 16 -81 26 -123 26c-84 0 -136 -34 -136 -128v-281c0 -7 -4 -11 -11 -11z" />
    <glyph glyph-name="uni03BC" unicode="&#x3bc;" horiz-adv-x="567" 
d="M139 -191h-59c-7 0 -11 4 -11 11v685c0 7 4 12 11 12h59c8 0 12 -5 12 -12v-309c0 -75 47 -134 132 -134c87 0 133 59 133 134v309c0 7 4 12 12 12h59c7 0 11 -5 11 -12v-494c0 -7 -4 -11 -11 -11h-46c-7 0 -11 3 -13 10l-5 55c-20 -44 -75 -76 -140 -76
c-63 0 -111 30 -134 71c0 -13 2 -38 2 -63v-177c0 -7 -4 -11 -12 -11z" />
    <glyph glyph-name="nu" unicode="&#x3bd;" horiz-adv-x="500" 
d="M285 0h-73c-6 0 -10 3 -13 9l-183 494c-3 8 1 14 9 14h64c6 0 11 -4 13 -9l99 -285c16 -45 31 -91 48 -136h1c15 45 31 91 47 136l100 285c1 5 7 9 13 9h64c8 0 11 -6 9 -14l-184 -494c-3 -6 -7 -9 -14 -9z" />
    <glyph glyph-name="xi" unicode="&#x3be;" horiz-adv-x="461" 
d="M420 -40c0 -39 -25 -87 -73 -141c-4 -6 -10 -7 -16 -2l-38 30c-6 5 -6 11 -2 17c29 31 49 62 49 83c0 25 -38 37 -87 53c-88 29 -211 69 -211 213c0 84 50 144 132 167c-76 30 -114 87 -114 161c0 106 82 185 209 185c67 0 130 -20 184 -64c6 -4 7 -9 3 -16l-27 -39
c-4 -6 -10 -8 -16 -3c-43 32 -88 49 -146 49c-67 0 -125 -41 -125 -113c0 -70 58 -122 138 -122h80c7 0 11 -5 11 -12v-51c0 -8 -4 -12 -11 -12h-90c-82 0 -145 -53 -145 -129c0 -72 53 -106 114 -131c83 -34 181 -50 181 -123z" />
    <glyph glyph-name="omicron" unicode="&#x3bf;" horiz-adv-x="540" 
d="M490 185c0 -117 -84 -196 -220 -196c-135 0 -220 79 -220 196v144c0 117 85 199 220 199c136 0 220 -82 220 -199v-144zM133 185c0 -75 48 -123 137 -123c90 0 138 48 138 123v144c0 76 -48 125 -138 125c-89 0 -137 -49 -137 -125v-144z" />
    <glyph glyph-name="pi" unicode="&#x3c0;" horiz-adv-x="546" 
d="M81 517h385c7 0 11 -5 11 -12v-494c0 -7 -4 -11 -11 -11h-59c-8 0 -12 4 -12 11v432h-244v-432c0 -7 -4 -11 -11 -11h-59c-8 0 -12 4 -12 11v494c0 7 4 12 12 12z" />
    <glyph glyph-name="rho" unicode="&#x3c1;" horiz-adv-x="545" 
d="M134 -190h-57c-8 0 -12 4 -12 12v495c0 141 94 211 211 211s219 -68 219 -210v-133c0 -130 -92 -196 -220 -196c-41 0 -82 10 -129 38v-205c0 -8 -4 -12 -12 -12zM146 105c37 -27 81 -43 126 -43c83 0 141 39 141 126v128c0 97 -55 139 -137 139
c-81 0 -130 -44 -130 -140v-210z" />
    <glyph glyph-name="sigma1" unicode="&#x3c2;" horiz-adv-x="454" 
d="M130 207c0 -89 83 -118 160 -145c67 -23 129 -45 129 -102c0 -39 -24 -87 -73 -142c-5 -6 -10 -7 -16 -2l-38 31c-6 5 -7 10 -1 16c29 33 49 66 49 84c0 24 -37 36 -84 51c-86 28 -206 68 -206 206v142c0 119 96 182 199 182c78 0 137 -21 181 -51c6 -4 6 -10 2 -15
l-28 -43c-4 -6 -9 -8 -15 -3c-35 21 -79 38 -139 38c-63 0 -120 -40 -120 -110v-137z" />
    <glyph glyph-name="sigma" unicode="&#x3c3;" horiz-adv-x="559" 
d="M489 189c0 -121 -84 -201 -220 -200c-135 0 -220 79 -220 200v124c0 122 85 204 220 204h252c7 0 11 -5 11 -12v-50c0 -7 -4 -12 -11 -12h-93c39 -27 61 -74 61 -130v-124zM131 189c0 -79 48 -126 138 -126c91 0 139 47 139 126v124c0 84 -52 129 -139 130
c-90 0 -138 -50 -138 -130v-124z" />
    <glyph glyph-name="tau" unicode="&#x3c4;" horiz-adv-x="449" 
d="M255 0h-60c-7 0 -11 4 -11 11v432h-156c-7 0 -12 5 -12 12v50c0 7 5 12 12 12h393c8 0 12 -5 12 -12v-50c0 -7 -4 -12 -12 -12h-155v-432c0 -7 -4 -11 -11 -11z" />
    <glyph glyph-name="upsilon" unicode="&#x3c5;" horiz-adv-x="558" 
d="M493 187c0 -119 -92 -199 -214 -198c-122 0 -214 79 -214 198v318c0 7 4 12 12 12h59c7 0 11 -5 11 -12v-318c0 -82 55 -124 132 -125c77 0 132 43 132 125v318c0 7 4 12 11 12h59c8 0 12 -5 12 -12v-318z" />
    <glyph glyph-name="phi" unicode="&#x3c6;" horiz-adv-x="735" 
d="M397 -190h-59c-7 0 -11 4 -11 12v178h-80c-108 0 -197 65 -197 199v119c0 126 87 199 204 199h73v187c0 7 4 11 11 11h59c7 0 11 -4 11 -11v-187h80c118 0 197 -74 197 -199v-119c0 -134 -90 -199 -189 -199h-88v-178c0 -8 -4 -12 -11 -12zM132 201
c0 -85 43 -127 128 -127h67v369h-70c-80 0 -125 -42 -125 -128v-114zM408 74h67c85 0 129 42 129 127v114c0 86 -46 128 -125 128h-71v-369z" />
    <glyph glyph-name="chi" unicode="&#x3c7;" horiz-adv-x="487" 
d="M294 261l174 -247c5 -8 2 -14 -7 -14h-74c-5 0 -10 2 -13 7l-130 197l-130 -197c-3 -5 -8 -7 -14 -7h-74c-9 0 -12 6 -7 14l174 247l-163 242c-5 7 -2 14 7 14h70c6 0 11 -4 14 -8l123 -190l123 190c3 4 8 8 13 8h70c9 0 13 -7 8 -14z" />
    <glyph glyph-name="psi" unicode="&#x3c8;" horiz-adv-x="759" 
d="M408 -191h-58c-7 0 -11 4 -11 11v180h-59c-114 0 -216 67 -216 206v299c0 7 4 12 11 12h59c8 0 12 -5 12 -12v-296c0 -92 51 -135 148 -135h45v431c0 7 4 12 11 12h58c7 0 12 -5 12 -12v-431h45c96 0 148 43 148 135v296c0 7 4 12 11 12h60c7 0 11 -5 11 -12v-299
c0 -139 -103 -206 -216 -206h-59v-180c0 -7 -5 -11 -12 -11z" />
    <glyph glyph-name="omega" unicode="&#x3c9;" horiz-adv-x="759" 
d="M519 468l14 52c1 6 7 10 13 8c94 -18 161 -85 161 -189v-165c0 -117 -91 -185 -180 -185c-72 0 -120 36 -147 95c-27 -59 -76 -95 -148 -95c-89 0 -181 68 -181 185v165c0 104 68 171 161 189c7 2 13 -2 14 -8l13 -52c2 -7 -1 -11 -8 -13c-60 -11 -98 -54 -98 -119v-159
c0 -71 49 -114 102 -114c65 0 104 44 104 114v148c0 7 4 11 11 11h59c7 0 11 -4 11 -11v-148c0 -70 39 -114 104 -114c53 0 101 43 101 114v159c0 65 -37 108 -97 119c-8 2 -10 6 -9 13z" />
    <glyph glyph-name="iotatonos" unicode="&#x3af;" horiz-adv-x="220" 
d="M114 597h-45c-9 0 -14 6 -9 14l81 133c3 4 9 7 14 7h63c9 0 12 -6 6 -14l-96 -133c-3 -4 -8 -7 -14 -7zM139 0h-59c-7 0 -11 4 -11 11v494c0 7 4 12 11 12h59c8 0 12 -5 12 -12v-494c0 -7 -4 -11 -12 -11z" />
    <glyph glyph-name="iotadieresis" unicode="&#x3ca;" horiz-adv-x="220" 
d="M139 0h-59c-7 0 -11 4 -11 11v494c0 7 4 12 11 12h59c8 0 12 -5 12 -12v-494c0 -7 -4 -11 -12 -11zM86 662c0 -26 -19 -46 -46 -46c-26 0 -46 20 -46 46c0 27 20 47 46 47c27 0 46 -20 46 -47zM225 662c0 -26 -20 -46 -47 -46s-46 20 -46 46c0 27 19 47 46 47
s47 -20 47 -47z" />
    <glyph glyph-name="iotadieresistonos" unicode="&#x390;" horiz-adv-x="220" 
d="M140 0h-59c-7 0 -12 4 -12 11v494c0 7 5 12 12 12h59c7 0 11 -5 11 -12v-494c0 -7 -4 -11 -11 -11zM55 665c0 -25 -17 -42 -42 -42c-24 0 -42 17 -42 42s18 42 42 42c25 0 42 -17 42 -42zM107 598h-31c-8 0 -12 5 -9 13l47 120c2 6 7 9 13 9h47c9 0 12 -6 8 -14l-62 -120
c-3 -6 -8 -8 -13 -8zM272 665c0 -25 -16 -42 -41 -42s-42 17 -42 42s17 42 42 42s41 -17 41 -42z" />
    <glyph glyph-name="upsilontonos" unicode="&#x3cd;" horiz-adv-x="558" 
d="M493 187c0 -119 -92 -199 -214 -198c-122 0 -214 79 -214 198v318c0 7 4 12 12 12h59c7 0 11 -5 11 -12v-318c0 -82 55 -124 132 -125c77 0 132 43 132 125v318c0 7 4 12 11 12h59c8 0 12 -5 12 -12v-318zM284 597h-45c-9 0 -14 6 -9 14l81 133c3 4 9 7 14 7h63
c9 0 12 -6 6 -14l-96 -133c-3 -4 -8 -7 -14 -7z" />
    <glyph glyph-name="upsilondieresis" unicode="&#x3cb;" horiz-adv-x="558" 
d="M493 187c0 -119 -92 -199 -214 -198c-122 0 -214 79 -214 198v318c0 7 4 12 12 12h59c7 0 11 -5 11 -12v-318c0 -82 55 -124 132 -125c77 0 132 43 132 125v318c0 7 4 12 11 12h59c8 0 12 -5 12 -12v-318zM231 662c0 -29 -19 -47 -47 -47c-27 0 -47 18 -47 47
c0 30 20 48 47 48c28 0 47 -18 47 -48zM423 662c0 -29 -20 -47 -47 -47c-28 0 -48 18 -48 47c0 30 20 48 48 48c27 0 47 -18 47 -48z" />
    <glyph glyph-name="upsilondieresistonos" unicode="&#x3b0;" horiz-adv-x="558" 
d="M493 187c0 -119 -92 -199 -214 -198c-122 0 -214 79 -214 198v318c0 7 4 12 12 12h59c7 0 11 -5 11 -12v-318c0 -82 55 -124 132 -125c77 0 132 43 132 125v318c0 7 4 12 11 12h59c8 0 12 -5 12 -12v-318zM269 598h-34c-8 0 -12 5 -10 13l53 131c2 6 7 9 13 9h51
c8 0 11 -6 8 -13l-68 -132c-2 -6 -7 -8 -13 -8zM202 662c0 -26 -18 -43 -44 -43c-25 0 -44 17 -44 43c0 27 19 44 44 44c26 0 44 -17 44 -44zM446 662c0 -26 -18 -43 -43 -43c-26 0 -45 17 -45 43c0 27 19 44 45 44c25 0 43 -17 43 -44z" />
    <glyph glyph-name="omicrontonos" unicode="&#x3cc;" horiz-adv-x="540" 
d="M254 597h-45c-9 0 -14 6 -9 14l81 133c3 4 9 7 14 7h63c9 0 12 -6 6 -14l-96 -133c-3 -4 -8 -7 -14 -7zM490 185c0 -117 -84 -196 -220 -196c-135 0 -220 79 -220 196v144c0 117 85 199 220 199c136 0 220 -82 220 -199v-144zM133 185c0 -75 48 -123 137 -123
c90 0 138 48 138 123v144c0 76 -48 125 -138 125c-89 0 -137 -49 -137 -125v-144z" />
    <glyph glyph-name="omegatonos" unicode="&#x3ce;" horiz-adv-x="759" 
d="M519 468l14 52c1 6 7 10 13 8c94 -18 161 -85 161 -189v-165c0 -117 -91 -185 -180 -185c-72 0 -120 36 -147 95c-27 -59 -76 -95 -148 -95c-89 0 -181 68 -181 185v165c0 104 68 171 161 189c7 2 13 -2 14 -8l13 -52c2 -7 -1 -11 -8 -13c-60 -11 -98 -54 -98 -119v-159
c0 -71 49 -114 102 -114c65 0 104 44 104 114v148c0 7 4 11 11 11h59c7 0 11 -4 11 -11v-148c0 -70 39 -114 104 -114c53 0 101 43 101 114v159c0 65 -37 108 -97 119c-8 2 -10 6 -9 13zM384 597h-45c-9 0 -14 6 -9 14l81 133c3 4 9 7 14 7h63c9 0 12 -6 6 -14l-96 -133
c-3 -4 -8 -7 -14 -7z" />
    <glyph glyph-name="alphatonos" unicode="&#x3ac;" horiz-adv-x="541" 
d="M397 57c-39 -44 -95 -68 -153 -68c-106 0 -194 60 -194 206v124c0 140 102 209 222 209c63 0 128 -14 192 -36c6 -2 9 -6 9 -13v-468c0 -7 -4 -11 -11 -11h-49c-7 0 -11 4 -12 11zM133 195c0 -93 41 -133 123 -133c44 0 96 22 135 65v311c-39 11 -83 17 -122 17
c-76 0 -136 -46 -136 -136v-124zM270 597h-45c-9 0 -14 6 -9 14l81 133c3 4 9 7 14 7h63c9 0 12 -6 6 -14l-96 -133c-3 -4 -8 -7 -14 -7z" />
    <glyph glyph-name="epsilontonos" unicode="&#x3ad;" horiz-adv-x="486" 
d="M253 62c59 0 111 25 155 63c6 5 11 4 16 -1l32 -38c5 -6 5 -11 0 -16c-66 -62 -130 -81 -207 -81c-120 0 -206 69 -206 163c0 57 29 100 88 121c-44 21 -70 55 -70 105c0 87 78 150 193 150c81 0 145 -31 188 -67c6 -5 5 -11 1 -17l-30 -38c-5 -5 -11 -6 -17 -1
c-31 26 -78 51 -141 51c-66 0 -112 -26 -112 -79c0 -48 37 -78 97 -78h99c7 0 11 -5 11 -12v-40c0 -8 -4 -12 -11 -12h-100c-72 0 -113 -28 -113 -82c0 -58 49 -91 127 -91zM247 597h-45c-9 0 -14 6 -9 14l81 133c3 4 9 7 14 7h63c9 0 12 -6 6 -14l-96 -133
c-3 -4 -8 -7 -14 -7z" />
    <glyph glyph-name="etatonos" unicode="&#x3ae;" horiz-adv-x="557" 
d="M280 597h-45c-9 0 -14 6 -9 14l81 133c3 4 9 7 14 7h63c9 0 12 -6 6 -14l-96 -133c-3 -4 -8 -7 -14 -7zM138 0h-59c-7 0 -11 4 -11 11v464c0 6 2 11 8 14c57 24 123 39 192 39c134 0 225 -63 225 -216v-301c0 -7 -4 -11 -12 -11h-59c-7 0 -11 4 -11 11v299
c0 104 -53 144 -143 144c-42 0 -87 -8 -118 -18v-425c0 -7 -4 -11 -12 -11z" />
    <glyph glyph-name="zero" unicode="0" horiz-adv-x="610" 
d="M544 225c0 -164 -116 -236 -238 -236c-123 0 -240 72 -240 236v267c0 163 117 234 240 234c122 0 238 -71 238 -234v-267zM149 222c0 -111 76 -153 157 -153c80 0 155 42 155 153v267c0 115 -74 157 -155 157c-82 0 -157 -42 -157 -157v-267z" />
    <glyph glyph-name="one" unicode="1" horiz-adv-x="358" 
d="M258 0h-59c-8 0 -12 4 -12 11v605l-123 -82c-6 -4 -12 -3 -16 3l-28 46c-4 5 -2 12 3 16l169 112c5 3 9 4 15 4h51c8 0 12 -4 12 -11v-693c0 -7 -4 -11 -12 -11z" />
    <glyph glyph-name="two" unicode="2" horiz-adv-x="554" 
d="M495 0h-444c-7 0 -11 4 -11 11v41c0 5 1 10 6 14l195 205c94 99 166 179 166 261c0 57 -36 116 -127 116c-81 0 -134 -42 -176 -88c-5 -6 -11 -5 -16 0l-32 44c-4 5 -4 11 0 16c48 54 117 106 223 106c125 0 212 -73 212 -193c0 -102 -68 -185 -176 -303
c-35 -39 -86 -94 -147 -153h327c7 0 11 -4 11 -12v-54c0 -7 -4 -11 -11 -11z" />
    <glyph glyph-name="three" unicode="3" horiz-adv-x="564" 
d="M515 222c0 -143 -102 -232 -241 -232c-109 0 -177 40 -237 99c-5 5 -5 11 0 16l34 37c6 5 12 5 17 0c51 -43 98 -74 186 -74c93 0 157 56 157 155c0 94 -60 147 -167 147c-16 0 -39 -2 -61 -6c-6 -1 -11 2 -13 8l-13 27c-3 5 -2 11 2 16l128 139c20 22 61 66 82 84h-309
c-7 0 -11 4 -11 12v54c0 7 4 11 11 11h407c7 0 11 -4 11 -11v-39c0 -5 -2 -10 -5 -14l-206 -222l7 -1c122 2 221 -75 221 -206z" />
    <glyph glyph-name="four" unicode="4" horiz-adv-x="558" 
d="M438 0h-60c-7 0 -11 4 -11 11v156h-327c-8 0 -12 4 -12 11v44c0 5 1 9 4 14l260 471c3 6 8 8 13 8h70c9 0 12 -6 8 -14l-253 -458h237v153c0 7 4 11 11 11h60c7 0 12 -4 12 -11v-153h67c7 0 11 -4 11 -11v-54c0 -7 -4 -11 -11 -11h-67v-156c0 -7 -5 -11 -12 -11z" />
    <glyph glyph-name="five" unicode="5" horiz-adv-x="576" 
d="M529 236c0 -148 -92 -245 -241 -245c-92 0 -167 33 -229 96c-5 6 -5 11 0 16l40 41c5 6 10 5 16 -1c51 -48 104 -73 175 -73c99 0 155 63 155 165c0 106 -54 154 -152 154c-68 0 -112 -21 -148 -55c-5 -5 -9 -6 -15 -4l-48 17c-6 2 -10 6 -10 13l13 344c0 7 4 11 12 11
h384c7 0 12 -4 12 -11v-56c0 -7 -5 -11 -12 -11h-321l-8 -214c41 30 89 45 148 45c136 0 229 -79 229 -232z" />
    <glyph glyph-name="six" unicode="6" horiz-adv-x="589" 
d="M150 385c37 47 92 71 162 71c141 0 230 -81 230 -228c0 -144 -98 -239 -238 -239s-238 93 -238 232v273c0 153 109 232 236 232c78 0 150 -27 207 -73c5 -5 5 -10 1 -16l-32 -43c-4 -7 -10 -8 -16 -3c-43 35 -98 57 -159 57c-84 0 -153 -52 -153 -150v-113zM150 221
c0 -94 61 -153 156 -153c94 0 152 60 152 159c0 97 -50 151 -149 151c-82 0 -159 -42 -159 -145v-12z" />
    <glyph glyph-name="seven" unicode="7" horiz-adv-x="522" 
d="M172 0h-70c-8 0 -12 6 -8 14l300 621h-357c-7 0 -11 4 -11 11v58c0 7 4 11 11 11h452c8 0 12 -4 12 -11v-35c0 -4 -1 -9 -3 -13l-313 -648c-2 -5 -7 -8 -13 -8z" />
    <glyph glyph-name="eight" unicode="8" horiz-adv-x="611" 
d="M556 205c0 -135 -101 -216 -250 -216c-150 0 -251 81 -251 216c0 73 39 143 117 172c-65 29 -98 86 -98 158c0 106 92 191 232 191c138 0 231 -85 231 -191c0 -72 -33 -129 -98 -158c78 -29 117 -99 117 -172zM139 206c0 -81 62 -139 167 -139c104 0 166 58 166 139
c0 77 -64 128 -166 128c-103 0 -167 -51 -167 -128zM157 532c0 -74 52 -123 149 -123c96 0 148 49 148 123c0 73 -57 116 -148 116c-92 0 -149 -43 -149 -116z" />
    <glyph glyph-name="nine" unicode="9" horiz-adv-x="589" 
d="M48 487c0 144 98 239 237 239c140 0 238 -93 238 -232v-273c0 -153 -108 -232 -235 -232c-80 0 -153 33 -210 87c-5 5 -5 11 -1 16l33 45c4 6 10 6 16 1c43 -42 97 -70 161 -70c83 0 153 52 153 149v112c-38 -46 -93 -70 -163 -70c-140 0 -229 80 -229 228zM131 488
c0 -97 50 -151 153 -151c79 0 156 46 156 145v12c0 95 -62 154 -156 154s-153 -60 -153 -160z" />
    <glyph glyph-name="zero.sinf" unicode="&#x2080;" horiz-adv-x="350" 
d="M310 27c0 -87 -67 -132 -135 -132s-135 45 -135 132v133c0 89 67 133 135 133c69 0 135 -44 135 -133v-133zM98 30c0 -55 38 -78 77 -78s77 23 77 78v127c0 56 -38 79 -77 79s-77 -23 -77 -79v-127z" />
    <glyph glyph-name="one.sinf" unicode="&#x2081;" horiz-adv-x="211" 
d="M147 -100h-36c-7 0 -11 4 -11 11v307l-50 -35c-6 -5 -11 -3 -15 3l-17 24c-4 5 -3 10 3 15l82 58c4 3 8 5 14 5h30c7 0 11 -4 11 -11v-366c0 -7 -4 -11 -11 -11z" />
    <glyph glyph-name="two.sinf" unicode="&#x2082;" horiz-adv-x="319" 
d="M277 -100h-239c-7 0 -11 4 -11 11v30c0 5 1 10 5 14l107 103c46 49 83 87 83 129c0 32 -23 50 -63 50c-39 0 -65 -19 -85 -39c-6 -6 -12 -5 -16 1l-19 25c-4 6 -4 11 1 16c25 26 67 53 122 53c74 0 118 -44 118 -105c0 -60 -36 -105 -107 -174l-60 -57h164
c7 0 11 -4 11 -11v-35c0 -7 -4 -11 -11 -11z" />
    <glyph glyph-name="three.sinf" unicode="&#x2083;" horiz-adv-x="321" 
d="M290 22c0 -76 -58 -128 -132 -127c-62 1 -101 25 -132 56c-4 5 -5 11 -1 15l20 24c5 6 10 6 16 1c24 -25 56 -40 97 -40c43 0 74 29 74 77c0 39 -27 68 -76 68c-12 0 -24 -1 -34 -3c-7 -1 -12 1 -14 8l-6 13c-2 6 -1 11 3 16l71 80l24 25h-146c-8 0 -12 4 -12 11v31
c0 7 4 11 12 11h215c7 0 11 -4 11 -11v-19c0 -5 -2 -9 -6 -13l-100 -111h13c63 0 103 -50 103 -112z" />
    <glyph glyph-name="four.sinf" unicode="&#x2084;" horiz-adv-x="328" 
d="M253 -100h-36c-7 0 -11 4 -11 11v73h-174c-7 0 -11 4 -11 11v22c0 5 1 9 3 14l138 249c3 5 8 8 13 8h37c9 0 12 -6 8 -14l-129 -233h115v72c0 7 4 12 11 12h36c7 0 11 -5 11 -12v-72h29c8 0 12 -4 12 -12v-34c0 -7 -4 -11 -12 -11h-29v-73c0 -7 -4 -11 -11 -11z" />
    <glyph glyph-name="five.sinf" unicode="&#x2085;" horiz-adv-x="333" 
d="M303 28c0 -86 -57 -133 -137 -133c-61 0 -98 22 -127 58c-5 6 -3 11 2 16l19 22c6 6 11 4 16 -1c22 -24 50 -38 89 -38c48 0 78 26 79 76c0 52 -31 75 -77 75c-34 0 -59 -13 -77 -32c-5 -5 -10 -6 -16 -4l-24 8c-6 1 -10 5 -10 13l7 189c0 7 4 11 12 11h211
c7 0 11 -4 11 -11v-33c0 -7 -4 -12 -11 -12h-173l-3 -104c21 19 48 29 81 29c66 0 128 -41 128 -129z" />
    <glyph glyph-name="six.sinf" unicode="&#x2086;" horiz-adv-x="336" 
d="M305 27c0 -80 -54 -132 -130 -132c-81 0 -135 52 -135 132v143c0 79 59 123 133 123c46 0 85 -18 115 -45c6 -5 6 -10 2 -16l-19 -23c-4 -6 -11 -7 -16 -2c-22 17 -46 31 -81 31c-47 0 -76 -27 -76 -70v-56c18 23 45 37 81 37c69 0 126 -42 126 -122zM98 27
c0 -46 32 -75 74 -75c46 0 75 30 75 75c0 43 -28 69 -74 69c-44 0 -75 -28 -75 -69z" />
    <glyph glyph-name="seven.sinf" unicode="&#x2087;" horiz-adv-x="304" 
d="M110 -100h-41c-8 0 -11 6 -8 13l151 318h-179c-7 0 -11 4 -11 11v35c0 7 4 11 11 11h240c7 0 11 -4 11 -11v-24c0 -5 -1 -9 -3 -14l-158 -331c-3 -6 -7 -8 -13 -8z" />
    <glyph glyph-name="eight.sinf" unicode="&#x2088;" horiz-adv-x="346" 
d="M311 14c0 -74 -57 -119 -138 -119s-138 45 -138 119c0 38 20 75 62 91c-35 16 -53 45 -53 83c0 63 51 105 129 105c76 0 128 -42 128 -105c0 -38 -18 -67 -53 -83c43 -16 63 -53 63 -91zM101 186c0 -31 25 -56 72 -56s71 25 71 56c0 32 -29 53 -71 53
c-43 0 -72 -21 -72 -53zM94 15c0 -36 29 -63 79 -63s79 27 79 63c0 34 -29 58 -79 58s-79 -24 -79 -58z" />
    <glyph glyph-name="nine.sinf" unicode="&#x2089;" horiz-adv-x="338" 
d="M32 163c0 78 54 130 130 130c81 0 135 -51 135 -132v-143c0 -79 -58 -123 -133 -123c-47 0 -86 18 -117 45c-6 5 -6 10 -2 16l19 23c4 6 11 7 16 2c22 -17 47 -31 83 -31c47 0 76 27 76 70v57c-18 -23 -45 -38 -81 -38c-69 0 -126 42 -126 124zM239 161
c0 46 -32 75 -74 75c-45 0 -75 -29 -75 -73s28 -71 74 -71c44 0 75 28 75 69z" />
    <glyph glyph-name="zero.tf" horiz-adv-x="580" 
d="M529 225c0 -164 -116 -236 -239 -236c-122 0 -239 72 -239 236v267c0 163 116 234 239 234s239 -71 239 -234v-267zM134 222c0 -111 75 -153 156 -153s156 42 156 153v267c0 115 -75 157 -156 157s-156 -42 -156 -157v-267z" />
    <glyph glyph-name="one.tf" horiz-adv-x="580" 
d="M346 704v-626h157c8 0 12 -4 12 -11v-56c0 -7 -4 -11 -12 -11h-398c-7 0 -11 4 -11 11v56c0 7 4 11 11 11h158v538l-123 -82c-5 -4 -11 -3 -15 3l-29 46c-4 5 -2 12 4 16l169 112c4 3 9 4 14 4h52c7 0 11 -4 11 -11z" />
    <glyph glyph-name="two.tf" horiz-adv-x="580" 
d="M508 0h-444c-7 0 -11 4 -11 11v41c0 5 1 10 5 14l195 205c94 99 167 179 167 261c0 57 -36 116 -128 116c-80 0 -133 -42 -176 -88c-4 -6 -10 -5 -15 0l-32 44c-5 5 -5 11 0 16c47 54 116 106 223 106c124 0 212 -73 212 -193c0 -102 -69 -185 -176 -303
c-35 -39 -87 -94 -147 -153h327c7 0 11 -4 11 -12v-54c0 -7 -4 -11 -11 -11z" />
    <glyph glyph-name="three.tf" horiz-adv-x="580" 
d="M522 222c0 -143 -101 -232 -240 -232c-108 0 -176 39 -236 96c-5 6 -5 11 0 16l32 38c6 5 11 4 17 0c51 -42 99 -72 187 -72c93 0 156 56 156 155c0 94 -59 147 -166 147c-17 0 -40 -2 -61 -6c-6 -1 -11 2 -13 8l-14 27c-2 5 -1 11 3 16l128 139c19 22 61 66 82 84h-309
c-7 0 -11 4 -11 12v54c0 7 4 11 11 11h407c7 0 11 -4 11 -11v-39c0 -5 -2 -10 -6 -14l-205 -222l6 -1c123 2 221 -75 221 -206z" />
    <glyph glyph-name="four.tf" horiz-adv-x="580" 
d="M449 0h-60c-7 0 -11 4 -11 11v156h-327c-8 0 -12 4 -12 11v44c0 5 1 9 4 14l260 471c3 6 8 8 13 8h70c9 0 12 -6 8 -14l-253 -458h237v153c0 7 4 11 11 11h60c7 0 12 -4 12 -11v-153h67c7 0 11 -4 11 -11v-54c0 -7 -4 -11 -11 -11h-67v-156c0 -7 -5 -11 -12 -11z" />
    <glyph glyph-name="five.tf" horiz-adv-x="580" 
d="M531 236c0 -148 -92 -247 -241 -247c-91 0 -167 35 -229 98c-5 6 -5 11 0 16l40 41c5 6 11 5 16 -1c51 -48 104 -75 176 -75c98 0 154 65 154 167c0 106 -54 154 -152 154c-68 0 -112 -21 -148 -55c-4 -5 -9 -6 -15 -4l-51 17c-5 2 -10 6 -10 13l13 344c0 7 5 11 12 11
h387c8 0 12 -4 12 -11v-56c0 -7 -4 -11 -12 -11h-318l-7 -214c41 30 85 45 144 45c136 0 229 -79 229 -232z" />
    <glyph glyph-name="six.tf" horiz-adv-x="580" 
d="M145 385c37 47 92 71 162 71c141 0 230 -81 230 -228c0 -144 -97 -239 -238 -239c-139 0 -237 93 -237 232v273c0 153 105 232 235 232c79 0 151 -27 208 -73c6 -5 6 -10 1 -16l-32 -43c-4 -7 -10 -8 -15 -3c-44 35 -96 57 -161 57c-84 0 -153 -52 -153 -150v-113z
M145 221c0 -94 61 -153 156 -153c94 0 152 60 152 159c0 97 -50 151 -149 151c-82 0 -159 -42 -159 -145v-12z" />
    <glyph glyph-name="seven.tf" horiz-adv-x="580" 
d="M201 0h-70c-8 0 -12 6 -8 14l300 621h-356c-8 0 -12 4 -12 11v58c0 7 4 11 12 11h452c7 0 11 -4 11 -11v-35c0 -4 -1 -9 -3 -13l-312 -648c-3 -5 -8 -8 -14 -8z" />
    <glyph glyph-name="eight.tf" horiz-adv-x="580" 
d="M540 205c0 -135 -100 -216 -250 -216c-149 0 -250 81 -250 216c0 73 39 143 117 172c-65 29 -99 86 -99 158c0 106 93 191 232 191s232 -85 232 -191c0 -72 -33 -129 -98 -158c78 -29 116 -99 116 -172zM124 206c0 -81 61 -139 166 -139s167 58 167 139
c0 77 -65 128 -167 128s-166 -51 -166 -128zM142 532c0 -74 52 -123 148 -123c97 0 149 49 149 123c0 73 -57 116 -149 116c-91 0 -148 -43 -148 -116z" />
    <glyph glyph-name="nine.tf" horiz-adv-x="580" 
d="M43 487c0 144 98 239 237 239c140 0 238 -93 238 -232v-273c0 -153 -108 -232 -235 -232c-78 0 -151 32 -208 83c-6 6 -6 11 -2 17l33 44c4 6 10 6 16 2c44 -40 98 -67 160 -67c83 0 153 52 153 149v112c-38 -46 -93 -70 -163 -70c-140 0 -229 80 -229 228zM126 488
c0 -97 50 -151 153 -151c79 0 156 46 156 145v12c0 95 -62 154 -156 154s-153 -60 -153 -160z" />
    <glyph glyph-name="zero.dnom" horiz-adv-x="350" 
d="M310 127c0 -87 -67 -132 -135 -132s-135 45 -135 132v133c0 89 67 133 135 133c69 0 135 -44 135 -133v-133zM98 130c0 -55 38 -78 77 -78s77 23 77 78v127c0 56 -38 79 -77 79s-77 -23 -77 -79v-127z" />
    <glyph glyph-name="one.dnom" horiz-adv-x="211" 
d="M147 0h-36c-7 0 -11 4 -11 11v307l-50 -35c-6 -5 -11 -3 -15 3l-17 24c-4 5 -3 10 3 15l82 58c4 4 8 5 14 5h30c7 0 11 -4 11 -11v-366c0 -7 -4 -11 -11 -11z" />
    <glyph glyph-name="two.dnom" horiz-adv-x="319" 
d="M276 0h-238c-7 0 -11 4 -11 11v30c0 5 1 10 5 14l106 103c47 49 83 87 83 129c0 32 -22 50 -62 50c-39 0 -66 -19 -85 -39c-6 -6 -12 -5 -17 1l-18 25c-4 6 -4 11 0 16c26 26 67 53 123 53c74 0 118 -44 118 -105c0 -60 -36 -105 -107 -174c-22 -21 -45 -42 -60 -57h163
c8 0 12 -4 12 -11v-35c0 -7 -4 -11 -12 -11z" />
    <glyph glyph-name="three.dnom" horiz-adv-x="321" 
d="M289 122c0 -76 -58 -128 -131 -127c-62 1 -101 25 -133 56c-4 5 -4 11 0 15l19 24c6 6 10 6 16 1c24 -25 57 -40 97 -40c44 0 75 29 75 77c0 39 -28 68 -77 68c-12 0 -24 -1 -34 -3c-7 -1 -12 1 -14 8l-6 13c-2 6 -1 11 3 16l71 80l24 25h-146c-7 0 -11 4 -11 11v31
c0 7 4 11 11 11h216c7 0 11 -4 11 -11v-19c0 -5 -2 -9 -6 -13l-100 -111h12c63 0 103 -50 103 -112z" />
    <glyph glyph-name="four.dnom" horiz-adv-x="328" 
d="M253 0h-36c-7 0 -11 4 -11 11v73h-174c-7 0 -11 4 -11 11v22c0 5 1 9 3 14l138 249c3 5 8 8 13 8h37c9 0 12 -6 8 -14l-129 -233h115v72c0 7 4 12 11 12h36c7 0 11 -5 11 -12v-72h29c8 0 12 -4 12 -12v-34c0 -7 -4 -11 -12 -11h-29v-73c0 -7 -4 -11 -11 -11z" />
    <glyph glyph-name="five.dnom" horiz-adv-x="333" 
d="M302 128c0 -86 -56 -133 -137 -133c-61 0 -98 22 -127 56c-5 6 -3 12 2 17l19 23c6 6 11 4 16 -1c22 -24 50 -38 89 -38c48 0 78 26 79 76c0 52 -31 75 -77 75c-34 0 -58 -13 -77 -32c-5 -5 -10 -6 -16 -4l-24 8c-5 1 -9 5 -9 13l6 189c0 7 5 11 12 11h211
c7 0 11 -4 11 -11v-33c0 -7 -4 -12 -11 -12h-173l-3 -104c21 19 48 29 81 29c67 0 128 -41 128 -129z" />
    <glyph glyph-name="six.dnom" horiz-adv-x="336" 
d="M305 127c0 -80 -54 -132 -130 -132c-81 0 -135 52 -135 132v143c0 79 59 123 134 123c47 0 86 -18 117 -45c6 -5 6 -10 1 -16l-18 -23c-4 -6 -11 -7 -16 -2c-22 17 -47 31 -82 31c-48 0 -78 -27 -78 -70v-56c18 23 45 37 81 37c69 0 126 -42 126 -122zM98 127
c0 -46 32 -75 74 -75c45 0 75 30 75 75c0 43 -28 69 -74 69c-44 0 -75 -28 -75 -69z" />
    <glyph glyph-name="seven.dnom" horiz-adv-x="304" 
d="M110 0h-41c-8 0 -11 6 -8 13l151 318h-179c-7 0 -11 4 -11 11v35c0 7 4 11 11 11h239c8 0 12 -4 12 -11v-24c0 -5 -1 -9 -3 -14l-158 -331c-3 -6 -7 -8 -13 -8z" />
    <glyph glyph-name="eight.dnom" horiz-adv-x="346" 
d="M311 114c0 -74 -57 -119 -138 -119s-138 45 -138 119c0 38 20 75 63 91c-36 16 -54 45 -54 83c0 63 51 105 129 105c76 0 128 -42 128 -105c0 -38 -18 -67 -53 -83c43 -16 63 -53 63 -91zM102 286c0 -31 24 -56 71 -56s71 25 71 56c0 32 -29 53 -71 53
c-43 0 -71 -21 -71 -53zM94 115c0 -36 29 -63 79 -63s79 27 79 63c0 34 -29 58 -79 58s-79 -24 -79 -58z" />
    <glyph glyph-name="nine.dnom" horiz-adv-x="338" 
d="M32 266c0 76 54 127 132 127c79 0 134 -51 134 -130v-145c0 -79 -58 -123 -133 -123c-48 0 -89 20 -120 50c-5 5 -5 11 -1 17l19 24c4 6 11 7 16 2c22 -21 49 -37 84 -37c48 0 77 27 77 69v58c-17 -23 -46 -38 -82 -38c-68 0 -126 43 -126 126zM240 264
c0 45 -31 74 -75 74s-74 -29 -74 -72c0 -46 28 -73 73 -73c46 0 76 28 76 71z" />
    <glyph glyph-name="zero.numr" horiz-adv-x="350" 
d="M310 454c0 -87 -67 -132 -135 -132s-135 45 -135 132v133c0 89 67 133 135 133c69 0 135 -44 135 -133v-133zM98 457c0 -55 38 -78 77 -78s77 23 77 78v127c0 56 -38 79 -77 79s-77 -23 -77 -79v-127z" />
    <glyph glyph-name="one.numr" horiz-adv-x="211" 
d="M147 327h-36c-7 0 -11 4 -11 11v307l-50 -35c-6 -5 -11 -3 -15 3l-17 23c-4 6 -3 11 3 16l82 58c4 3 8 5 14 5h30c7 0 11 -4 11 -12v-365c0 -7 -4 -11 -11 -11z" />
    <glyph glyph-name="two.numr" horiz-adv-x="319" 
d="M276 327h-238c-7 0 -11 4 -11 11v30c0 5 1 10 5 14l106 103c47 49 83 87 83 129c0 32 -22 50 -62 50c-39 0 -66 -19 -85 -39c-6 -6 -12 -5 -17 1l-18 25c-4 6 -4 11 0 16c26 26 67 53 123 53c74 0 118 -44 118 -105c0 -60 -36 -105 -107 -174c-22 -21 -45 -42 -60 -57
h163c8 0 12 -4 12 -11v-35c0 -7 -4 -11 -12 -11z" />
    <glyph glyph-name="three.numr" horiz-adv-x="321" 
d="M289 449c0 -76 -58 -128 -131 -127c-62 1 -101 25 -133 56c-4 5 -4 11 0 15l19 24c6 6 10 6 16 1c24 -25 57 -40 97 -40c44 0 75 29 75 77c0 39 -28 68 -77 68c-12 0 -24 -1 -34 -3c-7 -1 -12 1 -14 8l-6 13c-2 6 -1 11 3 16l71 80l24 25h-146c-7 0 -11 4 -11 11v31
c0 7 4 11 11 11h216c7 0 11 -4 11 -11v-19c0 -5 -2 -9 -6 -13l-100 -111h12c63 0 103 -50 103 -112z" />
    <glyph glyph-name="four.numr" horiz-adv-x="328" 
d="M253 327h-36c-7 0 -11 4 -11 11v73h-174c-7 0 -11 4 -11 11v22c0 5 1 9 3 14l138 249c3 5 8 8 13 8h37c9 0 12 -6 8 -14l-129 -233h115v72c0 7 4 12 11 12h36c7 0 11 -5 11 -12v-72h29c8 0 12 -4 12 -12v-34c0 -7 -4 -11 -12 -11h-29v-73c0 -7 -4 -11 -11 -11z" />
    <glyph glyph-name="five.numr" horiz-adv-x="333" 
d="M302 455c0 -86 -56 -133 -137 -133c-61 0 -98 22 -127 56c-5 6 -3 12 2 17l19 23c6 6 11 4 16 -1c22 -24 50 -38 89 -38c48 0 78 26 79 76c0 52 -31 75 -77 75c-34 0 -58 -13 -77 -32c-5 -5 -10 -6 -16 -4l-24 8c-5 1 -9 5 -9 13l6 189c0 7 5 11 12 11h211
c7 0 11 -4 11 -11v-33c0 -7 -4 -12 -11 -12h-173l-3 -104c21 19 48 29 81 29c67 0 128 -41 128 -129z" />
    <glyph glyph-name="six.numr" horiz-adv-x="336" 
d="M305 454c0 -80 -54 -132 -130 -132c-81 0 -135 52 -135 132v143c0 79 59 123 133 123c46 0 85 -18 115 -45c6 -5 6 -10 2 -16l-19 -23c-4 -6 -11 -7 -16 -2c-22 17 -46 31 -81 31c-47 0 -76 -27 -76 -70v-56c18 23 45 37 81 37c69 0 126 -42 126 -122zM98 454
c0 -46 32 -75 74 -75c45 0 75 30 75 75c0 43 -28 69 -74 69c-44 0 -75 -28 -75 -69z" />
    <glyph glyph-name="seven.numr" horiz-adv-x="304" 
d="M110 327h-41c-8 0 -11 6 -8 13l151 318h-179c-7 0 -11 4 -11 11v35c0 7 4 11 11 11h240c7 0 11 -4 11 -11v-24c0 -5 -1 -9 -3 -14l-158 -331c-2 -6 -7 -8 -13 -8z" />
    <glyph glyph-name="eight.numr" horiz-adv-x="346" 
d="M311 441c0 -74 -57 -119 -138 -119s-138 45 -138 119c0 38 20 75 63 91c-36 16 -54 45 -54 83c0 63 51 105 129 105c76 0 128 -42 128 -105c0 -38 -18 -67 -53 -83c43 -16 63 -53 63 -91zM102 613c0 -31 24 -56 71 -56s71 25 71 56c0 32 -29 53 -71 53
c-43 0 -71 -21 -71 -53zM94 442c0 -36 29 -63 79 -63s79 27 79 63c0 34 -29 58 -79 58s-79 -24 -79 -58z" />
    <glyph glyph-name="nine.numr" horiz-adv-x="338" 
d="M32 593c0 76 54 127 132 127c79 0 134 -51 134 -130v-145c0 -79 -58 -123 -133 -123c-48 0 -89 20 -120 50c-5 5 -5 11 -1 17l19 24c4 6 11 7 16 2c22 -21 49 -37 84 -37c48 0 77 27 77 69v58c-17 -23 -46 -38 -82 -38c-68 0 -126 43 -126 126zM240 591
c0 45 -31 74 -75 74s-74 -29 -74 -72c0 -46 28 -73 73 -73c46 0 76 28 76 71z" />
    <glyph glyph-name="zero.sups" unicode="&#x2070;" horiz-adv-x="350" 
d="M310 537c0 -87 -67 -132 -135 -132s-135 45 -135 132v133c0 89 67 133 135 133c69 0 135 -44 135 -133v-133zM98 540c0 -55 38 -78 77 -78s77 23 77 78v127c0 56 -38 79 -77 79s-77 -23 -77 -79v-127z" />
    <glyph glyph-name="one.sups" unicode="&#xb9;" horiz-adv-x="211" 
d="M147 410h-36c-7 0 -11 4 -11 11v307l-50 -35c-6 -5 -11 -3 -15 3l-17 24c-4 5 -3 10 3 15l82 58c4 3 8 5 14 5h30c7 0 11 -4 11 -11v-366c0 -7 -4 -11 -11 -11z" />
    <glyph glyph-name="two.sups" unicode="&#xb2;" horiz-adv-x="319" 
d="M276 410h-238c-7 0 -11 4 -11 11v30c0 5 1 10 5 14l106 103c47 49 83 87 83 129c0 32 -22 50 -62 50c-39 0 -66 -19 -85 -39c-6 -6 -12 -5 -17 1l-18 25c-4 6 -4 11 0 16c26 26 67 53 123 53c74 0 118 -44 118 -105c0 -60 -36 -105 -107 -174c-22 -21 -45 -42 -60 -57
h163c8 0 12 -4 12 -11v-35c0 -7 -4 -11 -12 -11z" />
    <glyph glyph-name="three.sups" unicode="&#xb3;" horiz-adv-x="321" 
d="M289 532c0 -76 -58 -128 -131 -127c-62 1 -101 25 -133 56c-4 5 -4 11 0 15l19 24c6 6 10 6 16 1c24 -25 57 -40 97 -40c44 0 75 29 75 77c0 39 -28 68 -77 68c-12 0 -24 -1 -34 -3c-7 -1 -12 1 -14 8l-6 13c-2 6 -1 11 3 16l71 80l24 25h-146c-7 0 -11 4 -11 11v31
c0 7 4 11 11 11h216c7 0 11 -4 11 -11v-19c0 -5 -2 -9 -6 -13l-100 -111h12c63 0 103 -50 103 -112z" />
    <glyph glyph-name="four.sups" unicode="&#x2074;" horiz-adv-x="328" 
d="M253 410h-36c-7 0 -11 4 -11 11v73h-174c-7 0 -11 4 -11 11v22c0 5 1 9 3 14l138 249c3 5 8 8 13 8h37c9 0 12 -6 8 -14l-129 -233h115v72c0 7 4 12 11 12h36c7 0 11 -5 11 -12v-72h29c8 0 12 -4 12 -12v-34c0 -7 -4 -11 -12 -11h-29v-73c0 -7 -4 -11 -11 -11z" />
    <glyph glyph-name="five.sups" unicode="&#x2075;" horiz-adv-x="333" 
d="M302 538c0 -86 -56 -133 -137 -133c-61 0 -98 22 -127 56c-5 6 -3 12 2 17l19 23c6 6 11 4 16 -1c22 -24 50 -38 89 -38c48 0 78 26 79 76c0 52 -31 75 -77 75c-34 0 -58 -13 -77 -32c-5 -5 -10 -6 -16 -4l-24 8c-5 1 -9 5 -9 13l6 189c0 7 5 11 12 11h211
c7 0 11 -4 11 -11v-33c0 -7 -4 -12 -11 -12h-173l-3 -104c21 19 48 29 81 29c67 0 128 -41 128 -129z" />
    <glyph glyph-name="six.sups" unicode="&#x2076;" horiz-adv-x="336" 
d="M305 537c0 -80 -54 -132 -130 -132c-81 0 -135 52 -135 132v143c0 79 59 123 134 123c47 0 86 -18 117 -45c6 -5 6 -10 1 -16l-18 -23c-5 -6 -12 -7 -16 -2c-23 17 -47 31 -82 31c-48 0 -78 -27 -78 -70v-56c18 23 45 37 81 37c69 0 126 -42 126 -122zM98 537
c0 -46 32 -75 74 -75c45 0 75 30 75 75c0 43 -28 69 -74 69c-44 0 -75 -28 -75 -69z" />
    <glyph glyph-name="seven.sups" unicode="&#x2077;" horiz-adv-x="304" 
d="M110 410h-41c-8 0 -11 6 -8 13l151 318h-179c-7 0 -11 4 -11 11v35c0 7 4 11 11 11h239c8 0 12 -4 12 -11v-24c0 -5 -1 -9 -3 -14l-158 -331c-3 -6 -7 -8 -13 -8z" />
    <glyph glyph-name="eight.sups" unicode="&#x2078;" horiz-adv-x="346" 
d="M311 524c0 -74 -57 -119 -138 -119s-138 45 -138 119c0 38 20 75 63 91c-35 16 -54 45 -54 83c0 63 52 105 129 105c76 0 129 -42 129 -105c0 -38 -19 -67 -54 -83c43 -16 63 -53 63 -91zM102 696c0 -31 24 -56 71 -56s71 25 71 56c0 32 -28 53 -71 53
c-42 0 -71 -21 -71 -53zM94 525c0 -36 29 -63 79 -63s79 27 79 63c0 34 -29 58 -79 58s-79 -24 -79 -58z" />
    <glyph glyph-name="nine.sups" unicode="&#x2079;" horiz-adv-x="338" 
d="M32 676c0 76 54 127 132 127c79 0 134 -51 134 -130v-145c0 -79 -58 -123 -133 -123c-48 0 -89 20 -120 50c-5 5 -5 11 -1 17l19 24c4 6 11 7 16 2c22 -21 49 -37 84 -37c48 0 77 27 77 69v58c-17 -23 -46 -38 -82 -38c-68 0 -126 43 -126 126zM240 674
c0 45 -31 74 -75 74s-74 -29 -74 -72c0 -46 28 -73 73 -73c46 0 76 28 76 71z" />
    <glyph glyph-name="fraction" unicode="&#x2044;" horiz-adv-x="189" 
d="M390 701l-528 -694c-3 -5 -8 -7 -14 -7h-41c-9 0 -12 7 -8 14l529 694c3 5 8 7 14 7h41c9 0 12 -7 7 -14z" />
    <glyph glyph-name="onehalf" unicode="&#xbd;" horiz-adv-x="841" 
d="M160 327h-36c-7 0 -11 4 -11 11v307l-50 -35c-6 -5 -11 -3 -15 3l-17 23c-4 6 -3 11 3 16l82 58c4 3 8 5 14 5h30c7 0 11 -4 11 -12v-365c0 -7 -4 -11 -11 -11zM664 701l-528 -694c-3 -5 -8 -7 -14 -7h-41c-9 0 -12 7 -8 14l529 694c3 5 8 7 14 7h41c9 0 12 -7 7 -14z
M789 0h-238c-7 0 -11 4 -11 11v30c0 5 1 10 5 14l106 103c47 49 83 87 83 129c0 32 -22 50 -62 50c-39 0 -66 -19 -85 -39c-6 -6 -12 -5 -17 1l-18 25c-4 6 -4 11 0 16c26 26 67 53 123 53c74 0 118 -44 118 -105c0 -60 -36 -105 -107 -174c-22 -21 -45 -42 -60 -57h163
c8 0 12 -4 12 -11v-35c0 -7 -4 -11 -12 -11z" />
    <glyph glyph-name="onethird" unicode="&#x2153;" horiz-adv-x="848" 
d="M160 327h-36c-7 0 -11 4 -11 11v307l-50 -35c-6 -5 -11 -3 -15 3l-17 23c-4 6 -3 11 3 16l82 58c4 3 8 5 14 5h30c7 0 11 -4 11 -12v-365c0 -7 -4 -11 -11 -11zM667 701l-528 -694c-3 -5 -8 -7 -14 -7h-41c-9 0 -12 7 -8 14l529 694c3 5 8 7 14 7h41c9 0 12 -7 7 -14z
M804 122c0 -76 -58 -128 -131 -127c-62 1 -101 25 -133 56c-4 5 -4 11 0 15l19 24c6 6 10 6 16 1c24 -25 57 -40 97 -40c44 0 75 29 75 77c0 39 -28 68 -77 68c-12 0 -24 -1 -34 -3c-7 -1 -12 1 -14 8l-6 13c-2 6 -1 11 3 16l71 80l24 25h-146c-7 0 -11 4 -11 11v31
c0 7 4 11 11 11h216c7 0 11 -4 11 -11v-19c0 -5 -2 -9 -6 -13l-100 -111h12c63 0 103 -50 103 -112z" />
    <glyph glyph-name="twothirds" unicode="&#x2154;" horiz-adv-x="923" 
d="M292 327h-238c-7 0 -11 4 -11 11v30c0 5 1 10 5 14l106 103c47 49 83 87 83 129c0 32 -22 50 -62 50c-39 0 -66 -19 -85 -39c-6 -6 -12 -5 -17 1l-18 25c-4 6 -4 11 0 16c26 26 67 53 123 53c74 0 118 -44 118 -105c0 -60 -36 -105 -107 -174c-22 -21 -45 -42 -60 -57
h163c8 0 12 -4 12 -11v-35c0 -7 -4 -11 -12 -11zM749 701l-528 -694c-3 -5 -8 -7 -14 -7h-41c-9 0 -12 7 -8 14l529 694c3 5 8 7 14 7h41c9 0 12 -7 7 -14zM879 122c0 -76 -58 -128 -131 -127c-62 1 -101 25 -133 56c-4 5 -4 11 0 15l19 24c6 6 10 6 16 1
c24 -25 57 -40 97 -40c44 0 75 29 75 77c0 39 -28 68 -77 68c-12 0 -24 -1 -34 -3c-7 -1 -12 1 -14 8l-6 13c-2 6 -1 11 3 16l71 80l24 25h-146c-7 0 -11 4 -11 11v31c0 7 4 11 11 11h216c7 0 11 -4 11 -11v-19c0 -5 -2 -9 -6 -13l-100 -111h12c63 0 103 -50 103 -112z" />
    <glyph glyph-name="onequarter" unicode="&#xbc;" horiz-adv-x="812" 
d="M160 327h-36c-7 0 -11 4 -11 11v307l-50 -35c-6 -5 -11 -3 -15 3l-17 23c-4 6 -3 11 3 16l82 58c4 3 8 5 14 5h30c7 0 11 -4 11 -12v-365c0 -7 -4 -11 -11 -11zM664 701l-528 -694c-3 -5 -8 -7 -14 -7h-41c-9 0 -12 7 -8 14l529 694c3 5 8 7 14 7h41c9 0 12 -7 7 -14z
M732 0h-36c-7 0 -11 4 -11 11v73h-174c-7 0 -11 4 -11 11v22c0 5 1 9 3 14l138 249c3 5 8 8 13 8h37c9 0 12 -6 8 -14l-129 -233h115v72c0 7 4 12 11 12h36c7 0 11 -5 11 -12v-72h29c8 0 12 -4 12 -12v-34c0 -7 -4 -11 -12 -11h-29v-73c0 -7 -4 -11 -11 -11z" />
    <glyph glyph-name="threequarters" unicode="&#xbe;" horiz-adv-x="852" 
d="M301 449c0 -76 -58 -128 -131 -127c-62 1 -101 25 -133 56c-4 5 -4 11 0 15l19 24c6 6 10 6 16 1c24 -25 57 -40 97 -40c44 0 75 29 75 77c0 39 -28 68 -77 68c-12 0 -24 -1 -34 -3c-7 -1 -12 1 -14 8l-6 13c-2 6 -1 11 3 16l71 80l24 25h-146c-7 0 -11 4 -11 11v31
c0 7 4 11 11 11h216c7 0 11 -4 11 -11v-19c0 -5 -2 -9 -6 -13l-100 -111h12c63 0 103 -50 103 -112zM731 701l-528 -694c-3 -5 -8 -7 -14 -7h-41c-9 0 -12 7 -8 14l529 694c3 5 8 7 14 7h41c9 0 12 -7 7 -14zM770 0h-36c-7 0 -11 4 -11 11v73h-174c-7 0 -11 4 -11 11v22
c0 5 1 9 3 14l138 249c3 5 8 8 13 8h37c9 0 12 -6 8 -14l-129 -233h115v72c0 7 4 12 11 12h36c7 0 11 -5 11 -12v-72h29c8 0 12 -4 12 -12v-34c0 -7 -4 -11 -12 -11h-29v-73c0 -7 -4 -11 -11 -11z" />
    <glyph glyph-name="oneeighth" unicode="&#x215b;" horiz-adv-x="883" 
d="M159 327h-36c-7 0 -11 4 -11 11v307l-50 -35c-6 -5 -11 -3 -15 3l-17 23c-4 6 -3 11 3 16l82 58c4 3 8 5 14 5h30c7 0 11 -4 11 -12v-365c0 -7 -4 -11 -11 -11zM670 701l-528 -694c-3 -5 -8 -7 -14 -7h-41c-9 0 -12 7 -8 14l529 694c3 5 8 7 14 7h41c9 0 12 -7 7 -14z
M844 114c0 -74 -57 -119 -138 -119s-138 45 -138 119c0 38 20 75 63 91c-36 16 -54 45 -54 83c0 63 51 105 129 105c76 0 128 -42 128 -105c0 -38 -18 -67 -53 -83c43 -16 63 -53 63 -91zM635 286c0 -31 24 -56 71 -56s71 25 71 56c0 32 -29 53 -71 53
c-43 0 -71 -21 -71 -53zM627 115c0 -36 29 -63 79 -63s79 27 79 63c0 34 -29 58 -79 58s-79 -24 -79 -58z" />
    <glyph glyph-name="threeeighths" unicode="&#x215c;" horiz-adv-x="919" 
d="M301 449c0 -76 -58 -128 -131 -127c-62 1 -101 25 -133 56c-4 5 -4 11 0 15l19 24c6 6 10 6 16 1c24 -25 57 -40 97 -40c44 0 75 29 75 77c0 39 -28 68 -77 68c-12 0 -24 -1 -34 -3c-7 -1 -12 1 -14 8l-6 13c-2 6 -1 11 3 16l71 80l24 25h-146c-7 0 -11 4 -11 11v31
c0 7 4 11 11 11h216c7 0 11 -4 11 -11v-19c0 -5 -2 -9 -6 -13l-100 -111h12c63 0 103 -50 103 -112zM744 701l-528 -694c-3 -5 -8 -7 -14 -7h-41c-9 0 -12 7 -8 14l529 694c3 5 8 7 14 7h41c9 0 12 -7 7 -14zM878 114c0 -74 -57 -119 -138 -119s-138 45 -138 119
c0 38 20 75 63 91c-36 16 -54 45 -54 83c0 63 51 105 129 105c76 0 128 -42 128 -105c0 -38 -18 -67 -53 -83c43 -16 63 -53 63 -91zM669 286c0 -31 24 -56 71 -56s71 25 71 56c0 32 -29 53 -71 53c-43 0 -71 -21 -71 -53zM661 115c0 -36 29 -63 79 -63s79 27 79 63
c0 34 -29 58 -79 58s-79 -24 -79 -58z" />
    <glyph glyph-name="fiveeighths" unicode="&#x215d;" horiz-adv-x="924" 
d="M312 455c0 -86 -56 -133 -137 -133c-61 0 -98 22 -127 56c-5 6 -3 12 2 17l19 23c6 6 11 4 16 -1c22 -24 50 -38 89 -38c48 0 78 26 79 76c0 52 -31 75 -77 75c-34 0 -58 -13 -77 -32c-5 -5 -10 -6 -16 -4l-24 8c-5 1 -9 5 -9 13l6 189c0 7 5 11 12 11h211
c7 0 11 -4 11 -11v-33c0 -7 -4 -12 -11 -12h-173l-3 -104c21 19 48 29 81 29c67 0 128 -41 128 -129zM751 701l-528 -694c-3 -5 -8 -7 -14 -7h-41c-9 0 -12 7 -8 14l529 694c3 5 8 7 14 7h41c9 0 12 -7 7 -14zM883 114c0 -74 -57 -119 -138 -119s-138 45 -138 119
c0 38 20 75 63 91c-36 16 -54 45 -54 83c0 63 51 105 129 105c76 0 128 -42 128 -105c0 -38 -18 -67 -53 -83c43 -16 63 -53 63 -91zM674 286c0 -31 24 -56 71 -56s71 25 71 56c0 32 -29 53 -71 53c-43 0 -71 -21 -71 -53zM666 115c0 -36 29 -63 79 -63s79 27 79 63
c0 34 -29 58 -79 58s-79 -24 -79 -58z" />
    <glyph glyph-name="seveneighths" unicode="&#x215e;" horiz-adv-x="831" 
d="M125 327h-41c-8 0 -11 6 -8 13l151 318h-179c-7 0 -11 4 -11 11v35c0 7 4 11 11 11h240c7 0 11 -4 11 -11v-24c0 -5 -1 -9 -3 -14l-158 -331c-2 -6 -7 -8 -13 -8zM667 701l-528 -694c-3 -5 -8 -7 -14 -7h-41c-9 0 -12 7 -8 14l529 694c3 5 8 7 14 7h41c9 0 12 -7 7 -14z
M791 114c0 -74 -57 -119 -138 -119s-138 45 -138 119c0 38 20 75 63 91c-36 16 -54 45 -54 83c0 63 51 105 129 105c76 0 128 -42 128 -105c0 -38 -18 -67 -53 -83c43 -16 63 -53 63 -91zM582 286c0 -31 24 -56 71 -56s71 25 71 56c0 32 -29 53 -71 53
c-43 0 -71 -21 -71 -53zM574 115c0 -36 29 -63 79 -63s79 27 79 63c0 34 -29 58 -79 58s-79 -24 -79 -58z" />
    <glyph glyph-name="asterisk" unicode="*" horiz-adv-x="457" 
d="M140 365l-41 30c-6 4 -7 10 -3 15l72 100l-116 38c-7 2 -10 8 -8 14l15 49c3 7 8 11 14 8l118 -38v123c0 7 4 11 12 11h50c7 0 12 -4 12 -11v-124l117 38c6 3 11 0 14 -7l16 -48c2 -6 -1 -12 -7 -14l-118 -38l72 -100c5 -5 4 -10 -2 -15l-41 -31c-5 -5 -11 -3 -15 2
l-73 100l-72 -99c-4 -6 -10 -6 -16 -3z" />
    <glyph glyph-name="backslash" unicode="\" horiz-adv-x="420" 
d="M311 9l-285 693c-3 7 0 13 8 13h60c6 0 10 -3 13 -9l287 -693c3 -7 -1 -13 -9 -13h-61c-6 0 -11 3 -13 9z" />
    <glyph glyph-name="periodcentered" unicode="&#xb7;" horiz-adv-x="236" 
d="M173 309c0 -32 -23 -55 -55 -55c-33 0 -55 23 -55 55c0 33 22 56 55 56c32 0 55 -23 55 -56z" />
    <glyph glyph-name="bullet" unicode="&#x2022;" horiz-adv-x="360" 
d="M180 227c-56 0 -97 40 -97 98c0 57 41 97 97 97s97 -40 97 -97c0 -58 -41 -98 -97 -98z" />
    <glyph glyph-name="colon" unicode=":" horiz-adv-x="244" 
d="M177 466c0 -34 -22 -56 -55 -56s-55 22 -55 56c0 33 22 55 55 55s55 -22 55 -55zM177 50c0 -33 -22 -55 -55 -55s-55 22 -55 55c0 34 22 56 55 56s55 -22 55 -56z" />
    <glyph glyph-name="comma" unicode="," horiz-adv-x="215" 
d="M158 91l-66 -199c-1 -6 -6 -9 -13 -9h-49c-8 0 -11 5 -10 13l53 198c1 6 5 10 12 10h63c8 0 12 -6 10 -13z" />
    <glyph glyph-name="ellipsis" unicode="&#x2026;" horiz-adv-x="601" 
d="M161 50c0 -32 -23 -55 -55 -55c-33 0 -55 23 -55 55c0 33 22 56 55 56c32 0 55 -23 55 -56zM356 50c0 -32 -23 -55 -55 -55c-33 0 -55 23 -55 55c0 33 22 56 55 56c32 0 55 -23 55 -56zM551 50c0 -32 -23 -55 -56 -55s-55 23 -55 55c0 33 22 56 55 56s56 -23 56 -56z" />
    <glyph glyph-name="exclam" unicode="!" horiz-adv-x="248" 
d="M151 176h-53c-8 0 -12 4 -12 11l-6 342v175c0 7 5 11 12 11h65c7 0 11 -4 11 -11v-175l-6 -342c0 -7 -4 -11 -11 -11zM182 50c0 -33 -25 -58 -58 -58s-57 25 -57 58s24 58 57 58s58 -25 58 -58z" />
    <glyph glyph-name="exclamdown" unicode="&#xa1;" horiz-adv-x="238" 
d="M92 345h53c8 0 12 -4 12 -11l6 -342v-175c0 -7 -5 -11 -12 -11h-65c-7 0 -11 4 -11 11v175l6 342c0 7 4 11 11 11zM61 471c0 33 25 58 58 58s57 -25 57 -58s-24 -58 -57 -58s-58 25 -58 58z" />
    <glyph glyph-name="numbersign" unicode="#" horiz-adv-x="727" 
d="M175 0h-50c-8 0 -12 6 -9 13l55 194h-133c-8 0 -12 5 -9 13l12 42c2 6 6 10 12 10h136l46 169h-133c-8 0 -11 5 -9 13l12 42c2 6 6 10 13 10h135l57 199c2 7 6 10 12 10h50c8 0 12 -6 10 -13l-56 -196h158l57 199c2 7 5 10 12 10h50c8 0 12 -6 10 -13l-56 -196h131
c8 0 11 -6 9 -14l-12 -41c-2 -7 -6 -10 -12 -10h-134l-47 -169h131c8 0 12 -6 9 -14l-12 -41c-2 -7 -5 -10 -12 -10h-134l-57 -197c-1 -7 -5 -10 -12 -10h-50c-8 0 -11 6 -9 13l56 194h-158l-57 -197c-2 -7 -6 -10 -12 -10zM308 441l-47 -169h158l47 169h-158z" />
    <glyph glyph-name="period" unicode="." horiz-adv-x="211" 
d="M161 50c0 -32 -23 -55 -55 -55c-33 0 -55 23 -55 55c0 33 22 56 55 56c32 0 55 -23 55 -56z" />
    <glyph glyph-name="question" unicode="?" horiz-adv-x="475" 
d="M244 176h-59c-7 0 -11 4 -11 11v59c0 145 183 143 183 279c0 65 -37 128 -134 128c-64 0 -109 -27 -147 -65c-6 -5 -12 -6 -16 1l-31 44c-4 5 -4 10 1 15c38 39 107 78 195 78c119 0 212 -73 212 -201c0 -174 -181 -162 -181 -294v-44c0 -7 -4 -11 -12 -11zM271 50
c0 -32 -23 -55 -56 -55s-55 23 -55 55c0 33 22 56 55 56s56 -23 56 -56z" />
    <glyph glyph-name="questiondown" unicode="&#xbf;" horiz-adv-x="470" 
d="M228 349h59c7 0 11 -4 11 -11v-59c0 -145 -183 -143 -183 -279c0 -65 37 -128 134 -128c64 0 109 27 147 65c6 5 12 6 16 -1l31 -44c4 -5 4 -10 -1 -15c-38 -39 -107 -78 -195 -78c-119 0 -212 73 -212 201c0 174 181 162 181 294v44c0 7 4 11 12 11zM201 475
c0 32 23 55 56 55s55 -23 55 -55c0 -33 -22 -56 -55 -56s-56 23 -56 56z" />
    <glyph glyph-name="quotedbl" unicode="&#x22;" horiz-adv-x="329" 
d="M150 703l-24 -201c-1 -7 -6 -11 -13 -11h-43c-7 0 -11 3 -11 12l10 201c0 7 5 11 12 11h58c7 0 11 -4 11 -12zM280 703l-24 -201c0 -7 -6 -11 -12 -11h-43c-8 0 -11 3 -11 12l9 201c0 7 5 11 13 11h58c7 0 11 -4 10 -12z" />
    <glyph glyph-name="quotesingle" unicode="'" horiz-adv-x="198" 
d="M149 703l-24 -201c-1 -7 -6 -11 -12 -11h-43c-8 0 -11 3 -11 12l9 201c0 7 5 11 12 11h59c7 0 11 -4 10 -12z" />
    <glyph glyph-name="semicolon" unicode=";" horiz-adv-x="255" 
d="M98 -117h-49c-8 0 -12 5 -10 13l52 205c2 7 6 10 12 10h64c8 0 12 -6 9 -13l-65 -205c-2 -6 -7 -10 -13 -10zM188 466c0 -33 -23 -56 -56 -56s-55 23 -55 56c0 32 22 55 55 55s56 -23 56 -55z" />
    <glyph glyph-name="slash" unicode="/" horiz-adv-x="420" 
d="M394 702l-285 -693c-2 -6 -7 -9 -13 -9h-61c-8 0 -12 6 -9 13l287 693c3 6 7 9 13 9h60c8 0 11 -6 8 -13z" />
    <glyph glyph-name="underscore" unicode="_" horiz-adv-x="574" 
d="M538 -23v-54c0 -7 -4 -11 -11 -11h-480c-7 0 -11 4 -11 11v54c0 7 4 12 11 12h480c7 0 11 -5 11 -12z" />
    <glyph glyph-name="braceleft" unicode="{" horiz-adv-x="297" 
d="M252 -117h-27c-81 0 -117 37 -117 128v199c0 58 -14 99 -60 107c-7 1 -11 5 -11 12v54c0 7 4 11 11 12c46 8 60 49 60 107v199c0 91 36 128 116 128h28c7 0 12 -4 12 -11v-53c0 -7 -4 -11 -12 -11h-22c-31 -1 -46 -17 -46 -58v-208c0 -67 -31 -119 -73 -132
c42 -13 73 -65 73 -132v-208c0 -42 16 -57 47 -58h21c8 0 12 -4 12 -11v-53c0 -7 -4 -11 -12 -11z" />
    <glyph glyph-name="braceright" unicode="}" horiz-adv-x="297" 
d="M72 -117h-27c-8 0 -12 4 -12 11v53c0 7 4 11 12 11h21c31 1 47 16 47 58v208c0 67 31 119 73 132c-42 13 -73 65 -73 132v208c0 41 -15 57 -46 58h-22c-8 0 -12 4 -12 11v53c0 7 5 11 12 11h28c80 0 116 -37 116 -128v-199c0 -58 14 -99 60 -107c7 -1 11 -5 11 -12v-54
c0 -7 -4 -11 -11 -12c-46 -8 -60 -49 -60 -107v-199c0 -91 -36 -128 -117 -128z" />
    <glyph glyph-name="bracketleft" unicode="[" horiz-adv-x="285" 
d="M163 753v-795h77c7 0 12 -4 12 -11v-53c0 -7 -5 -11 -12 -11h-146c-8 0 -12 4 -12 11v923c0 7 4 11 12 11h146c7 0 12 -4 12 -11v-53c0 -7 -5 -11 -12 -11h-77z" />
    <glyph glyph-name="bracketright" unicode="]" horiz-adv-x="285" 
d="M122 -42v795h-77c-7 0 -12 4 -12 11v53c0 7 5 11 12 11h146c8 0 12 -4 12 -11v-923c0 -7 -4 -11 -12 -11h-146c-7 0 -12 4 -12 11v53c0 7 5 11 12 11h77z" />
    <glyph glyph-name="parenleft" unicode="(" horiz-adv-x="286" 
d="M257 -116h-60c-6 0 -11 2 -14 8c-83 141 -134 297 -134 464c0 166 51 323 134 464c3 6 8 8 14 8h60c9 0 12 -6 8 -14c-84 -137 -135 -301 -135 -458s51 -321 135 -458c4 -8 1 -14 -8 -14z" />
    <glyph glyph-name="parenright" unicode=")" horiz-adv-x="286" 
d="M88 -116h-60c-9 0 -12 6 -8 14c84 137 135 301 135 458s-51 321 -135 458c-4 8 -1 14 8 14h60c6 0 11 -2 14 -8c83 -141 134 -298 134 -464c0 -167 -51 -323 -134 -464c-3 -6 -8 -8 -14 -8z" />
    <glyph glyph-name="emdash" unicode="&#x2014;" horiz-adv-x="963" 
d="M897 328v-54c0 -7 -5 -11 -12 -11h-807c-7 0 -12 4 -12 11v54c0 7 5 11 12 11h807c7 0 12 -4 12 -11z" />
    <glyph glyph-name="endash" unicode="&#x2013;" horiz-adv-x="591" 
d="M525 328v-54c0 -7 -4 -11 -11 -11h-437c-7 0 -11 4 -11 11v54c0 7 4 11 11 11h437c7 0 11 -4 11 -11z" />
    <glyph glyph-name="hyphen" unicode="-" horiz-adv-x="404" 
d="M327 263h-250c-7 0 -11 4 -11 11v54c0 7 4 11 11 11h250c7 0 11 -4 11 -11v-54c0 -7 -4 -11 -11 -11z" />
    <glyph glyph-name="guillemotleft" unicode="&#xab;" horiz-adv-x="515" 
d="M256 71h-64c-5 0 -11 2 -14 7l-138 205c-3 6 -3 10 0 16l138 205c3 5 9 7 14 7h64c9 0 12 -6 7 -14l-140 -206l140 -206c5 -8 2 -14 -7 -14zM462 71h-64c-5 0 -11 2 -14 7l-138 205c-3 6 -3 10 0 16l138 205c3 5 9 7 14 7h64c9 0 12 -6 7 -14l-140 -206l140 -206
c5 -8 2 -14 -7 -14z" />
    <glyph glyph-name="guillemotright" unicode="&#xbb;" horiz-adv-x="515" 
d="M116 71h-64c-9 0 -12 6 -7 14l140 206l-140 206c-5 8 -2 14 7 14h64c5 0 11 -2 14 -7l138 -205c3 -6 3 -10 0 -16l-138 -205c-3 -5 -9 -7 -14 -7zM322 71h-64c-9 0 -12 6 -7 14l140 206l-140 206c-5 8 -2 14 7 14h64c5 0 11 -2 14 -7l138 -205c3 -6 3 -10 0 -16
l-138 -205c-3 -5 -9 -7 -14 -7z" />
    </font>
</defs>
</svg>
